<svg width="82" height="58" viewBox="0 0 82 58" fill="none" xmlns="http://www.w3.org/2000/svg">
<path fill-rule="evenodd" clip-rule="evenodd" d="M39.609 6.62862C39.609 6.708 39.609 6.78553 39.609 6.86121C39.7392 9.52299 38.1054 13.0837 35.12 16.0907C34.5269 16.6859 33.8954 17.2409 33.2294 17.752C33.2166 17.7606 33.2022 17.7666 33.1871 17.7694C33.172 17.7723 33.1564 17.772 33.1414 17.7686C33.1102 17.7611 33.0832 17.7417 33.0661 17.7145C33.049 17.6872 33.0431 17.6543 33.0497 17.6228L35.9837 1.40473C35.9815 1.37479 35.9686 1.34667 35.9474 1.32561C35.9261 1.30455 35.898 1.292 35.8682 1.29028C19.7311 2.05449 7.21577 7.6734 7.21577 14.4922C7.21577 21.8333 21.7244 27.7826 39.6237 27.7826C57.523 27.7826 72.0298 21.8333 72.0298 14.4922C72.0298 7.15101 57.5065 1.20906 39.609 1.20906C39.0406 1.20906 38.4776 1.20906 37.911 1.22568C37.8842 1.22545 37.858 1.23448 37.837 1.25127C37.816 1.26807 37.8013 1.29161 37.7955 1.31797L37.4526 3.21002C37.4487 3.23399 37.4521 3.25857 37.4622 3.28061C37.4723 3.30264 37.4888 3.32113 37.5094 3.33369C38.1359 3.62305 38.6668 4.08732 39.039 4.67138C39.4112 5.25543 39.609 5.93474 39.609 6.62862ZM47.6391 15.7677C47.6344 15.7438 47.6226 15.722 47.6052 15.7051C47.5878 15.6883 47.5657 15.6773 47.5419 15.6735C46.5498 15.5259 45.5046 15.4059 44.4245 15.3154C44.3621 15.3044 44.32 15.2471 44.3603 15.1105C47.6886 11.5867 48.9447 7.10117 47.2686 3.59212C47.2723 3.55958 47.2887 3.52984 47.3141 3.50942C47.3396 3.48901 47.372 3.47958 47.4043 3.48321C58.8561 4.8824 67.2181 9.28487 67.2181 14.4977C67.2181 20.8384 54.8585 25.9773 39.6127 25.9773C24.3669 25.9773 12.0019 20.8384 12.0019 14.4977C12.0019 9.00245 21.2917 4.40985 33.6989 3.28385C33.7575 3.28385 33.8089 3.33185 33.8125 3.42783L31.1188 18.3593C31.0966 18.4724 31.0856 18.5874 31.0858 18.7027C31.0858 19.1834 31.2755 19.6445 31.6132 19.9844C31.9509 20.3243 32.4089 20.5153 32.8865 20.5153H32.9837C35.6028 20.3458 38.1456 19.5586 40.4067 18.2172C41.0976 17.8147 41.7628 17.369 42.3982 16.8826C42.4165 16.8676 42.4389 16.8585 42.4625 16.8565C42.4861 16.8545 42.5097 16.8598 42.5302 16.8715C43.3426 17.4142 43.8138 18.0529 43.8138 18.734C43.8138 19.657 42.9501 20.5042 41.5308 21.1448C39.8804 21.8831 37.4837 22.3594 34.8101 22.3594C32.5473 22.3594 30.4769 22.0216 28.8724 21.4604C28.8411 21.4555 28.8092 21.463 28.7832 21.4812C28.7573 21.4994 28.7393 21.527 28.733 21.5583L28.5038 22.8245C28.5004 22.8549 28.5082 22.8855 28.5258 22.9103C28.5434 22.9352 28.5696 22.9527 28.5992 22.9593C32.2143 23.7758 35.9096 24.1783 39.6145 24.1591C44.5859 24.1591 48.6164 22.5366 48.6164 20.5338C48.6164 19.7567 48.0076 19.0349 46.9661 18.4442C46.0492 17.9975 45.4862 17.4161 45.6274 17.0266C45.7686 16.6371 46.6415 16.5577 47.6739 16.842C47.7326 16.842 47.7894 16.8143 47.8096 16.7091L47.6391 15.7677ZM3.59961 14.4977C3.59961 6.49018 19.722 0 39.609 0C59.4961 0 75.6166 6.49018 75.6166 14.4977C75.6166 22.5052 59.4961 28.9972 39.609 28.9972C19.722 28.9972 3.59961 22.5052 3.59961 14.4977Z" fill="#373833"/>
<path fill-rule="evenodd" clip-rule="evenodd" d="M6.04772 36.2461V54.0036H15.8436V58H0V36.2461H6.04772Z" fill="#373833"/>
<path fill-rule="evenodd" clip-rule="evenodd" d="M30.7297 36.2553L38.9431 57.9945H32.6515L30.8434 52.861H22.9326L21.1245 57.9945H16.0762L24.2052 36.2553H30.7297ZM29.7138 49.1766L26.888 41.254L24.0622 49.1766H29.7138Z" fill="#373833"/>
<path fill-rule="evenodd" clip-rule="evenodd" d="M39.6094 36.2461H48.4627C51.03 36.2461 54.9047 36.5008 57.8791 39.0666C60.296 41.1266 61.431 44.4862 61.431 47.0834C61.431 48.9846 60.8277 52.8832 57.5123 55.5136C54.8754 57.605 51.8992 57.9852 49.1119 57.9852H39.6094V36.2461ZM45.6424 53.9926H48.3545C49.9738 53.9926 52.1229 53.7064 53.5166 51.8384C54.9102 49.9703 54.9469 47.7774 54.9469 46.8951C54.9469 45.7525 54.7965 43.4395 53.1773 41.8244C51.67 40.3661 49.7115 40.2388 48.2427 40.2388H45.6424V53.9926Z" fill="#373833"/>
<path fill-rule="evenodd" clip-rule="evenodd" d="M73.7883 36.2461L81.9998 57.9852H75.7101L73.9002 52.8518H65.9912L64.1813 57.9852H59.1348L67.2711 36.2461H73.7883ZM72.7706 49.1766L69.9466 41.254L67.1153 49.1766H72.7706Z" fill="#373833"/>
</svg>