<svg width="73" height="72" viewBox="0 0 73 72" fill="none" xmlns="http://www.w3.org/2000/svg">
<path fill-rule="evenodd" clip-rule="evenodd" d="M34.3511 63.8433H27.2637C27.1716 63.8433 27.1255 63.9354 27.1255 64.0224V67.6608C27.1208 67.7298 27.0912 67.7947 27.0423 67.8436C26.9934 67.8925 26.9284 67.9221 26.8594 67.9269H22.5814C22.5119 67.9222 22.4463 67.8928 22.3965 67.844C22.3468 67.7952 22.3161 67.7302 22.3102 67.6608V54.975C22.3139 54.9279 22.3346 54.8837 22.3685 54.8507C22.4024 54.8177 22.4472 54.7983 22.4944 54.7959H34.3511C36.7767 54.7959 38.5729 56.1418 38.5729 59.3298C38.5729 62.5179 36.7819 63.8433 34.3511 63.8433ZM32.4629 61.0134C33.4096 61.0134 34.126 60.5682 34.126 59.3094C34.1528 59.0824 34.1286 58.8524 34.0552 58.636C33.9818 58.4195 33.861 58.2223 33.7017 58.0585C33.5423 57.8947 33.3484 57.7686 33.1341 57.6893C32.9198 57.61 32.6905 57.5796 32.4629 57.6002H27.2637C27.1716 57.6002 27.1255 57.6923 27.1255 57.7844V60.8804C27.1239 60.8987 27.1263 60.9172 27.1327 60.9345C27.1392 60.9517 27.1494 60.9673 27.1627 60.9801C27.1759 60.9929 27.1919 61.0025 27.2094 61.0083C27.2269 61.014 27.2454 61.0158 27.2637 61.0134H32.4629ZM55.8437 55.062C55.8485 54.993 55.8781 54.9281 55.927 54.8792C55.9759 54.8303 56.0408 54.8007 56.1098 54.7959H60.3776C60.4466 54.8007 60.5116 54.8303 60.5605 54.8792C60.6094 54.9281 60.639 54.993 60.6437 55.062V64.9435C60.6437 65.0305 60.6898 65.1226 60.7819 65.1226H69.8497C69.8853 65.1212 69.9207 65.1271 69.9539 65.1399C69.9872 65.1527 70.0174 65.1721 70.0428 65.1971C70.0682 65.222 70.0882 65.2519 70.1017 65.2848C70.1151 65.3178 70.1217 65.3531 70.1209 65.3887V67.6812C70.115 67.7507 70.0843 67.8157 70.0346 67.8645C69.9848 67.9133 69.9193 67.9427 69.8497 67.9473H56.0331C55.9864 67.9449 55.9422 67.9252 55.9091 67.8921C55.8761 67.8591 55.8564 67.8149 55.854 67.7682V55.062H55.8437ZM54.2676 54.7959C54.3033 54.7937 54.3392 54.7991 54.3727 54.8116C54.4063 54.8241 54.4368 54.8436 54.4624 54.8687C54.4879 54.8937 54.5079 54.9239 54.5211 54.9572C54.5343 54.9905 54.5403 55.0262 54.5388 55.062V57.4006C54.5388 57.5337 54.4518 57.6206 54.2676 57.6206H44.5038C44.4567 57.6243 44.4125 57.6451 44.3795 57.679C44.3466 57.7129 44.3271 57.7576 44.3247 57.8049V59.8211C44.3247 59.9132 44.4117 59.9592 44.5038 59.9592H52.1337C52.2036 59.9628 52.2698 59.9919 52.3197 60.0409C52.3697 60.0899 52.4 60.1555 52.4049 60.2253V62.5179C52.4064 62.5537 52.4004 62.5894 52.3872 62.6227C52.374 62.656 52.354 62.6862 52.3285 62.7112C52.3029 62.7363 52.2724 62.7558 52.2388 62.7683C52.2053 62.7808 52.1694 62.7862 52.1337 62.784H44.5038C44.4567 62.7877 44.4125 62.8084 44.3795 62.8423C44.3466 62.8762 44.3271 62.921 44.3247 62.9682V64.9435C44.3283 64.9898 44.3483 65.0333 44.3811 65.0662C44.414 65.099 44.4575 65.119 44.5038 65.1226H54.3085C54.3451 65.1166 54.3825 65.1192 54.4178 65.1304C54.4531 65.1416 54.4852 65.1609 54.5117 65.1868C54.5381 65.2127 54.558 65.2445 54.5699 65.2796C54.5817 65.3147 54.5851 65.3521 54.5798 65.3887V67.6812C54.5813 67.717 54.5752 67.7527 54.5621 67.786C54.5489 67.8193 54.5289 67.8495 54.5033 67.8746C54.4777 67.8997 54.4472 67.9191 54.4136 67.9316C54.3801 67.9442 54.3443 67.9495 54.3085 67.9473H39.6987C39.6066 67.9473 39.5657 67.8603 39.5657 67.7682V54.975C39.5657 54.8829 39.6066 54.7959 39.6987 54.7959H54.2676ZM16.9524 67.9064C13.7463 68.3109 10.5021 68.3109 7.29608 67.9064C5.85813 67.6812 4.02102 66.8829 3.5707 65.0305C3.12038 63.178 3.16644 59.642 3.5707 57.6667C4.02102 55.8245 5.85813 54.975 7.29608 54.7959C10.5049 54.4375 13.7436 54.4375 16.9524 54.7959C18.3852 54.975 20.2275 55.8194 20.6778 57.6667C21.082 59.642 21.1895 63.2343 20.6778 65.0305C20.166 66.8266 18.3852 67.6812 16.9524 67.9064ZM14.798 64.8974C15.2029 64.8409 15.5816 64.6645 15.8853 64.3909C16.189 64.1173 16.4038 63.759 16.5021 63.3622C16.6352 62.018 16.6352 60.6639 16.5021 59.3196C16.4067 58.9304 16.1904 58.5816 15.8842 58.3232C15.5779 58.0648 15.1977 57.9102 14.798 57.8816C13.0354 57.7024 11.2591 57.7024 9.49651 57.8816C9.09881 57.9162 8.72154 58.0729 8.41646 58.3304C8.11137 58.5878 7.8934 58.9334 7.79246 59.3196C7.70032 60.6656 7.70032 62.0163 7.79246 63.3622C7.89684 63.7559 8.11355 64.1107 8.41614 64.3833C8.71873 64.6559 9.09412 64.8345 9.49651 64.8974C11.2579 65.0997 13.0366 65.0997 14.798 64.8974V64.8974Z" fill="#373833"/>
<path fill-rule="evenodd" clip-rule="evenodd" d="M17.6537 23.5447V24.2611C17.6388 28.5938 19.195 32.7849 22.0338 36.058C24.8727 39.3311 28.8018 41.4641 33.093 42.0619C37.3842 42.6597 41.7467 41.6816 45.372 39.309C48.9973 36.9364 51.6397 33.3301 52.8094 29.1583L24.0759 29.4705L30.9893 24.1281L17.6537 23.5447ZM18.3292 19.4509C19.4968 15.2872 22.1313 11.6866 25.7463 9.31368C29.3614 6.9408 33.7129 5.95594 37.9974 6.54093C42.2819 7.12592 46.2101 9.24125 49.0568 12.4964C51.9034 15.7515 53.4762 19.9266 53.4849 24.2509V25.1055L40.1493 24.5221L47.2418 19.1336L18.3292 19.4509V19.4509ZM15.3663 23.4577L9.07715 23.1865V19.5481L15.9292 19.4611C17.0995 14.6479 19.9939 10.4309 24.0644 7.60827C28.135 4.78567 33.0991 3.55344 38.0171 4.14486C42.935 4.73628 47.4655 7.1103 50.7508 10.8175C54.0361 14.5247 55.8482 19.3077 55.844 24.2611C55.8516 24.5774 55.8362 24.8938 55.7979 25.2078L62.0819 25.4739V29.056L55.2606 29.1481C54.0626 33.9445 51.1521 38.1373 47.0774 40.9368C43.0027 43.7364 38.0449 44.9493 33.138 44.3473C28.231 43.7452 23.7135 41.3697 20.4364 37.6682C17.1593 33.9667 15.3488 29.1946 15.3458 24.2509C15.3382 23.9822 15.3536 23.7135 15.3919 23.4475L15.3663 23.4577Z" fill="#373833"/>
</svg>