<svg width="99" height="98" viewBox="0 0 99 98" fill="none" xmlns="http://www.w3.org/2000/svg">
<path fill-rule="evenodd" clip-rule="evenodd" d="M96.7047 49C96.7047 58.9342 75.4179 66.9721 49.1588 66.9721C22.8743 66.9721 1.5874 58.9393 1.5874 49C1.5874 39.0607 22.8997 31.0127 49.1588 31.0127C75.4179 31.0127 96.7047 39.0658 96.7047 49ZM3.45819 49C3.45819 57.9581 23.9469 65.1317 49.1586 65.1317C74.4568 65.1317 94.915 57.9276 94.915 49C94.915 40.0724 74.3704 32.8022 49.1586 32.8022C23.9469 32.8022 3.45819 40.0419 3.45819 49Z" fill="#373833"/>
<path fill-rule="evenodd" clip-rule="evenodd" d="M93.4511 49C93.4511 57.2195 73.615 63.8736 49.1716 63.8759C24.7029 63.8736 4.92773 57.189 4.92773 49C4.92773 40.8096 24.6945 34.1546 49.1589 34.1546C73.6233 34.1546 93.4511 40.7791 93.4511 49ZM49.1716 63.8759C49.1674 63.8759 49.1631 63.8759 49.1589 63.8759H49.1843C49.1801 63.8759 49.1759 63.8759 49.1716 63.8759ZM62.5958 38.7557C62.5958 39.7369 59.1589 41.6078 56.2458 41.6078C52.996 41.6078 49.6525 40.4903 47.2164 39.6761C46.4404 39.4167 45.7565 39.1881 45.197 39.0363C45.2223 39.061 45.2439 39.0894 45.2608 39.1208C45.2878 39.1708 45.3022 39.2266 45.3029 39.2835C45.3035 39.3403 45.2903 39.3965 45.2645 39.4471C45.1303 39.6323 44.977 39.8027 44.8069 39.9555C42.7828 41.5012 41.0916 43.4397 39.8347 45.6547C41.1719 45.5691 42.5039 45.4164 43.8257 45.1971C43.7519 44.9579 43.7092 44.7101 43.6986 44.46C43.7952 43.1381 44.5578 42.345 45.539 42.4975C45.787 42.5329 46.0147 42.654 46.1828 42.8397C46.3509 43.0254 46.4487 43.2641 46.4592 43.5143C46.3927 44.1414 46.1126 44.7265 45.6661 45.1717C45.3695 45.4051 45.0511 45.6094 44.7154 45.7818V45.8072C44.7154 46.1479 45.173 46.4224 45.5695 46.4529C45.5435 46.5482 45.5274 46.6304 45.5141 46.6981C45.4806 46.8686 45.4652 46.9469 45.356 46.9105C45.0799 46.8971 44.813 46.8067 44.5857 46.6495C44.3583 46.4922 44.1796 46.2744 44.0697 46.0208C42.8445 46.2394 41.6446 46.3919 39.2246 46.6359C33.1238 56.5142 31.2173 58.1411 27.4754 58.1411C24.8063 58.1411 22.4422 56.3922 22.3914 53.2604C22.3609 51.359 23.9166 49.0305 26.7484 48.3238C27.0839 48.3238 27.211 48.4458 27.211 48.6289C27.211 48.8119 27.0839 48.9085 26.8094 49.0305C25.9807 49.3356 24.5419 50.9625 24.5419 52.4622C24.5419 53.6011 25.2435 54.8568 26.4434 55.1314C26.7558 55.1964 27.0759 55.2169 27.3941 55.1924C30.3682 55.1924 33.7135 51.8522 37.3334 46.7579C36.7487 46.7885 34.2829 47.0681 33.6525 47.7748C33.3729 47.9934 33.1899 47.8663 33.1441 47.6222C33.1777 47.479 33.24 47.3441 33.3271 47.2257C34.2228 46.2187 36.7535 45.9233 37.7255 45.8098C37.8184 45.799 37.8971 45.7898 37.9587 45.7818C40.564 41.748 43.9165 39.1625 44.8662 38.9523L44.8067 38.9387C42.4426 38.3845 40.2971 37.9219 38.6092 37.9219C32.6914 37.9219 30.0528 40.4639 30.1748 42.7975C30.2358 43.7482 31.0035 44.3634 32.1373 44.1448C33.3625 43.9312 35.0809 42.767 35.5131 41.7553C35.5287 41.7149 35.5523 41.6781 35.5824 41.647C35.6124 41.6159 35.6484 41.5911 35.6882 41.5741C35.7279 41.557 35.7707 41.5481 35.814 41.5478C35.8572 41.5475 35.9001 41.5558 35.9401 41.5722C35.9925 41.6158 36.0317 41.6732 36.0533 41.7379C36.0748 41.8025 36.0779 41.872 36.0621 41.9383C35.9096 43.133 34.0692 46.4478 30.8815 46.4478C29.1021 46.4478 27.9023 44.7904 27.9328 43.1635C27.9633 40.1131 31.0645 37.0627 38.7008 37.0627C40.325 37.0677 41.9458 37.2105 43.5459 37.4897C47.2918 38.1966 51.0845 38.6282 54.8934 38.7811C56.5904 38.8412 58.2896 38.7784 59.9775 38.593C60.7848 38.4617 61.1211 38.3792 61.3262 38.3289C61.5499 38.274 61.6177 38.2574 61.9704 38.2574C62.5943 38.2574 62.5906 38.4652 62.5863 38.705L62.5863 38.7056C62.5859 38.7255 62.5856 38.7456 62.5856 38.7658L62.5958 38.7557ZM61.9566 50.7573C61.5778 51.1539 61.1841 51.566 60.7505 51.9742L60.7709 51.9792C60.3847 52.4002 59.9123 52.733 59.3859 52.955C58.8595 53.1769 58.2915 53.2829 57.7204 53.2655C57.4904 53.2757 57.261 53.2338 57.0495 53.1427C56.838 53.0516 56.6499 52.9139 56.4992 52.7397C56.3486 52.5656 56.2393 52.3596 56.1796 52.1372C56.1199 51.9148 56.1113 51.6818 56.1546 51.4556C56.2766 50.6625 56.5511 50.2608 57.1358 50.0473C57.229 50.4169 57.4491 50.7421 57.7575 50.966C58.066 51.1899 58.4434 51.2984 58.8237 51.2726C59.2643 51.2381 59.6757 51.039 59.9763 50.715C60.2768 50.3909 60.4443 49.9656 60.4455 49.5237C60.4471 49.309 60.405 49.0963 60.3217 48.8985C60.2385 48.7007 60.1158 48.5219 59.9612 48.373C59.8066 48.2241 59.6233 48.1083 59.4225 48.0325C59.2217 47.9568 59.0076 47.9227 58.7932 47.9324C57.6594 47.8663 56.8002 48.3899 55.5699 49.8033C55.5699 49.8033 55.88 47.7087 53.5769 47.7697C53.3245 47.7502 53.0711 47.7939 52.8398 47.8968C51.5993 48.2984 49.9571 50.332 48.7013 51.8877C48.752 51.5838 48.7724 51.2755 48.7624 50.9675C48.772 49.9932 48.4351 49.0472 47.8116 48.2984C47.7628 48.2516 47.7041 48.2164 47.6399 48.1953C47.5757 48.1742 47.5075 48.1677 47.4405 48.1764C47.335 48.182 47.2318 48.209 47.1371 48.2559C47.0425 48.3027 46.9583 48.3683 46.8898 48.4487C46.8213 48.529 46.7699 48.6225 46.7387 48.7235C46.7075 48.8244 46.6972 48.9306 46.7084 49.0356C47.1434 49.5403 47.3912 50.1795 47.41 50.8455C47.4095 51.7395 47.2369 52.6249 46.9016 53.4536C45.7373 55.4415 44.263 56.7328 42.4836 56.4583C41.5328 56.2193 40.8872 55.2991 41.0753 53.9163C41.2305 52.9955 41.5769 52.1174 42.0921 51.3387C42.5439 50.7025 43.1186 50.1633 43.7822 49.7529C44.4458 49.3425 45.185 49.0692 45.956 48.9492C45.9814 48.8515 45.9808 48.7489 45.954 48.6516C45.9272 48.5544 45.8753 48.4658 45.8034 48.395C45.7431 48.2797 45.6489 48.1857 45.5334 48.1257C45.4179 48.0657 45.2868 48.0425 45.1578 48.0595C42.5751 48.151 40.9583 50.0219 40.0331 51.8623C39.6975 52.4826 39.2094 53.4282 38.9298 54.0078C38.6118 54.6279 38.1367 55.1538 37.552 55.533C37.4855 55.5851 37.4241 55.6333 37.3675 55.6778C36.9269 56.0239 36.7739 56.1441 36.6928 56.1126C36.7554 56.4123 36.9165 56.6826 37.1504 56.8803C37.2146 56.9317 37.4449 56.8099 37.5888 56.7337L37.6242 56.715C37.6369 56.7084 37.6485 56.7024 37.6588 56.6972C39.0976 55.8685 39.2552 55.472 39.2552 55.472C39.5602 57.1904 41.0346 58.0801 42.6564 58.0801C44.8985 58.0801 46.9524 56.0516 48.1472 54.2722C49.0544 52.9699 50.048 51.73 51.1213 50.5608C51.7975 49.9202 52.5042 49.4881 52.9313 49.4881C53.0215 49.4889 53.1103 49.5099 53.1914 49.5496C53.2724 49.5892 53.3435 49.6464 53.3996 49.7171C53.4556 49.7878 53.4952 49.8701 53.5153 49.958C53.5354 50.0459 53.5356 50.1372 53.5159 50.2253C53.353 50.9392 53.0839 51.6247 52.7177 52.2589L49.3775 57.9327H51.9348C53.228 55.5574 53.4613 55.1304 54.4011 53.4097L54.4054 53.4018L54.4067 53.3994L54.9852 52.3402C55.3818 53.8451 56.18 54.4298 57.4662 54.4603C58.3916 54.5578 59.3258 54.3977 60.1659 53.9976C59.9691 54.7643 60.0335 55.5747 60.3489 56.3007C60.5326 56.7907 60.8655 57.2108 61.3005 57.5018C61.7356 57.7927 62.2509 57.9398 62.774 57.9225C64.2374 57.9197 65.6671 57.4827 66.8819 56.6667C67.0395 57.5564 67.4665 58.014 68.6003 58.014C70.9034 57.953 72.9268 55.5838 74.1521 54.0586C74.3715 53.8049 74.5437 53.5139 74.6605 53.1994C74.6605 53.0164 74.4114 52.8944 74.2893 52.8944C74.1727 52.8944 73.9724 53.1452 73.8484 53.3006L73.8318 53.3214C73.2471 53.9366 70.8271 56.4532 69.5052 56.5142C69.795 56.5142 69.0579 56.6667 68.9968 56.0821C69.0401 55.6976 69.1761 55.3294 69.3934 55.0093L75.962 43.3872H73.542L69.5815 50.0727C69.5507 50.0105 69.5182 49.9399 69.483 49.8631C69.17 49.1809 68.6355 48.0157 67.009 47.9883C64.6252 47.9641 63.3991 49.2475 61.9566 50.7573ZM63.6075 51.5776C64.7108 50.2253 66.0631 49.3051 67.1358 49.4271C68.4424 49.5796 68.5746 50.8709 67.934 52.0657L68.2696 52.1572C67.6622 53.1671 66.9536 54.1125 66.1546 54.9788C64.2735 56.9108 63.0229 56.2702 62.7483 56.0516C62.564 55.8041 62.4358 55.5195 62.3726 55.2175C62.3094 54.9154 62.3127 54.6033 62.3823 54.3027C62.5756 53.3121 62.9949 52.3796 63.6075 51.5776ZM44.5577 45.1361C44.5577 45.1361 44.8678 45.1666 45.3254 44.6277C45.6017 44.3266 45.7558 43.9332 45.7575 43.5245C45.727 43.3415 45.6355 43.1228 45.4169 43.1533C45.2128 43.1794 45.0215 43.2667 44.8681 43.4038C44.7147 43.5408 44.6064 43.7212 44.5577 43.921C44.4351 44.3116 44.4351 44.7303 44.5577 45.1209V45.1361Z" fill="#373833"/>
</svg>