<svg width="59" height="58" viewBox="0 0 59 58" fill="none" xmlns="http://www.w3.org/2000/svg">
<g clip-path="url(#clip0)">
<path fill-rule="evenodd" clip-rule="evenodd" d="M57.2461 23.432C56.0861 17.864 53.4181 12.76 49.4741 8.81599C45.5301 4.87199 40.4261 2.08799 34.8581 1.04399C29.2901 -0.116005 23.6061 0.463995 18.3861 2.66799C13.1661 4.87199 8.75812 8.46799 5.62612 13.224C2.49412 17.864 0.870117 23.432 0.870117 29.116C0.870117 32.828 1.56612 36.54 3.07412 40.02C4.46612 43.5 6.55412 46.632 9.22212 49.3C11.8901 51.968 15.0221 54.056 18.5021 55.448C21.9821 56.84 25.6941 57.652 29.4061 57.652C35.0901 57.652 40.5421 55.912 45.2981 52.78C49.9381 49.648 53.6501 45.24 55.8541 40.02C58.0581 34.8 58.4061 29 57.2461 23.432ZM54.2301 34.8C52.8381 40.716 49.4741 45.936 44.6021 49.648C40.1941 52.896 34.8581 54.752 29.4061 54.752C23.3741 54.752 17.4581 52.548 12.8181 48.604C8.17812 44.66 5.16212 39.208 4.11812 33.176C3.19012 27.144 4.35012 20.996 7.48212 15.892C10.6141 10.672 15.4861 6.84399 21.2861 4.87199C27.0861 2.89999 33.3501 3.13199 38.9181 5.45199C44.6021 7.77199 49.2421 11.948 52.0261 17.4C54.8101 22.62 55.6221 28.884 54.2301 34.8Z" fill="#373833"/>
<path fill-rule="evenodd" clip-rule="evenodd" d="M14.0941 34.22L8.87408 22.504C8.17808 24.592 7.83008 26.796 7.83008 29.116C7.83008 34.8 10.0341 40.136 13.9781 44.196C15.7181 45.936 17.9221 47.444 20.1261 48.604L14.0941 34.22Z" fill="#373833"/>
<path fill-rule="evenodd" clip-rule="evenodd" d="M29.2898 35.96L23.2578 49.648C27.2018 50.808 31.3778 50.808 35.2058 49.648L29.2898 35.96Z" fill="#373833"/>
<path fill-rule="evenodd" clip-rule="evenodd" d="M35.4381 8.46801L30.3341 20.184L29.2901 22.504L28.2461 20.184L23.1421 8.46801C27.2021 7.30801 31.4941 7.30801 35.4381 8.46801Z" fill="#373833"/>
<path fill-rule="evenodd" clip-rule="evenodd" d="M49.7061 22.504L44.6021 34.336L38.4541 48.488C40.7741 47.444 42.8621 45.936 44.6021 44.08C48.5461 40.02 50.7501 34.684 50.7501 29C50.7501 26.796 50.4021 24.592 49.7061 22.504Z" fill="#373833"/>
<path fill-rule="evenodd" clip-rule="evenodd" d="M46.6901 16.472L44.6021 21.344L36.7141 39.44L32.6541 30.16H26.0421L21.9821 39.44L14.0941 21.344L11.8901 16.472C12.4701 15.544 13.2821 14.732 13.9781 14.036C15.2541 12.76 16.7621 11.6 18.3861 10.556L25.9261 27.84H32.7701L40.1941 10.556C41.8181 11.484 43.3261 12.644 44.6021 14.036C45.2981 14.732 45.9941 15.544 46.6901 16.472Z" fill="#373833"/>
</g>
<defs>
<clipPath id="clip0">
<rect x="0.290039" width="58" height="58" fill="white"/>
</clipPath>
</defs>
</svg>