<svg width="77" height="54" viewBox="0 0 77 54" fill="none" xmlns="http://www.w3.org/2000/svg">
<g clip-path="url(#clip0)">
<path fill-rule="evenodd" clip-rule="evenodd" d="M48.3969 52.9206H48.3904C48.2409 52.9246 47.7152 52.9383 47.1991 52.9206C45.8855 52.9206 44.4675 51.9252 44.4675 50.3165C44.4675 48.7206 45.8566 47.7669 47.1926 47.7677C47.2087 47.7645 47.8607 47.7372 48.3969 47.7669C49.7393 47.7669 51.1293 48.7206 51.1293 50.3165C51.1293 51.9252 49.7112 52.9206 48.3969 52.9206ZM49.6783 46.7619C47.81 46.7201 45.9121 46.7611 45.896 46.7619C43.6138 46.7619 41.7584 48.3513 41.7584 50.3052C41.7584 52.2881 43.6146 53.9016 45.8976 53.9016C45.9129 53.9024 47.8108 53.9401 49.6799 53.9016C51.9661 53.9016 53.8263 52.2881 53.8263 50.3052C53.8255 48.3706 52.0031 46.8141 49.6783 46.7619ZM73.9628 53.8109C73.9628 53.8109 76.2008 53.8101 76.2892 53.8101C76.2892 53.7194 76.2884 50.408 76.2884 50.408C76.2884 48.4212 74.5167 46.863 72.2561 46.863L66.3701 46.8622C66.2736 46.8622 66.0502 46.8871 66.0502 47.1215L66.051 53.5468C66.051 53.7194 66.1756 53.8101 66.2977 53.8101C66.2977 53.8101 68.6692 53.8109 68.7576 53.8109C68.7576 53.7194 68.7568 48.4356 68.7568 48.4356C68.7568 48.1996 68.9345 48.0752 69.1089 48.0752L71.8204 48.0736C72.5705 48.0736 73.6798 48.7607 73.6798 50.2338L73.679 53.5396C73.679 53.542 73.6862 53.8109 73.9628 53.8109ZM24.8583 48.2406C24.8583 48.2406 28.3986 48.2414 28.4895 48.2414V47.1344C28.4895 46.9794 28.3777 46.8622 28.229 46.8622H18.1089C17.9441 46.8622 17.8453 46.9987 17.8453 47.1303C17.8453 47.1303 17.8453 48.1555 17.8453 48.2406C17.9345 48.2406 20.2641 48.2414 20.2641 48.2414C21.1717 48.2414 21.7811 49.0232 21.7811 49.753V53.5468C21.7811 53.672 21.8912 53.8109 22.048 53.8109C22.048 53.8109 24.413 53.8117 24.5022 53.8117V48.597C24.503 48.4003 24.6622 48.2406 24.8583 48.2406ZM13.6715 53.5468C13.6715 53.7025 13.8122 53.8117 13.9384 53.8117H14.0766C14.0766 53.8117 14.0662 53.8205 14.0574 53.8286C14.1273 53.8117 14.3644 53.8117 15.1884 53.8117C15.1884 53.8117 16.3042 53.8109 16.3894 53.8109V47.1263C16.3894 46.9834 16.2704 46.8614 16.129 46.8614H13.9376C13.7937 46.8614 13.6715 46.9834 13.6715 47.1263V53.5468ZM32.6528 50.115V48.7278C32.6528 48.3481 32.9205 48.0832 33.3056 48.0832H36.9166C37.464 48.0832 37.9271 48.5456 37.9271 49.0915C37.9271 49.655 37.4689 50.1142 36.9053 50.1142H32.6528V50.115ZM37.9343 53.8125H40.6338C40.5912 52.1428 38.8612 51.4508 38.6618 51.3769L38.6273 51.3641L38.6297 51.2694L38.665 51.2613C39.8218 51.002 40.6289 50.1126 40.6289 49.0995C40.6289 48.023 39.5807 46.8606 37.8861 46.8606L31.3569 46.8622C30.5659 46.8622 29.9453 47.4852 29.9453 48.2807V53.546C29.9453 53.6985 30.0546 53.8085 30.2058 53.8085C30.2058 53.8085 32.566 53.8109 32.656 53.8109C32.656 53.7218 32.6544 51.3464 32.6544 51.3464H34.9688C37.0251 51.3464 37.8716 52.8396 37.9343 53.8125ZM9.54757 49.1934H12.1899C11.6176 47.7404 10.0323 46.7434 8.21071 46.7081L7.39878 46.692C6.12624 46.6647 5.54503 46.6519 4.43085 46.7081C3.12855 46.7739 2.3094 47.0725 1.50632 47.775C0.722529 48.4613 0.290843 49.3668 0.290039 50.3285C0.290039 52.3162 2.04974 53.8751 4.38261 53.957C5.98154 54.014 6.15276 54.0156 8.2501 53.953C10.1931 53.8944 11.5862 53.0097 12.1875 51.4692H9.54596C9.44628 51.4692 9.36991 51.5134 9.31926 51.6017C8.84095 52.4293 7.92533 52.9439 6.93092 52.9439C6.3875 52.9664 5.73233 52.9439 5.73233 52.9439C4.38985 52.9439 2.99993 51.9702 2.99993 50.3406L3.00074 50.3253C3.00958 48.7054 4.39547 47.738 5.73876 47.7372C5.89231 47.7308 6.43332 47.7131 6.92932 47.738C7.90845 47.738 8.84899 48.2598 9.32328 49.0674C9.34016 49.0955 9.40769 49.1934 9.54757 49.1934ZM64.5943 52.5626H58.197C57.9816 52.5626 57.8304 52.4189 57.8304 52.2134V50.8889C57.8304 50.8889 63.284 50.8889 63.3748 50.8889C63.3748 50.8054 63.3748 49.753 63.3748 49.6695H57.8304L57.828 48.4605C57.828 48.4549 57.824 48.3248 57.9221 48.2229C57.9952 48.1474 58.1022 48.1089 58.2412 48.1089H64.5935V47.1344C64.5935 47.0509 64.5702 46.9859 64.5228 46.9409C64.4352 46.8566 64.2905 46.8614 64.2816 46.8622H55.3842C55.3561 46.8622 55.1133 46.8694 55.1133 47.1352L55.1141 52.3972C55.1141 53.0932 55.6463 53.8117 56.5378 53.8117L64.3298 53.8109C64.3942 53.8109 64.4609 53.7828 64.5123 53.7346C64.5654 53.6841 64.5951 53.619 64.5951 53.5524C64.5951 53.5516 64.5951 52.6477 64.5943 52.5626ZM62.6055 44.3488C62.3451 44.1866 62.0323 44.1072 61.6642 44.1072C61.2976 44.1072 60.9712 44.1923 60.722 44.3488C60.4736 44.5037 60.2751 44.7132 59.9808 44.7132C59.6874 44.7132 59.5106 44.5045 59.2461 44.3488C58.9808 44.1923 58.6721 44.1072 58.3047 44.1072C57.9374 44.1072 57.6246 44.1874 57.3626 44.3488C57.1029 44.5069 56.9719 44.7012 56.9719 44.9252C56.9719 45.1515 57.1029 45.3442 57.3626 45.5032C57.6246 45.6637 57.9366 45.7424 58.3047 45.7424C58.6705 45.7424 58.9896 45.6653 59.226 45.5216C59.4615 45.3771 59.7155 45.1419 59.9808 45.1419C60.2469 45.1419 60.4873 45.353 60.7228 45.504C60.9592 45.6533 61.2984 45.7424 61.6642 45.7424C62.042 45.7424 62.3603 45.6637 62.6144 45.5032C62.8692 45.3442 62.9962 45.1515 62.9962 44.9252C62.9954 44.7004 62.866 44.5069 62.6055 44.3488Z" fill="#373833"/>
<path fill-rule="evenodd" clip-rule="evenodd" d="M59.163 37.8405C55.2842 34.5194 43.7604 25.0689 38.29 25.0689C32.8171 25.0689 21.3021 34.513 17.4209 37.8365C17.3976 37.0514 17.3759 36.5745 17.3759 35.8753C17.3759 35.8753 17.281 34.7209 18.3036 33.5657C26.7171 25.9528 35.5382 22.2278 35.8091 22.1138C38.4395 21.0035 38.2916 21.2123 38.2892 16.7567C38.2892 16.7567 38.4065 16.7495 38.4813 16.7575C42.1856 17.0923 52.145 26.7451 58.0392 33.271C58.0496 33.2823 59.2024 34.6149 59.2024 36.0198C59.204 36.6781 59.1847 37.3276 59.163 37.8405ZM59.0047 32.3928C58.3784 31.6992 43.6294 15.441 38.29 15.441C32.9521 15.441 18.2023 31.6992 17.5769 32.392L17.5761 32.3928C17.515 32.461 16.0752 34.1043 16.0752 36.0206C16.0752 37.5122 16.1741 39.0134 16.1757 39.0279C16.1789 39.0969 16.2135 39.7311 16.5664 39.9037C16.6234 39.9318 16.6853 39.9463 16.7489 39.9463C16.8799 39.9463 17.0262 39.8877 17.1846 39.7721C17.3437 39.6316 32.3693 26.3782 38.29 26.3782C44.2114 26.3782 59.2378 39.6316 59.3881 39.7656C59.5521 39.8861 59.7 39.9463 59.8327 39.9463C59.897 39.9463 59.9573 39.9318 60.0151 39.9045C60.3672 39.7327 60.4018 39.0977 60.405 39.0263C60.4058 39.015 60.5047 37.5138 60.5047 36.0222C60.5047 34.1043 59.0649 32.461 59.0047 32.3928ZM59.1421 22.3771C55.2674 19.06 43.7548 9.61909 38.2908 9.61909C32.8235 9.61909 21.3198 19.0543 17.4426 22.3739C17.4193 21.5904 17.3976 21.1127 17.3976 20.4151C17.3976 20.4151 17.3027 19.2615 18.3245 18.1078C26.73 10.5022 35.5422 6.78121 35.8124 6.66721C38.4403 5.55775 38.2924 5.76648 38.29 1.31578C38.29 1.31578 38.4065 1.30856 38.4821 1.31658C42.1824 1.65135 52.1322 11.2945 58.0199 17.8132C58.0303 17.8245 59.1823 19.1555 59.1823 20.5596C59.1831 21.2163 59.163 21.8649 59.1421 22.3771ZM58.9838 16.935C58.3575 16.2421 43.6238 0 38.29 0C32.9577 0 18.2224 16.2421 17.5978 16.9342L17.597 16.935C17.5359 17.0032 16.0969 18.6449 16.0969 20.5596C16.0969 22.0496 16.1966 23.5492 16.1974 23.5636C16.2006 23.6327 16.2352 24.2661 16.5873 24.4387C16.6444 24.4668 16.7063 24.4804 16.7698 24.4804C16.9008 24.4804 17.0463 24.4218 17.2047 24.3062C17.3646 24.1657 32.3749 10.926 38.29 10.926C44.2058 10.926 59.2169 24.1657 59.3672 24.2998C59.5304 24.4202 59.6783 24.4796 59.811 24.4796C59.8753 24.4796 59.9356 24.466 59.9934 24.4379C60.3447 24.2661 60.3801 23.6319 60.3825 23.5604C60.3833 23.5492 60.4822 22.0496 60.4822 20.5596C60.483 18.6449 59.0448 17.0032 58.9838 16.935Z" fill="#373833"/>
</g>
<defs>
<clipPath id="clip0">
<rect x="0.290039" width="76" height="54" fill="white"/>
</clipPath>
</defs>
</svg>