<svg width="103" height="102" viewBox="0 0 103 102" fill="none" xmlns="http://www.w3.org/2000/svg">
<g clip-path="url(#clip0)">
<path fill-rule="evenodd" clip-rule="evenodd" d="M18.4581 64.3861H14.2323V58.7435H11.2939V72.8438H14.2323V66.5359H18.4519V72.8438H21.3964V58.7435H18.4581V64.3861Z" fill="#373833"/>
<path fill-rule="evenodd" clip-rule="evenodd" d="M88.6948 58.7435V60.8933H92.6988V72.8438H95.6372V60.8933H99.6412V58.7435H88.6948Z" fill="#373833"/>
<path fill-rule="evenodd" clip-rule="evenodd" d="M73.153 58.7435H70.2085V72.8438H78.6293V70.6939H73.153V58.7435Z" fill="#373833"/>
<path fill-rule="evenodd" clip-rule="evenodd" d="M39.4697 70.503C39.4265 70.6447 39.3157 70.6878 39.1617 70.6878C39.0956 70.695 39.029 70.6802 38.9722 70.6456C38.9153 70.6111 38.8715 70.5588 38.8475 70.4968L35.7675 58.7435H32.3179L35.8784 71.6056C35.929 71.9677 36.116 72.2968 36.401 72.5258C36.6861 72.7547 37.0477 72.8663 37.4122 72.8376H40.1288C40.4899 72.8599 40.8462 72.7456 41.1269 72.5174C41.4076 72.2891 41.5923 71.9637 41.6442 71.6056L45.1246 58.7188H42.5189L39.4389 70.4783L39.4697 70.503Z" fill="#373833"/>
<path fill-rule="evenodd" clip-rule="evenodd" d="M1.38244 60.9611V70.6631C1.38244 72.2278 2.18324 72.8684 3.58157 72.8684H10.1605V70.7124H5.42342C4.60413 70.7124 4.33925 70.5153 4.33925 69.6344V61.996C4.33925 61.1459 4.53637 60.918 5.41726 60.918H10.1728V58.7435H3.57541C2.0662 58.7435 1.37012 59.5196 1.37012 60.9426L1.38244 60.9611Z" fill="#373833"/>
<path fill-rule="evenodd" clip-rule="evenodd" d="M26.1087 69.5851V66.5051H31.9608V64.3553H26.1149V61.9405C26.1149 61.1212 26.2935 60.8625 27.1929 60.8625H32.0224V58.7435H25.3695C23.848 58.7435 23.1704 59.5012 23.1704 60.9426V70.6447C23.1704 72.1354 23.8911 72.85 25.3695 72.85H32.6384V70.6939H27.1868C26.3736 70.6939 26.1087 70.5153 26.1087 69.6159V69.5851Z" fill="#373833"/>
<path fill-rule="evenodd" clip-rule="evenodd" d="M53.712 66.887C55.0734 66.887 55.9111 66.271 55.9111 64.6817V60.9611C55.9111 59.4888 55.215 58.7619 53.712 58.7619H45.5068V72.8623H48.4513V60.9118H51.8886C52.8003 60.9118 52.9666 61.1705 52.9666 61.9898V63.7085C52.9666 64.5401 52.7387 64.7865 51.8886 64.7865H50.2809C50.1491 64.7749 50.0164 64.7926 49.8922 64.8382C49.768 64.8839 49.6555 64.9563 49.5625 65.0505C49.4696 65.1446 49.3985 65.2581 49.3545 65.3828C49.3104 65.5075 49.2944 65.6404 49.3076 65.7721C49.3299 66.0412 49.4258 66.2991 49.5848 66.5174L53.2808 72.8623H56.9275L53.0344 66.9117L53.712 66.887Z" fill="#373833"/>
<path fill-rule="evenodd" clip-rule="evenodd" d="M66.2228 58.7435H59.7362C58.1839 58.7435 57.5371 59.532 57.5371 60.9426V70.6447C57.5371 72.2463 58.3872 72.85 59.7362 72.85H66.2289C67.6334 72.85 68.428 72.1785 68.428 70.6447V60.9611C68.428 59.5196 67.7443 58.762 66.2228 58.762V58.7435ZM64.3747 70.6878H61.5288C60.6787 70.6878 60.4446 70.4599 60.4446 69.6098V61.9713C60.4446 61.2321 60.5432 60.8933 61.5165 60.8933H64.3686C65.1386 60.8933 65.4466 61.0288 65.4466 61.9713V69.5851C65.4466 70.4968 65.1694 70.6631 64.3686 70.6631L64.3747 70.6878Z" fill="#373833"/>
<path fill-rule="evenodd" clip-rule="evenodd" d="M82.1469 69.5851V66.5051H87.9681V64.3553H82.1222V61.9405C82.1222 61.1212 82.3009 60.8625 83.2002 60.8625H88.0359V58.7435H81.383C79.8553 58.7435 79.1777 59.5012 79.1777 60.9426V70.6447C79.1777 72.1354 79.9046 72.85 81.3769 72.85H88.6457V70.6939H83.2249C82.4056 70.6939 82.1469 70.5153 82.1469 69.6159V69.5851Z" fill="#373833"/>
<path fill-rule="evenodd" clip-rule="evenodd" d="M76.2635 33.1239H60.5924C60.192 33.1239 59.9333 33.0069 59.9333 32.4586V30.1609C59.9502 30.0226 59.9354 29.8822 59.89 29.7504C59.8446 29.6186 59.7698 29.4989 59.6712 29.4004C59.5727 29.3018 59.453 29.227 59.3212 29.1816C59.1894 29.1362 59.0491 29.1214 58.9107 29.1384H40.9665C40.8293 29.1226 40.6902 29.1381 40.5597 29.1836C40.4292 29.2291 40.3107 29.3035 40.213 29.4012C40.1153 29.4989 40.0409 29.6175 39.9954 29.7479C39.9499 29.8784 39.9344 30.0175 39.9501 30.1548V32.4833C39.9501 32.9699 39.7161 33.1485 39.2849 33.1485H29.0099C28.7046 33.1271 28.4 33.1986 28.1361 33.3536C27.8722 33.5087 27.6614 33.74 27.5315 34.0171L22.5234 43.7684C22.4591 43.8987 22.4254 44.042 22.4249 44.1873C22.4236 44.31 22.4479 44.4316 22.4964 44.5443C22.5448 44.6571 22.6162 44.7584 22.7061 44.842C22.796 44.9255 22.9024 44.9893 23.0183 45.0293C23.1343 45.0693 23.2574 45.0847 23.3797 45.0744H39.3033C39.7961 45.0744 39.9686 45.2961 39.9686 45.7458V48.0681C39.9519 48.2059 39.9666 48.3457 40.0116 48.4769C40.0567 48.6082 40.1309 48.7275 40.2288 48.826C40.3266 48.9244 40.4455 48.9994 40.5765 49.0452C40.7075 49.0911 40.8472 49.1066 40.985 49.0907H58.9354C59.0731 49.1089 59.2133 49.0952 59.3449 49.0505C59.4765 49.0059 59.5961 48.9316 59.6943 48.8333C59.7926 48.735 59.867 48.6154 59.9116 48.4838C59.9562 48.3522 59.97 48.2121 59.9518 48.0743V45.7458C59.9518 45.2715 60.1489 45.0744 60.6109 45.0744H70.5901C70.8986 45.109 71.2102 45.0485 71.4833 44.901C71.7564 44.7534 71.9778 44.5259 72.1178 44.2489L77.0458 34.59C77.1574 34.417 77.2192 34.2167 77.2245 34.0109C77.224 33.8882 77.1982 33.767 77.1488 33.6547C77.0993 33.5423 77.0273 33.4414 76.9371 33.3582C76.847 33.275 76.7406 33.2112 76.6247 33.1709C76.5088 33.1306 76.3859 33.1146 76.2635 33.1239V33.1239ZM72.3088 37.017L69.9249 41.6802C69.8612 41.7825 69.7688 41.8639 69.6593 41.9143C69.5499 41.9646 69.428 41.9818 69.3088 41.9636H57.5001C57.0073 41.9636 56.8286 42.1915 56.8286 42.635V45.3146C56.8286 45.7643 56.6315 45.9799 56.1572 45.9799H43.7262C43.3074 45.9799 43.0548 45.832 43.0548 45.3084V42.6288C43.0548 42.136 42.833 41.9636 42.3895 41.9636H27.8703C27.7939 41.9731 27.7163 41.9664 27.6426 41.9439C27.5689 41.9215 27.5008 41.8837 27.4427 41.8331C27.3845 41.7826 27.3377 41.7203 27.3053 41.6505C27.2728 41.5806 27.2555 41.5047 27.2543 41.4276C27.255 41.3398 27.2761 41.2533 27.3159 41.1751L29.6999 36.5119C29.7923 36.3456 29.9401 36.2347 30.3159 36.2347H42.3834C42.7961 36.2347 43.0548 36.0684 43.0548 35.5633V32.8775C43.0548 32.4032 43.2642 32.2122 43.7262 32.2122H56.1572C56.6007 32.2122 56.8225 32.4093 56.8225 32.8837V35.5694C56.8225 36.0253 57.0381 36.2347 57.5001 36.2347H71.779C71.856 36.222 71.9348 36.2264 72.0098 36.2477C72.0849 36.2689 72.1543 36.3065 72.2131 36.3577C72.272 36.4089 72.3188 36.4725 72.3502 36.5438C72.3817 36.6152 72.397 36.6927 72.395 36.7706C72.3967 36.8568 72.3754 36.9418 72.3334 37.017H72.3088Z" fill="#373833"/>
<path fill-rule="evenodd" clip-rule="evenodd" d="M62.2616 31.165C62.2616 30.9309 62.0707 30.8755 61.8735 30.8755H61.3931V32.009H61.5471V31.5285H61.7627L62.0953 32.009H62.2678L61.9413 31.51C62.1323 31.51 62.2801 31.4114 62.2801 31.1958L62.2616 31.165ZM61.8366 31.3621H61.5471V31.0049H61.8427C61.9536 31.0049 62.1076 31.0049 62.1076 31.165C62.1076 31.3252 62.0583 31.3621 61.8366 31.3621V31.3621Z" fill="#373833"/>
<path fill-rule="evenodd" clip-rule="evenodd" d="M61.7566 30.4381C61.4952 30.4381 61.2445 30.542 61.0597 30.7268C60.8748 30.9117 60.771 31.1623 60.771 31.4237C60.771 31.6851 60.8748 31.9358 61.0597 32.1207C61.2445 32.3055 61.4952 32.4093 61.7566 32.4093V32.4093C62.018 32.4093 62.2687 32.3055 62.4535 32.1207C62.6384 31.9358 62.7422 31.6851 62.7422 31.4237C62.7422 31.1623 62.6384 30.9117 62.4535 30.7268C62.2687 30.542 62.018 30.4381 61.7566 30.4381V30.4381ZM61.7566 32.2553C61.5932 32.2564 61.4331 32.2094 61.2963 32.12C61.1595 32.0307 61.052 31.903 60.9873 31.753C60.9227 31.6029 60.9036 31.4371 60.9326 31.2763C60.9616 31.1155 61.0373 30.9668 61.1502 30.8487C61.2632 30.7307 61.4085 30.6486 61.5679 30.6126C61.7273 30.5766 61.8937 30.5884 62.0465 30.6464C62.1992 30.7045 62.3315 30.8062 62.4267 30.939C62.522 31.0718 62.576 31.2297 62.582 31.3929C62.5837 31.5024 62.5635 31.611 62.5228 31.7126C62.482 31.8142 62.4215 31.9066 62.3447 31.9846C62.2679 32.0626 62.1763 32.1245 62.0754 32.1667C61.9744 32.209 61.866 32.2307 61.7566 32.2307V32.2553Z" fill="#373833"/>
<path fill-rule="evenodd" clip-rule="evenodd" d="M101.816 59.5258C101.816 59.2917 101.619 59.2363 101.421 59.2363H100.941V60.3451H101.095V59.8584H101.311L101.625 60.3451H101.797L101.471 59.8461C101.668 59.8461 101.816 59.7476 101.816 59.532V59.5258ZM101.384 59.7229H101.095V59.3656H101.391C101.508 59.3656 101.655 59.3656 101.655 59.5258C101.655 59.686 101.606 59.7229 101.384 59.7229Z" fill="#373833"/>
<path fill-rule="evenodd" clip-rule="evenodd" d="M101.304 58.7989C101.043 58.7989 100.792 58.9028 100.607 59.0876C100.422 59.2724 100.318 59.5231 100.318 59.7845C100.318 60.0459 100.422 60.2966 100.607 60.4815C100.792 60.6663 101.043 60.7701 101.304 60.7701V60.7701C101.565 60.7701 101.816 60.6663 102.001 60.4815C102.186 60.2966 102.29 60.0459 102.29 59.7845C102.29 59.5231 102.186 59.2724 102.001 59.0876C101.816 58.9028 101.565 58.7989 101.304 58.7989ZM101.304 60.6469C101.139 60.6481 100.978 60.6006 100.841 60.5102C100.704 60.4198 100.596 60.2907 100.532 60.1393C100.468 59.9878 100.45 59.8207 100.481 59.6592C100.512 59.4976 100.59 59.3489 100.705 59.2317C100.821 59.1145 100.968 59.0342 101.13 59.0009C101.291 58.9677 101.458 58.9829 101.61 59.0447C101.763 59.1065 101.893 59.2121 101.986 59.3482C102.078 59.4843 102.128 59.6447 102.129 59.8092C102.131 59.9186 102.111 60.0273 102.07 60.1288C102.029 60.2304 101.969 60.3229 101.892 60.4008C101.815 60.4788 101.724 60.5407 101.623 60.5829C101.522 60.6252 101.413 60.6469 101.304 60.6469V60.6469Z" fill="#373833"/>
</g>
<defs>
<clipPath id="clip0">
<rect x="0.290039" width="102" height="102" fill="white"/>
</clipPath>
</defs>
</svg>