<svg width="81" height="77" viewBox="0 0 81 77" fill="none" xmlns="http://www.w3.org/2000/svg">
<path fill-rule="evenodd" clip-rule="evenodd" d="M69.8806 70.794C69.8806 74.5159 67.6322 76.9072 63.9725 76.9957V75.6666H64.0166C66.4853 75.6666 67.0154 72.7854 66.9699 71.1922C66.9258 68.5766 65.9566 66.7164 63.971 66.7164V65.2972C67.4985 65.256 69.8806 67.4703 69.8806 70.794ZM63.9725 76.9973C60.3569 77.0873 58.1055 74.9585 57.9733 71.4135C57.9323 67.8258 60.2688 65.3903 63.8388 65.3002H63.9725V66.7195C61.987 66.7195 60.8856 68.4912 60.9296 71.4593C61.0177 74.1161 62.1191 75.6238 63.9725 75.6681V76.9973V76.9973ZM45.2304 67.339L45.671 66.0099C44.4815 65.4773 43.0246 65.3002 41.7454 65.3002C36.4982 65.3002 34.7769 68.801 34.7769 71.1938C34.7769 74.2489 36.8506 76.9973 41.2152 76.9973C44.2156 76.9973 45.9353 75.9763 45.9353 75.9763V71.2823H43.0671V75.3568C43.0671 75.3568 43.023 75.401 42.9334 75.401C42.5825 75.5781 41.832 75.6681 41.0815 75.578C39.1841 75.3125 37.9064 73.5835 37.9064 71.2365C37.9064 68.4896 40.3341 66.985 41.9642 66.895C43.6398 66.8507 44.7017 67.159 45.2304 67.339V67.339ZM80.29 67.2063H76.6744V76.5074H73.7181V67.2063H70.1905V65.7001H80.29V67.2063ZM5.71351 65.7001H6.0219C8.1837 65.7001 8.71237 65.7871 9.5069 66.1426C10.4761 66.5409 11.2266 67.8258 11.2266 68.8452C11.2266 71.9461 8.97823 72.5214 6.28776 72.5214H5.71503V71.2823C7.12635 71.238 8.09558 70.3056 8.09558 69.1992C8.09558 68.0044 7.03824 67.075 5.71503 67.075V65.7001H5.71351V65.7001ZM0.290039 65.7001H5.71351V67.0735H3.37701V71.325H5.53577C5.62388 71.325 5.66793 71.325 5.71351 71.2808V72.5199H3.37701V76.5059H0.290039V65.7001ZM28.0287 76.9973C30.0143 76.9973 31.1613 76.4631 32.2202 75.4453C32.8385 74.8257 33.2335 74.0719 33.2335 72.2986V65.7001H30.3668V73.0983C30.3668 74.6014 29.396 75.5338 28.0272 75.5338C26.704 75.5338 25.6907 74.6472 25.6907 73.0097V65.7016H22.8255V72.2116C22.8255 74.0734 23.2661 74.9142 23.8829 75.5353C24.9418 76.5517 26.0887 76.9973 28.0287 76.9973V76.9973ZM15.415 74.7784H20.7974V76.5074H12.5058V65.7001H20.7974V67.249H15.415V69.9516H19.7811V71.2808H15.415V74.7784V74.7784ZM51.3588 74.8257H56.7382V76.5074H48.4496V65.7001H56.7382V67.2932H51.3588V69.9974H55.7249V71.3265H51.3588V74.8257V74.8257Z" fill="#373833"/>
<path fill-rule="evenodd" clip-rule="evenodd" d="M66.0888 16.4368C66.1328 15.95 66.1328 15.4602 66.3106 14.9291C66.4883 14.3538 66.7952 13.4687 66.9729 12.5378C67.4575 9.70401 65.1651 5.84926 62.4746 5.31821C62.1491 5.18807 61.8087 5.09888 61.4613 5.05268C60.7109 4.96417 57.7576 4.52009 55.6839 7.57673C55.5517 7.75375 55.4211 8.06353 55.2874 8.37484V17.0564C55.4621 16.5253 55.5943 16.037 55.728 15.5502C56.4329 17.4104 57.1833 19.0067 57.8457 20.6899C58.9486 23.3925 59.2995 24.5446 59.6535 26.3606C59.9163 27.8225 59.7857 29.1532 59.2114 29.9071C58.6812 30.6136 57.4917 31.6346 55.2874 31.6346V56.1761C58.1526 55.2895 59.7857 55.9091 63.181 56.5302C63.6641 56.6187 63.9315 55.8648 63.7538 55.2452C63.4894 54.1831 62.8286 52.7197 62.7845 52.0558V43.2842C62.2118 42.6189 61.3717 41.3355 61.3717 41.3355L61.3277 41.3798C60.2247 41.5125 59.4317 41.3798 58.7694 41.07C58.7253 40.9799 58.6357 40.8472 58.5916 40.7144C58.2832 39.6965 57.4461 37.5235 56.8278 36.1531C56.8278 36.1531 60.4465 35.7533 62.6053 33.1377C63.3998 32.2099 64.2809 30.5679 64.2369 28.6634C64.1928 24.3218 60.7534 17.9446 59.8708 15.7288C59.3421 14.3996 57.8442 10.9004 59.298 9.48274C59.6976 9.08444 60.4025 8.81738 61.0648 9.30418C60.3599 10.7676 60.0926 12.4493 60.4906 13.6915C60.6668 14.3996 61.0208 15.0634 61.4613 15.6403C62.3425 17.4562 64.5483 19.0524 65.3428 19.5393C65.3428 19.5393 66.7526 20.4701 67.0626 20.2489C67.1507 20.1588 67.1947 20.0703 67.1947 19.8933V19.6736C67.1036 18.6954 66.0462 16.8794 66.0888 16.4368V16.4368ZM55.2844 8.37484C55.1403 8.71958 55.022 9.07459 54.9304 9.43696C54.224 7.93077 53.4325 6.42458 52.5924 5.18391C52.1959 4.25304 49.8578 1.59622 49.1529 1.37342H48.9767C48.9327 1.32917 48.9327 1.32917 48.8886 1.32917C46.9912 0.79811 44.7002 0.267055 42.8909 0C42.5369 0.0442548 41.036 0.531056 39.5381 1.06211V3.1894C40.0667 3.14514 40.5954 3.10088 40.9919 3.10088C40.9494 3.18939 40.8613 3.23365 40.7716 3.27943C40.4617 3.41219 40.0212 3.58921 39.5381 3.76623V7.44243C39.5821 7.48669 39.6262 7.48669 39.6702 7.53247L39.8009 7.79953L39.5381 7.93077V45.0987C41.2122 43.594 42.9319 42.0863 44.2126 40.8457C44.2126 40.8457 46.5946 42.5731 47.7857 43.3712C49.6816 44.6104 50.5187 45.1857 52.3706 46.1181C53.2092 45.7625 54.1374 45.8068 54.7542 46.1181C54.8848 46.5164 54.8408 46.9589 54.7542 47.226C54.4443 48.0241 53.6497 48.5109 52.6805 48.4666C51.5776 48.3781 50.388 47.8455 48.9311 48.6894C47.4302 49.4845 48.0926 52.2329 47.1674 53.3835H47.2555C47.2114 53.3835 47.2114 53.4293 47.2114 53.4293L48.3144 54.9355C50.783 54.9355 52.6364 56.1761 53.6057 56.7972C54.2224 56.5302 54.7542 56.3104 55.2828 56.1761V31.633C54.9729 31.633 54.6205 31.633 54.268 31.5872C53.121 29.9468 51.535 27.7325 50.7845 26.5376C51.4469 24.012 51.7538 23.3909 52.3265 20.9997L53.6938 21.7093C54.0477 20.6899 54.7086 18.7839 55.2828 17.0564V8.37484H55.2844V8.37484ZM39.5411 1.06364C37.9961 1.59622 36.4982 2.17306 36.4101 2.30277L35.7918 2.96812C34.4686 3.32369 31.734 3.72198 31.5578 3.98751C30.941 4.69711 31.336 5.35941 31.5578 5.67072C31.6004 5.71497 31.7766 6.29028 32.0424 6.73283C32.0424 6.77861 32.0865 6.82287 32.0865 6.86712C32.3493 7.70949 32.881 7.84378 32.881 7.84378H35.7918C36.4541 6.77861 38.2179 6.73283 39.5411 7.44243V3.76623C39.1005 3.94478 38.6144 4.1218 38.1283 4.25304C38.1283 3.98903 38.1283 3.72198 38.1738 3.41372C38.5688 3.32521 39.0565 3.23518 39.5411 3.19092V1.06364V1.06364ZM39.5411 7.93077V45.0987C36.8947 47.5373 34.3364 50.0629 33.8077 51.5675C33.3672 52.9409 34.2042 54.1373 34.2483 54.9797C34.2923 55.7305 33.8518 56.1303 33.3231 55.9075C31.3831 55.2437 26.1784 53.8718 23.8404 55.3765C22.5172 53.649 20.5772 52.7624 19.0337 52.3641C19.0337 52.3641 18.1495 51.1677 17.9293 50.9022C17.9718 50.9022 17.9718 50.8579 17.9718 50.8579C19.7386 48.4666 19.2965 46.6934 21.5464 46.2081C23.4439 45.7625 24.9403 47.049 26.3075 46.9177C28.3812 46.6949 28.7762 44.3906 27.5426 43.2827C30.1009 38.6329 32.4815 34.2471 35.9224 30.7021L32.8354 27.0244L26.1298 27.1129C25.8214 28.6207 23.9695 29.7713 22.426 29.55C22.426 29.55 21.7637 28.5764 21.5009 28.2208C20.486 28.0423 19.6049 28.7519 19.2509 29.3272C18.3258 28.8846 17.753 28.0423 17.3535 27.5997L16.7367 27.7783L15.6794 26.2263V26.1836C15.5472 25.4297 15.8571 23.7007 16.164 22.9057C16.4739 22.0633 17.3991 21.0897 18.6782 21.0897C20.0895 21.0454 21.8974 20.9997 23.7948 20.9997C26.0417 20.8226 28.0272 20.6884 27.8085 20.5556C27.4986 20.4243 25.4689 17.8103 24.1457 16.0828C21.7196 16.5696 20.486 16.5254 18.7663 15.86L17.709 14.3981L18.7223 13.5572C18.4564 13.3802 17.355 12.5821 16.0759 13.0689C15.7249 12.5836 15.2844 11.9625 15.2844 11.9625C15.2844 11.9625 14.4458 10.4106 15.4591 9.30418L15.0185 8.63884C15.1963 8.24207 15.5472 7.79953 16.1214 7.57673C18.0614 6.86865 21.9429 7.35393 22.9152 8.01928C26.1328 10.4106 30.6752 14.1341 34.1146 17.1022C35.1309 16.2156 35.7477 14.7109 36.1002 13.6915L35.0869 13.6457C34.8225 13.2932 34.3379 12.7164 34.3379 12.7164V12.6721H34.2923C33.8974 12.1411 33.63 11.4757 33.4553 10.7676H36.8506C37.3793 10.7676 38.0857 10.5891 38.6585 10.2808C37.908 10.2808 37.115 10.2366 36.5438 10.2366C35.9255 10.2366 34.3379 10.058 33.5874 9.74978L33.1469 9.04019C33.1013 8.99593 33.1013 8.99594 33.1013 8.95015C33.0572 8.68463 34.9547 8.01927 36.8506 8.28632C38.2164 8.46334 38.8787 8.1963 39.5411 7.93077V7.93077Z" fill="#373833" fill-opacity="0.5"/>
<path fill-rule="evenodd" clip-rule="evenodd" d="M64.5896 14.8849C64.6336 14.3981 64.7673 13.9113 64.9405 13.3802C65.1182 12.7606 65.4691 11.9183 65.6028 10.9889C65.9127 8.10778 64.2356 5.44945 61.4585 5.05268C60.708 4.96417 57.7548 4.52009 55.6811 7.57673C55.2846 8.19629 54.7118 9.65976 54.7559 10.8562C54.7118 10.6776 54.6237 10.5006 54.5797 10.3251V13.6457C54.6678 13.3375 54.7118 13.0262 54.7559 12.8064C54.7559 12.8064 55.0187 13.5145 55.3727 14.5781C56.1657 16.8809 57.0924 18.7427 57.8414 20.6914C58.9443 23.394 59.2952 24.5461 59.6492 26.3621C59.912 27.8241 59.7813 29.1548 59.2071 29.9086C58.6328 30.7037 57.223 31.8543 54.5782 31.6361V45.5916C54.885 46.1669 54.885 46.8765 54.7544 47.229C54.7103 47.3633 54.6222 47.4961 54.5782 47.6273V54.5372C57.1365 53.7421 58.5478 54.2289 61.8535 54.76C62.1634 54.8042 62.3822 54.0519 62.0753 53.5636C61.7654 53.1653 61.3248 52.0116 61.4145 51.0822V41.3813C58.8121 41.6911 57.6211 40.6274 57.1365 39.2113C56.8265 38.1919 55.8573 36.0219 55.1949 34.6927C55.1949 34.6927 59.2086 34.6042 61.3689 31.9901C62.1634 31.0165 62.8698 29.0662 62.5159 27.206C61.9872 24.6362 61.6347 23.7938 60.7521 21.5353C60.0016 19.6751 58.5903 16.2629 58.0176 14.3569C57.2261 11.6131 57.0924 10.3724 57.9735 8.8647C58.5052 7.93382 59.6066 7.09298 60.9298 7.71254C61.7669 8.11084 61.5466 8.37789 61.5026 8.51065C60.4452 10.1496 60.0031 12.2311 60.4878 13.693C61.062 15.7745 63.0461 17.4578 63.8831 17.9888C63.8831 17.9888 65.296 18.9197 65.6028 18.6969C65.688 18.6116 65.7494 18.5053 65.7806 18.3886V18.2559C65.6925 17.3235 64.5455 15.5502 64.5896 14.8849ZM54.5797 10.3251C53.5633 8.06506 52.4179 5.53795 51.1387 3.63347C50.8303 3.23518 49.3309 1.4192 48.8903 1.33069C46.9929 0.799636 44.702 0.268581 42.8926 0.00152588C42.5387 0.0457807 40.9071 0.576836 39.4076 1.10789V2.5271C39.8482 2.48284 40.2462 2.43707 40.5987 2.43707C41.0833 2.43707 41.2155 3.05663 40.7764 3.27943C40.3328 3.48651 39.876 3.66391 39.4091 3.81049V7.04414C39.5428 7.26694 39.7191 7.53095 39.8057 7.798C39.6822 7.87469 39.5488 7.93375 39.4091 7.9735V9.52394H39.5428C39.4988 9.56972 39.4547 9.6567 39.4091 9.70248V42.7501C40.6355 41.5442 41.8855 40.3628 43.1585 39.2067C43.1585 39.2067 44.5698 40.2703 46.0252 41.3325C48.2751 42.9729 51.2739 44.6561 51.2739 44.6561L51.8907 44.6104C53.3461 44.2578 54.1847 44.8774 54.5812 45.587V31.633C54.152 31.5758 53.7253 31.5015 53.302 31.4102C52.2447 29.817 50.3032 26.9802 49.3324 25.4755C50.0389 22.9957 50.3488 22.3746 50.8774 19.936C50.8774 19.936 52.4209 20.7784 52.465 20.5113C52.6868 19.5835 54.01 15.7288 54.5827 13.6442V10.3251H54.5797ZM54.5797 47.6243C54.1832 48.198 53.4767 48.5109 52.6822 48.4666C51.5793 48.3781 50.3898 47.8455 48.9329 48.6894C47.4319 49.4845 48.0943 52.2329 47.1691 53.3835C49.6378 53.3835 51.6234 54.6241 52.5926 55.2452C53.3431 54.9355 53.9598 54.7142 54.5782 54.5356V47.6243H54.5797ZM39.4076 1.10789C37.9082 1.63895 36.4969 2.17306 36.4103 2.3043L35.792 2.96965C34.4688 3.32521 31.7343 3.7235 31.558 3.98903C30.9412 4.69864 31.3362 5.36093 31.558 5.67224C31.6006 5.76075 32.0426 7.30967 32.8372 7.30967H34.9534C35.836 5.80501 38.2166 5.53795 39.4076 7.04567V3.81201C38.9245 3.98903 38.3943 4.16453 37.9082 4.34308C37.7311 3.83169 37.6862 3.2835 37.7775 2.7499C38.2622 2.66139 38.8349 2.57288 39.4076 2.5271V1.10789ZM39.4076 7.97502C38.7468 8.24055 38.1285 8.46334 36.8493 8.28632C34.9534 8.01927 33.0559 8.68462 33.1 8.95015C33.1 9.34845 35.3074 9.48274 35.8801 9.48274C36.8053 9.52699 38.1725 9.6155 39.4061 9.52699V7.97502H39.4076ZM39.4076 9.704V42.7516C36.1004 45.941 32.9678 49.2647 32.6169 50.1498C32.0001 51.5233 32.351 52.3656 32.5728 52.8982C32.8387 53.562 32.661 54.3601 32.2204 54.1831C30.3245 53.562 25.3415 52.3672 22.8698 53.9161C21.6347 52.4999 19.7403 51.3493 17.9735 50.9037C19.7403 48.5124 19.2982 46.6964 21.5482 46.2096C23.4456 45.764 24.942 47.0505 26.3093 46.9192C28.3829 46.6964 28.7779 44.3921 27.5444 43.2842C30.1027 38.6344 32.4832 34.2486 35.9242 30.7037L31.7768 25.6968L25.2063 25.7853C25.2063 25.7853 24.8539 28.2223 21.5026 28.2223L21.5466 26.7619C21.5466 26.7619 19.119 26.5849 18.4566 28.2223C17.3096 27.7798 17.2671 27.4273 16.386 25.9638L15.6796 26.1866C15.5474 25.4328 15.8573 23.7038 16.1642 22.9087C16.4741 22.0664 17.3993 21.0928 18.6784 21.0928C20.0897 21.0485 21.8976 21.0027 23.795 21.0027C26.0419 20.8257 28.0275 20.6914 27.8087 20.5586C27.321 20.3389 22.999 14.5797 22.999 14.5797C21.9857 15.245 18.326 14.8025 17.7092 14.4026L18.9428 13.429C17.4874 11.346 16.1627 11.7886 15.2831 11.9671C15.2831 11.9671 15.0172 11.4361 14.9731 10.7722V10.5052C14.9731 9.97411 15.239 9.35455 15.9864 8.912L15.0172 8.64494C15.1949 8.24817 15.5459 7.80563 16.1201 7.58283C18.0601 6.87475 21.9416 7.36003 22.9139 8.02538C26.1315 10.4167 30.6739 14.1402 34.1133 17.1083C35.1296 16.1774 35.7905 14.6712 36.1429 13.6518C36.3191 13.0765 36.626 12.7225 35.7024 12.6782H34.2895C33.8945 12.1472 33.6271 11.4818 33.4524 10.7738H36.8478C37.5998 10.7677 38.7468 10.4563 39.4076 9.704Z" fill="#373833"/>
</svg>