<svg width="124" height="75" viewBox="0 0 124 75" fill="none" xmlns="http://www.w3.org/2000/svg">
<g clip-path="url(#clip0)">
<path d="M83.8539 68.8133H79.266V69.8694H83.8539V68.8133Z" fill="#373833"/>
<path d="M3.06411 62.433L2.66103 72.973V73.1636C2.66103 74.0437 2.93963 74.2402 4.36817 74.337V74.824C3.32196 74.7389 2.91888 74.7184 2.34094 74.7184C1.76301 74.7184 1.35993 74.7389 0.292969 74.824V74.337C1.72151 74.2314 1.93491 74.0613 1.97936 72.9642L2.40615 62.9904V62.8848C2.40615 61.9343 2.10977 61.7437 0.699007 61.6586V61.1511C1.48737 61.2156 1.80746 61.2362 2.3854 61.2362C3.03413 61.2429 3.6826 61.2076 4.32668 61.1306L8.147 71.3977L12.0296 61.1306C12.6812 61.2005 13.3361 61.2358 13.9916 61.2362C14.5043 61.2362 14.8244 61.2156 15.6157 61.1511V61.6586C14.205 61.7437 13.9086 61.9343 13.9086 62.8613V62.9904L14.1427 72.9642C14.1427 74.0613 14.3354 74.2314 15.8054 74.337V74.824C14.9559 74.7182 14.1009 74.6614 13.2447 74.6539C12.3886 74.6628 11.5336 74.7196 10.684 74.824V74.337C12.071 74.252 12.3911 74.0202 12.3911 73.0698V72.9642L12.2015 62.4448L8.8257 71.515L8.29222 72.9319L8.01363 73.7122L7.80023 74.3869H7.48014L7.26675 73.7327L6.97037 72.9319L6.69178 72.1633L6.43689 71.4446L3.06411 62.433Z" fill="#373833"/>
<path d="M20.6898 65.475H20.7757C22.0976 65.475 22.7822 66.6161 22.9097 68.9952H20.6898V69.7344H24.5427C24.5012 66.6103 23.2001 64.9411 20.7876 64.9411H20.6809V65.4691L20.6898 65.475ZM20.6898 74.9795V74.2813C20.8376 74.3074 20.9872 74.3221 21.1373 74.3253C22.5896 74.3253 23.5084 73.3954 23.7425 71.6646H24.5753C24.2967 73.7533 22.9956 75 20.9891 75C20.8824 75 20.7757 74.9795 20.6898 74.9795ZM18.4699 69.001C18.6833 66.7217 19.4302 65.5161 20.6898 65.4809V64.9529C18.301 64.9939 16.7865 66.9594 16.7865 70.0424C16.7865 73.0639 18.215 74.8592 20.6898 74.9853V74.2872C19.1546 74.076 18.4492 72.6415 18.4284 69.7462H20.6898V69.0069L18.4699 69.001Z" fill="#373833"/>
<path d="M25.7786 65.6862V65.3283C26.695 65.2618 27.6023 65.1056 28.4875 64.8619C28.5942 65.6012 28.6387 65.9385 28.6802 66.5516V66.7628C29.1277 65.5894 30.002 64.947 31.069 64.947C32.136 64.947 32.8621 65.6012 32.8621 66.5956C32.875 66.7186 32.8616 66.8429 32.8227 66.9604C32.7838 67.0779 32.7204 67.1859 32.6365 67.2776C32.5526 67.3692 32.4502 67.4422 32.3358 67.492C32.2215 67.5418 32.0979 67.5672 31.9729 67.5666C31.8717 67.5762 31.7695 67.5657 31.6724 67.5356C31.5753 67.5055 31.4853 67.4565 31.4077 67.3914C31.3301 67.3264 31.2664 67.2466 31.2204 67.1567C31.1745 67.0669 31.1472 66.9689 31.1401 66.8684C31.1478 66.7967 31.1627 66.726 31.1846 66.6572L31.2261 66.4665V66.2788C31.2261 66.003 30.9712 65.7918 30.6066 65.7918C29.5397 65.7918 28.858 67.0796 28.858 69.0861V73.3367C28.858 74.2168 29.0714 74.3722 30.3073 74.4368V74.8386C29.5566 74.7537 28.8016 74.7106 28.0459 74.7096C27.2765 74.7099 26.5077 74.753 25.7431 74.8386V74.4368C26.9997 74.3722 27.225 74.205 27.225 73.3367V66.6777C27.2042 65.7977 27.0975 65.7068 26.0395 65.6862H25.7786Z" fill="#373833"/>
<path d="M40.6864 64.7563V68.1151H40.2359C39.8743 66.3551 39.1067 65.4956 37.8649 65.4956C36.3296 65.4956 35.4109 67.1442 35.4109 70.0366C35.4109 72.929 36.2229 74.3253 37.8026 74.3253C39.0593 74.3253 39.8298 73.4159 40.064 71.6412H40.9176C40.639 73.8178 39.4861 75 37.6307 75C35.2597 75 33.6415 72.9935 33.6415 70.0366C33.6415 67.018 35.2834 64.947 37.6959 64.947C38.0856 64.9267 38.475 64.9918 38.8362 65.1379C39.1974 65.284 39.5216 65.5073 39.7854 65.7918L40.3396 64.7563H40.6864Z" fill="#373833"/>
<path d="M46.2761 65.475H46.362C47.6839 65.475 48.3685 66.6161 48.496 68.9952H46.2761V69.7344H50.129C50.0875 66.6103 48.7864 64.9411 46.3739 64.9411H46.2672V65.4691L46.2761 65.475ZM46.2761 74.9795V74.2813C46.4239 74.3076 46.5735 74.3223 46.7236 74.3253C48.1759 74.3253 49.0946 73.3954 49.3288 71.6646H50.1586C49.883 73.7533 48.5819 75 46.5547 75C46.4687 75 46.362 74.9795 46.2761 74.9795ZM44.0562 69.001C44.2696 66.7217 45.0165 65.5161 46.2761 65.4809V64.9529C43.8636 64.9939 42.3698 66.9594 42.3698 70.0424C42.3698 73.0639 43.8013 74.8592 46.2761 74.9853V74.2872C44.7171 74.076 44.0355 72.6415 44.0147 69.7462H46.2761V69.0069L44.0562 69.001Z" fill="#373833"/>
<path d="M55.8135 74.4514H55.7927V75C56.8805 74.9589 57.6273 74.4309 58.1638 73.3543C58.2024 73.9051 58.3018 74.4501 58.4602 74.9795C59.233 74.7127 60.0365 74.5422 60.8519 74.472L61.172 74.4514V74.0936C59.785 74.0496 59.6901 73.9439 59.6901 72.7207V60.9868C58.6672 61.2514 57.6246 61.4348 56.5722 61.5354V61.8962C57.8763 61.8962 58.0541 62.0223 58.0541 63.0696V66.6191C57.3517 65.4985 56.7738 65.0995 55.8135 65.0555V65.6041C57.2954 65.6481 58.0749 67.1882 58.0749 70.1451C58.0541 72.973 57.2865 74.4514 55.8135 74.4514ZM55.7927 74.4514C54.3435 74.4309 53.5521 72.9084 53.5521 70.016C53.5521 67.0826 54.2783 65.6158 55.7513 65.6158H55.7927V65.0673C55.7305 65.0673 55.6446 65.0467 55.5586 65.0467C53.3832 65.0467 51.8242 67.1178 51.8242 70.0336C51.8242 72.9495 53.3832 74.9971 55.6238 74.9971H55.7927V74.4514Z" fill="#373833"/>
<path d="M65.8223 65.475H65.9082C67.2301 65.475 67.9147 66.6161 68.0421 68.9952H65.8223V69.7344H69.6752C69.6337 66.6103 68.3326 64.9411 65.9201 64.9411H65.8134V65.4691L65.8223 65.475ZM65.8223 74.9795V74.2813C65.9701 74.3074 66.1197 74.3221 66.2698 74.3253C67.722 74.3253 68.6408 73.3954 68.875 71.6646H69.7078C69.4292 73.7533 68.1281 75 66.1009 75C66.0149 75 65.9082 74.9795 65.8223 74.9795ZM63.6024 69.001C63.795 66.7217 64.5626 65.5161 65.8223 65.4809V64.9529C63.4127 64.9939 61.9397 66.9594 61.9397 70.0424C61.9397 73.0639 63.3475 74.8592 65.8223 74.9853V74.2872C64.2663 74.076 63.5816 72.6415 63.5609 69.7462H65.8223V69.0069L63.6024 69.001Z" fill="#373833"/>
<path d="M71.4209 75V71.6206L71.8684 71.6001C72.2507 73.4365 73.1043 74.3458 74.5358 74.3458C75.7509 74.3458 76.649 73.5421 76.649 72.5095C76.649 71.8318 76.2637 71.3361 75.2619 70.9019L74.4706 70.5646L73.5311 70.1422C72.0492 69.4469 71.5691 68.8749 71.5691 67.6927C71.5691 66.0881 72.8287 65.0115 74.6425 65.0115C75.3855 64.9922 76.1144 65.2148 76.7171 65.6452L77.0609 64.8209H77.4433V67.9685H76.975C76.7823 66.3404 76.1007 65.5601 74.8203 65.5601C73.7296 65.5601 72.8761 66.2993 72.8761 67.2498C72.8761 68.0741 73.1962 68.3264 75.0545 69.1507L75.9436 69.5085C77.5025 70.1862 78.0568 70.8198 78.0568 72.0225C78.0568 73.7327 76.6697 74.956 74.7492 74.956C73.8517 74.9749 72.9784 74.6669 72.2952 74.0906L71.7824 74.9971L71.4209 75Z" fill="#373833"/>
<path d="M89.9356 68.0301C90.7269 68.0741 91.216 68.2618 91.622 68.6637C92.0903 69.1301 92.3689 69.9955 92.3689 70.9665C92.3689 72.8468 91.4946 73.9439 89.9356 74.1141V74.7477C90.8316 74.7552 91.7118 74.5133 92.4756 74.0495C93.0022 73.7019 93.4337 73.2307 93.7315 72.6779C94.0294 72.1251 94.1844 71.5079 94.1827 70.8814C94.1939 70.366 94.0862 69.8548 93.868 69.3866C93.6497 68.9185 93.3266 68.5057 92.9231 68.1797C92.4428 67.8412 91.8863 67.6237 91.3019 67.546C92.7838 66.9946 93.5425 65.962 93.5425 64.5246C93.5537 64.0317 93.4498 63.5429 93.2391 63.0962C93.0283 62.6495 92.7164 62.2569 92.3274 61.949C91.6263 61.4665 90.7894 61.215 89.9356 61.2303V61.8962C91.1745 62.1074 91.7139 62.9522 91.7139 64.5568C91.7614 65.3277 91.5185 66.0885 91.0322 66.6924C90.7489 67.0226 90.3538 67.2395 89.9208 67.3026L89.9356 68.0301ZM89.4466 68.0095C89.6099 68.0057 89.7732 68.0125 89.9356 68.0301V67.3114C89.589 67.3589 89.2393 67.3805 88.8894 67.3759H87.5023V61.8639H89.2539C89.482 61.8565 89.7102 61.8702 89.9356 61.905V61.2303H84.0881V61.7378C85.57 61.8199 85.7745 61.9695 85.7745 63.0666V72.9084C85.7745 74.0085 85.6055 74.1551 84.0881 74.2813V74.7682H89.2747C89.5088 74.7682 89.7222 74.7682 89.9356 74.7477V74.1141C89.794 74.1312 89.6514 74.1381 89.5088 74.1346H88.762C87.6742 74.1346 87.5023 73.9645 87.5023 73.0786V68.0095H89.4466Z" fill="#373833"/>
<path d="M99.7517 65.475H99.8376C101.159 65.475 101.844 66.6161 101.972 68.9952H99.7517V69.7344H103.605C103.563 66.6103 102.262 64.9411 99.8495 64.9411H99.7428V65.4691L99.7517 65.475ZM99.7517 74.9795V74.2813C99.8995 74.3074 100.049 74.3221 100.199 74.3253C101.651 74.3253 102.57 73.3954 102.804 71.6646H103.637C103.359 73.7533 102.058 75 100.03 75C99.9443 75 99.8376 74.9795 99.7517 74.9795ZM97.5318 69.001C97.7245 66.7217 98.4921 65.5161 99.7517 65.4809V64.9529C97.3421 64.9939 95.8484 66.9594 95.8484 70.0424C95.8484 73.0639 97.2769 74.8592 99.7517 74.9853V74.2872C98.1957 74.076 97.5111 72.6415 97.4903 69.7462H99.7517V69.0069L97.5318 69.001Z" fill="#373833"/>
<path d="M104.68 65.7713V65.434C105.603 65.3211 106.512 65.1157 107.392 64.8209C107.514 65.4054 107.585 65.9991 107.606 66.5956C108.353 65.4956 109.185 65.0115 110.38 65.0115C111.574 65.0115 112.662 65.6217 113.089 66.6161C113.303 67.2044 113.403 67.8274 113.385 68.4525V73.3367C113.385 74.2168 113.598 74.3722 114.837 74.4368V74.8386C114.101 74.7529 113.359 74.7098 112.617 74.7096C111.869 74.7081 111.12 74.7512 110.377 74.8386V74.4368C111.485 74.3928 111.743 74.1816 111.743 73.3807V68.3938C111.743 66.6337 111.21 65.9209 109.906 65.9209C108.498 65.9209 107.772 66.7863 107.772 68.4554V73.3778C107.772 74.1786 108.03 74.3898 109.096 74.4338V74.8357C107.629 74.6636 106.145 74.6636 104.677 74.8357V74.4338C105.916 74.3693 106.13 74.2021 106.13 73.3338V66.7423C106.109 65.918 105.982 65.7918 104.944 65.7918C104.894 65.7918 104.787 65.7713 104.68 65.7713Z" fill="#373833"/>
<path d="M115.649 74.7683L121.212 65.7097H118.696C117.351 65.7097 117.031 66.003 116.284 67.8218H115.878L116.349 65.1817H123.287V65.3518L117.825 74.2432H120.214C121.601 74.2432 122.176 73.6946 122.795 71.8553H123.222L122.688 74.7712L115.649 74.7683Z" fill="#373833"/>
<path fill-rule="evenodd" clip-rule="evenodd" d="M70.6889 2.30277C74.0047 4.02515 76.7815 6.61223 78.7188 9.78407C80.6561 12.9559 81.6801 16.5917 81.6801 20.2981C81.6801 24.0045 80.6561 27.6403 78.7188 30.8122C76.7815 33.984 73.9928 36.5711 70.677 38.2935V35.9673C73.1779 34.4797 75.296 32.4261 76.8328 29.9712L70.6889 27.4983V23.7406L77.4315 28.9563C78.8837 26.2968 79.6397 23.3197 79.6306 20.2967C79.6289 17.1438 78.8049 14.0447 77.2384 11.2994C75.6719 8.55414 73.416 6.25553 70.6889 4.62608V2.30277ZM61.1929 -4.7728e-06C64.4959 -0.0027741 67.7622 0.787403 70.6889 2.30277V4.62608C67.9806 3.02013 64.8909 2.1255 61.7353 2.02702L64.0826 18.651L70.6889 23.7406V27.4983L61.1366 23.6848L51.6525 27.5306L51.6644 23.7816L58.2884 18.651L60.615 2.02702C57.4518 2.11877 54.3656 3.01376 51.6525 4.62608V2.30277C54.5954 0.776722 57.8707 -0.0138329 61.1929 -4.7728e-06ZM70.677 38.2935C67.7451 39.8161 64.4842 40.6133 61.1732 40.6168C57.8623 40.6204 54.5996 39.8303 51.6644 38.314V35.9673C54.5336 37.6792 57.8204 38.5838 61.1707 38.5838C64.521 38.5838 67.8078 37.6792 70.677 35.9673V38.2935ZM51.6644 38.314C48.3425 36.5942 45.5598 34.0069 43.6181 30.8328C41.6764 27.6587 40.6499 24.019 40.6499 20.3084C40.6499 16.5978 41.6764 12.9581 43.6181 9.784C45.5598 6.6099 48.3306 4.02261 51.6525 2.30277V4.62608C47.5776 7.0512 44.615 10.9368 43.3588 15.4758C42.1026 20.0148 42.6613 24.8583 44.9188 29.0003L51.6644 23.7816L51.6525 27.5306L45.5382 30.0123C47.0761 32.4494 49.1755 34.4911 51.6644 35.9702V38.314Z" fill="#373833"/>
</g>
<defs>
<clipPath id="clip0">
<rect x="0.290039" width="123" height="75" fill="white"/>
</clipPath>
</defs>
</svg>