<svg width="105" height="102" viewBox="0 0 105 102" fill="none" xmlns="http://www.w3.org/2000/svg">
<path fill-rule="evenodd" clip-rule="evenodd" d="M4.87598 60.1914H8.55018V64.1495H15.1055V60.1914H18.7311V71.2984H15.1055V66.626H8.50163V71.2561H4.87598V60.1914Z" fill="#373833"/>
<path fill-rule="evenodd" clip-rule="evenodd" d="M19.1411 60.1914H22.7182L26.4787 64.467L30.1961 60.1914H33.7246L28.27 66.9805V71.2984H24.6443V66.6683L19.1411 60.1914Z" fill="#373833"/>
<path fill-rule="evenodd" clip-rule="evenodd" d="M34.1831 60.1914H37.8088V68.7902H43.6303C44.5475 68.7902 45.1464 67.8906 45.1464 66.9435V60.1914H48.7666V69.0548C48.7666 70.4465 47.148 71.2561 46.247 71.2561H34.1831V60.1914Z" fill="#373833"/>
<path fill-rule="evenodd" clip-rule="evenodd" d="M49.5493 60.1914H61.6132C61.9624 60.1694 62.3123 60.2217 62.6388 60.345C62.9654 60.4682 63.2608 60.6593 63.5049 60.9052C63.7489 61.1511 63.9358 61.4459 64.0525 61.7694C64.1693 62.0928 64.2133 62.4373 64.1814 62.779V71.2772H60.5557V64.557C60.5557 63.6151 60.2374 63.0542 58.9965 63.0542H53.5365V71.3301H49.5493V60.2179V60.1914Z" fill="#373833"/>
<path fill-rule="evenodd" clip-rule="evenodd" d="M65.2817 60.1914H75.8242C77.9337 60.1914 79.5631 61.853 79.5631 63.1388V68.2611C79.5361 69.1553 78.2521 71.3143 76.6497 71.3143H65.2817V60.202V60.1914ZM68.9721 68.8273H74.5401C74.7211 68.8343 74.9018 68.806 75.0716 68.7438C75.2413 68.6817 75.3968 68.5871 75.5289 68.4654C75.661 68.3438 75.767 68.1975 75.8409 68.0352C75.9147 67.873 75.9549 67.6979 75.9591 67.5202V64.2818C75.9591 63.4987 75.3008 63.0277 74.4538 63.0277H68.9721V68.8484V68.8273Z" fill="#373833"/>
<path fill-rule="evenodd" clip-rule="evenodd" d="M84.0362 60.1438H95.3664V71.2984H91.3091V68.4251H84.3599V71.2984H80.2757V64.0596C80.2552 63.0513 80.6398 62.0756 81.3463 61.343C82.0529 60.6105 83.0249 60.1797 84.0524 60.1438H84.0362ZM84.3114 64.1072V65.901H91.2821V63.07H85.412C85.2674 63.0589 85.1221 63.0786 84.986 63.1279C84.8499 63.1771 84.7264 63.2547 84.6238 63.3553C84.5212 63.4559 84.4421 63.5771 84.3919 63.7105C84.3417 63.844 84.3216 63.9865 84.333 64.1283L84.3114 64.1072Z" fill="#373833"/>
<path fill-rule="evenodd" clip-rule="evenodd" d="M96.2656 60.1703H99.8859V71.3143H96.2656V60.1703Z" fill="#373833"/>
<path fill-rule="evenodd" clip-rule="evenodd" d="M52.5114 28.0452C37.4746 28.0452 25.2866 33.9294 25.2866 41.2106C25.2866 48.4918 37.4746 54.3919 52.5114 54.3919C67.5481 54.3919 79.7307 48.4865 79.7307 41.2106C79.7307 33.9347 67.5427 28.0452 52.5114 28.0452ZM49.927 30.9609C53.0347 29.9026 62.2661 30.9609 65.854 32.6489C66.9978 33.7072 60.7338 37.1996 53.2775 38.7024C42.611 40.8191 47.6772 32.7441 49.927 30.9609ZM31.6099 46.5657C29.2684 44.9253 24.6769 40.2158 32.2843 35.3582C35.049 33.6757 38.1167 32.5279 41.3215 31.9769C42.6595 31.6964 43.6145 32.0245 42.4005 33.0087C39.8701 35.591 34.6097 44.121 34.1295 45.9995C33.7465 47.2695 32.9803 47.5869 31.5937 46.5657H31.6099ZM53.5149 52.0054C49.0206 52.4711 39.0231 51.0212 38.8342 49.7565C39.0231 46.7033 54.7072 41.6392 57.529 44.4649C58.7268 46.6662 56.4499 51.8731 53.5149 52.016V52.0054ZM76.364 43.1579C75.2202 45.7349 71.3464 48.6453 63.2157 50.6137C61.9693 50.8942 61.5431 50.1428 62.3524 49.439C63.6958 48.6453 70.1486 38.0463 70.9849 35.9349C71.4597 34.8766 72.3715 35.2788 72.9434 35.6968C75.5278 37.3425 77.4862 40.0147 76.3856 43.1579H76.364Z" fill="#373833"/>
</svg>