<svg width="71" height="61" viewBox="0 0 71 61" fill="none" xmlns="http://www.w3.org/2000/svg">
<path fill-rule="evenodd" clip-rule="evenodd" d="M14.3903 22.5333C13.6415 22.5614 12.9156 22.5892 12.2194 22.6165C15.7283 13.126 24.8981 6.56667 35.2236 6.56667C45.6484 6.56667 54.9411 12.604 58.7652 22.6324C58.0386 22.6037 57.2769 22.5742 56.4885 22.5445C56.4776 22.5406 56.4671 22.5369 56.457 22.5333C56.457 22.5333 56.4236 22.5 56.4236 22.4667C53.2236 14.2333 45.0236 8.36666 35.4236 8.36666C25.7903 8.36666 17.5903 14.2666 14.3903 22.5333ZM59.1807 22.6488C55.9255 12.9046 46.4905 5.86667 35.3903 5.86667C24.2848 5.86667 14.8677 12.9016 11.5904 22.6412C9.78531 22.7128 8.20739 22.7792 6.99023 22.8333C10.3236 10.6333 21.7902 1.63333 35.3902 1.63333C48.9569 1.63333 60.3902 10.5667 63.7569 22.7667C63.7569 22.8132 63.7569 22.8272 63.7682 22.8541C63.7102 22.8473 63.6509 22.8404 63.5902 22.8333C62.4161 22.7812 60.9063 22.7175 59.1807 22.6488ZM59.0971 38.0263C60.8456 37.9297 62.3521 37.8394 63.5236 37.7667C63.5871 37.7605 63.6492 37.7545 63.7099 37.7486C60.2931 49.8238 48.9055 58.7 35.3903 58.7C21.8696 58.7 10.5115 49.8499 7.06659 37.7673C8.29253 37.8439 9.89214 37.9397 11.7558 38.042C15.1374 47.5883 24.4402 54.4667 35.4237 54.4667C46.4132 54.4667 55.7202 47.5807 59.0971 38.0263ZM56.2892 38.1754C57.0316 38.1376 57.7464 38.0999 58.4283 38.0629C54.8186 47.3607 45.7642 53.7667 35.5904 53.7667C25.2698 53.7667 16.1039 47.8689 12.1987 38.0662C12.9077 38.1046 13.6521 38.1437 14.4263 38.183C14.4478 38.1888 14.4691 38.1945 14.4903 38.2C17.7903 46.2667 25.8903 52 35.3903 52C44.8236 52 52.8903 46.3333 56.2236 38.3333C56.2236 38.3167 56.2403 38.2833 56.2569 38.25C56.2711 38.2217 56.2852 38.1935 56.2892 38.1754Z" fill="#373833"/>
<path fill-rule="evenodd" clip-rule="evenodd" d="M61.985 23.7167C63.7834 23.7669 64.6517 23.7911 65.7899 23.9333C67.3899 24.1333 68.6232 24.8 68.6232 26V34.5667C68.6232 35.7333 67.1232 36.7 65.7899 36.7C65.7899 36.7 48.8899 37.7667 35.2899 37.7667C21.6899 37.7333 4.78988 36.7 4.78988 36.7C3.45654 36.7 1.95654 35.7333 1.95654 34.5667V26C1.95654 24.8 3.18988 24.1333 4.78988 23.9333C5.92807 23.7911 6.79637 23.7669 8.59475 23.7167C9.32441 23.6964 10.2072 23.6718 11.3232 23.6333C11.4899 23.6 11.6899 23.6 11.8565 23.6C18.8232 23.3667 29.3565 23.0333 35.2899 23.0333C41.2232 23.0333 51.7232 23.3667 58.7232 23.6C58.8899 23.6333 59.0899 23.6333 59.2565 23.6333C60.3726 23.6718 61.2553 23.6964 61.985 23.7167ZM48.256 26.6687C48.4411 26.7863 48.5283 27.058 48.8233 27.7C48.9566 28.0111 49.452 29.0857 49.9905 30.254C50.6639 31.7148 51.4048 33.3222 51.59 33.7667C51.6778 33.9715 51.6371 33.9708 51.4454 33.9676C51.4188 33.9672 51.3892 33.9667 51.3566 33.9667H49.5233C49.4233 33.9667 49.3233 33.9333 49.29 33.8333C49.29 33.8029 49.095 33.3546 48.8069 32.6922C48.7798 32.6299 48.7519 32.5658 48.7233 32.5H44.4233C44.09 33.2667 43.8233 33.8333 43.8233 33.8333C43.79 33.9 43.7233 33.9667 43.59 33.9667H41.8233C41.5566 33.9667 41.4566 33.9667 41.6233 33.6333L41.6566 33.5667C42.49 31.7333 44.4566 27.3333 44.4566 27.3333C44.6472 26.9363 44.7016 26.7436 44.8289 26.6506C44.9687 26.5484 45.1966 26.5667 45.79 26.5667C46.09 26.5333 46.1566 26.5333 46.5233 26.5333C46.89 26.5333 47.1566 26.5333 47.2566 26.5667C47.832 26.5827 48.0855 26.5603 48.256 26.6687ZM46.19 28.3333C46.19 28.3667 45.6566 29.6333 45.09 30.9333H48.0566C47.8153 30.3206 47.5532 29.7079 47.3454 29.222C47.1801 28.8355 47.049 28.5291 46.99 28.3667C46.9566 28.2667 46.89 28.2333 46.8233 28.2333C46.79 28.2 46.69 28.2 46.6233 28.2C46.5233 28.2 46.4233 28.2 46.39 28.2333C46.29 28.2333 46.2233 28.2667 46.19 28.3333ZM21.7233 26.6667C21.7233 26.5333 21.69 26.4667 21.5233 26.4667H19.7233C19.59 26.4667 19.5566 26.5333 19.5566 26.6667V33.6667C19.5566 33.8667 19.59 33.9 19.79 33.9H21.49C21.69 33.9 21.7233 33.8333 21.7233 33.6667V26.6667ZM18.1233 26.7667C18.1233 26.6 18.09 26.5333 17.89 26.5333H16.4233C16.2233 26.5333 16.19 26.6 16.19 26.7667V32.3333C16.19 32.3333 13.2233 27.7667 12.8566 27.1667C12.412 26.5315 12.2397 26.5318 11.1291 26.5332C11.074 26.5333 11.0165 26.5333 10.9566 26.5333H9.25665C9.05665 26.5333 9.02332 26.6 9.02332 26.7667V33.7333C9.02332 33.9333 9.05665 33.9667 9.25665 33.9667H10.7233C10.9233 33.9667 10.9566 33.9333 10.9566 33.7333V28.2667C10.9566 28.2667 13.4233 32.0333 14.2233 33.3C14.6233 33.9667 14.7233 33.9667 15.89 33.9667H17.89C18.09 33.9667 18.1233 33.9333 18.1233 33.7333V26.7667ZM61.79 26.7667C61.79 26.6 61.7566 26.5333 61.5566 26.5333H60.09C59.89 26.5333 59.8566 26.6 59.8566 26.7667V32.3333C59.8566 32.3333 56.9233 27.7667 56.5233 27.1667C56.0787 26.5315 55.9064 26.5318 54.7958 26.5332C54.7406 26.5333 54.6832 26.5333 54.6233 26.5333H52.9233C52.7233 26.5333 52.69 26.6 52.69 26.7667V33.7333C52.69 33.9333 52.7233 33.9667 52.9233 33.9667H54.39C54.59 33.9667 54.6233 33.9333 54.6233 33.7333V28.2667C54.6233 28.2667 57.0566 32.0333 57.89 33.3C58.29 33.9667 58.39 33.9667 59.5566 33.9667H61.5566C61.7566 33.9667 61.79 33.9333 61.79 33.7333V26.7667ZM31.5567 30.9667C31.29 29.7333 30.3233 29.5 29.0233 29.3667C28.8149 29.3477 28.5095 29.3234 28.1653 29.296C27.2986 29.2269 26.1861 29.1382 25.7566 29.0667C25.5233 29.0333 25.4233 28.9 25.4233 28.7333V28.5667V28.4333C25.4566 28.2 25.5566 28.1 25.79 28.1H31.0233C31.2233 28.1333 31.29 28.0667 31.29 27.9V26.7C31.29 26.5333 31.2233 26.5 31.0233 26.5H25.69C24.29 26.5 23.5233 27 23.29 28.0333C23.2566 28.2667 23.2566 28.5666 23.2566 28.7666V28.7667V28.7667C23.2566 29 23.2566 29.2667 23.29 29.4667C23.3566 30.0667 23.7566 30.7333 25.3566 30.9C26.59 31.0333 28.4233 31.2 29.0566 31.2333C29.3416 31.265 29.386 31.447 29.4183 31.5794C29.42 31.5864 29.4216 31.5933 29.4233 31.6V31.8V32.1C29.39 32.2667 29.3233 32.3333 29.09 32.3333H23.5233C23.3233 32.3333 23.29 32.3667 23.29 32.5667V33.7333C23.29 33.9333 23.3233 33.9667 23.5233 33.9667H29.0233C30.4233 33.9667 31.29 33.7333 31.5233 32.5667C31.59 32.3 31.59 32 31.59 31.7667V31.7667C31.59 31.5258 31.5756 31.2993 31.5657 31.1439C31.5606 31.0628 31.5567 31.001 31.5567 30.9667ZM40.99 30.9667C40.7233 29.7333 39.7566 29.5 38.4566 29.3667C38.2417 29.3462 37.9104 29.3194 37.5372 29.2893C36.695 29.2213 35.6391 29.136 35.2233 29.0667C34.9566 29.0333 34.89 28.9 34.89 28.7333V28.5667V28.4333C34.9233 28.2 35.0233 28.1 35.2566 28.1H40.49C40.69 28.1333 40.7566 28.0667 40.7566 27.9V26.7C40.7566 26.5333 40.69 26.5 40.49 26.5H35.1566C33.7566 26.5 32.99 27 32.7566 28.0333C32.7233 28.2666 32.7233 28.5666 32.7233 28.7666V28.7667V28.7668C32.7233 29.0001 32.7233 29.2667 32.7566 29.4667C32.8566 30.0667 33.2233 30.7333 34.8233 30.9C36.0566 31.0333 37.89 31.2 38.5233 31.2333C38.79 31.2667 38.8566 31.4667 38.89 31.6V31.8V32.1C38.8566 32.2667 38.79 32.3333 38.5566 32.3333H32.99C32.79 32.3333 32.7566 32.3667 32.7566 32.5667V33.7333C32.7566 33.9333 32.79 33.9667 32.99 33.9667H38.4566C39.8566 33.9667 40.7233 33.7333 40.9566 32.5667C41.0233 32.3 41.0233 32 41.0233 31.7667C41.0233 31.5258 41.0089 31.2993 40.9991 31.1439C40.9939 31.0628 40.99 31.001 40.99 30.9667Z" fill="#373833"/>
</svg>