<svg width="99" height="58" viewBox="0 0 99 58" fill="none" xmlns="http://www.w3.org/2000/svg">
<g clip-path="url(#clip0)">
<path d="M83.2695 45.0608V54.3707C83.3612 56.5957 84.6609 57.8332 86.8859 57.9216C89.4264 58.024 92.0257 58.0326 94.7886 57.9216C96.902 57.834 98.1367 56.5003 98.2498 54.3652V45.0608H94.9131V53.6243C94.8963 54.4133 94.4211 54.7369 93.8045 54.7958C91.7443 54.9508 89.6757 54.9508 87.6155 54.7958C87.0555 54.7454 86.6138 54.2 86.5902 53.5972V45.0631L83.2695 45.0608Z" fill="#373833"/>
<path d="M4.10768 45.0577C2.38165 45.1585 0.542541 46.0841 0.291928 48.2494C0.239574 48.6218 0.236234 48.9995 0.281995 49.3728C0.555531 51.753 2.26628 52.3295 3.63396 52.4458C5.04671 52.5715 10.8162 52.885 11.5184 52.9424C12.4643 53.02 12.598 53.4001 12.598 53.9129C12.598 54.4878 12.3359 54.8253 11.5184 54.8734C9.74037 54.982 6.39911 54.951 4.72581 54.8936C4.13442 54.875 3.70883 54.7167 3.6882 53.9975L3.6798 53.3768H0.337008C0.337008 53.3768 0.331659 53.674 0.332423 53.7531C0.347705 56.4243 1.24472 57.6609 3.75086 57.8603C6.17142 58.0489 9.82824 58.0217 12.5376 57.8471C14.9062 57.692 15.7788 56.0286 15.8659 54.1139C15.8728 54.0115 15.8659 53.8206 15.8659 53.6616C15.7895 51.3962 14.4906 50.2906 12.7111 50.1191C11.5581 50.0129 5.39284 49.7305 4.52868 49.6529C3.86776 49.5931 3.59957 49.2533 3.59957 48.6947C3.59957 48.2424 3.87998 47.8879 4.47137 47.8413C6.44648 47.7071 9.86415 47.7358 11.2135 47.8165C11.8782 47.8607 12.1418 48.1928 12.177 48.5838V49.1781H15.5205V48.6505C15.4586 46.0988 14.2453 45.1259 11.9378 45.0305C9.42787 44.9312 6.70474 44.9025 4.10768 45.0577Z" fill="#373833"/>
<path d="M33.8725 57.9643H44.9477C47.5455 57.8945 48.7031 56.5042 48.7031 54.0076C48.7031 52.2527 47.8763 51.3038 47.2513 51.1122C47.7701 50.8795 48.3699 50.1036 48.3699 48.5962C48.3699 46.3316 46.9549 45.1446 44.8552 45.0608C42.7013 45.0608 33.8672 45.0608 33.8672 45.0608V57.9643H33.8725ZM44.014 47.8933C44.6252 47.9383 45.1517 48.1967 45.1517 48.8895C45.1517 49.5986 44.6764 49.964 43.9544 50.0067H37.2115V47.8933H44.014ZM44.014 52.6848C44.5771 52.7112 45.3435 52.9532 45.3435 53.8858C45.3435 54.8548 44.71 55.0914 43.9391 55.1217H37.2153V52.6848H44.014Z" fill="#373833"/>
<path d="M17.1196 45.0608V54.3707C17.2113 56.5957 18.5102 57.8332 20.7375 57.9216C23.278 58.024 25.8781 58.0326 28.6433 57.9216C30.7521 57.834 31.983 56.5003 32.1015 54.3652V45.0608H28.7678V53.6243C28.7464 54.4133 28.2697 54.7369 27.6531 54.7958C25.5929 54.951 23.5243 54.951 21.4641 54.7958C20.901 54.7454 20.4563 54.2 20.4357 53.5972V45.0631L17.1196 45.0608Z" fill="#373833"/>
<path d="M66.9673 45.0577V57.9643L70.2902 57.9596V53.3396H77.1913C77.9791 53.3551 78.3848 53.8827 78.4306 54.5809C78.5155 55.8998 78.4818 57.9519 78.4818 57.9519L81.8545 57.9612C81.8545 57.9612 81.8422 56.0946 81.7987 54.7027C81.7559 53.2186 81.0124 52.0649 80.3469 51.8485C80.9001 51.5381 81.6688 50.7282 81.6688 48.9438C81.6688 46.2873 80.2935 45.1577 78.1006 45.0515L66.9673 45.0577ZM77.1913 47.8933C77.9768 47.9569 78.3924 48.3115 78.3924 49.1269C78.3924 49.9027 77.986 50.3356 77.1913 50.3752H70.2902V47.8925L77.1913 47.8933Z" fill="#373833"/>
<path d="M53.5208 55.6702H61.0851L62.2449 57.9597H66.1417L59.2177 45.0577H55.483L48.5498 57.9597H52.3403L53.5208 55.6702ZM59.6983 52.9377H54.9305L57.3358 48.2742L59.6983 52.9377Z" fill="#373833"/>
<path d="M12.999 19.9387C12.999 8.922 29.823 0 49.5978 0C69.3727 0 85.891 8.922 85.891 19.9387C85.891 30.9555 69.3749 39.8775 49.5978 39.8775C29.5525 39.8775 12.999 30.9493 12.999 19.9387V19.9387ZM49.6162 37.768C67.927 37.768 83.2168 29.7832 83.2168 19.938C83.2168 10.0151 67.7635 2.10947 49.6162 2.10947C31.3129 2.10947 15.6763 10.0151 15.6763 19.938C15.6763 29.7832 30.6856 37.768 49.6162 37.768V37.768ZM59.083 30.7227C59.6255 30.8065 61.5326 31.092 62.3142 31.2371C62.9698 31.3783 63.2945 31.587 63.6131 32.3776C63.7193 32.6367 63.879 33.1976 63.9646 33.5219C64.08 33.9331 64.2282 34.5576 64.2458 34.6127C64.2603 34.6598 64.2899 34.7007 64.3299 34.7288C64.3699 34.7569 64.418 34.7707 64.4666 34.7679C64.5148 34.7675 64.5616 34.7516 64.6004 34.7227C64.6392 34.6937 64.668 34.6531 64.6828 34.6065C64.721 34.5157 64.8891 33.8796 64.9976 33.5002C65.0976 33.1185 65.2183 32.7427 65.359 32.3745C65.5508 31.909 65.7991 31.4117 66.5815 31.2573C67.3662 31.1161 69.1671 30.8841 70.0595 30.7731C70.735 30.6956 72.1989 30.5039 72.3693 30.4869C72.5397 30.4698 72.623 30.3526 72.623 30.2355C72.623 30.1044 72.5466 30.0028 72.3602 29.9857C72.0836 29.9632 70.735 29.8212 70.0595 29.7374C69.0258 29.6133 67.2508 29.3495 66.6549 29.2161C66.0291 29.0733 65.7288 28.8933 65.4469 28.3045C65.2817 27.9673 65.1521 27.6134 65.0603 27.2486C64.9945 26.9863 64.7394 26.1252 64.7042 25.984C64.6668 25.8156 64.5713 25.7652 64.475 25.7652C64.3787 25.7652 64.2748 25.8024 64.2282 25.9902C64.1694 26.1717 63.9646 26.9863 63.879 27.2656C63.7778 27.6151 63.6561 27.9581 63.5146 28.2928C63.2998 28.7583 62.995 29.0826 62.3333 29.2184C61.3224 29.4232 59.5063 29.7157 59.0746 29.7832C57.4356 30.0121 57.0521 30.0594 55.9266 29.9384C55.0655 29.8608 53.1362 29.5504 51.8587 29.3495C51.0839 29.2324 50.2893 29.1718 49.8599 28.434C49.607 27.9941 49.4679 27.5667 49.2983 27.0228C49.1501 26.5573 48.9239 25.7342 48.8743 25.5324C48.8215 25.3711 48.7574 25.2803 48.6191 25.2803C48.4808 25.2803 48.4082 25.3711 48.3616 25.5449C48.302 25.7241 48.0559 26.593 47.9383 27.0057C47.7549 27.6155 47.596 28.1051 47.3668 28.434C46.9297 29.0795 46.5186 29.161 45.4627 29.3425C44.3548 29.531 42.9741 29.6893 41.9022 29.8003C40.9585 29.912 40.3641 29.9756 40.0172 30.0152C39.8453 30.0369 39.7421 30.0927 39.7421 30.2658C39.7421 30.4388 39.8453 30.5032 40.0172 30.5233C40.332 30.5683 41.2588 30.6715 41.909 30.7382C42.9986 30.8562 43.9827 30.9539 45.4627 31.1929C46.8969 31.4179 47.1482 31.6134 47.609 32.7127C47.7931 33.1564 47.9309 33.6185 48.02 34.0914C48.1224 34.5569 48.3341 35.4832 48.3677 35.6756C48.3807 35.816 48.4601 35.9324 48.6091 35.9324C48.7581 35.9324 48.8384 35.83 48.8643 35.6678C48.8987 35.4529 49.1195 34.4707 49.2227 34.0914C49.325 33.6238 49.4565 33.1634 49.6162 32.7127C50.0746 31.5257 50.4513 31.3985 51.8488 31.1805C52.9185 31.0113 54.9157 30.7049 55.9266 30.5877C57.0521 30.4799 57.5021 30.4799 59.0807 30.7188L59.083 30.7227ZM69.6653 23.2088C70.249 23.2919 71.2439 23.4881 72.3609 23.7426C73.1044 23.9172 73.3542 24.3082 73.5246 24.7892C73.695 25.2702 73.8195 25.7978 73.9624 26.3696C74.0908 26.8544 74.1771 27.278 74.1916 27.3549C74.2005 27.4151 74.2294 27.4704 74.2734 27.5117C74.3174 27.5531 74.374 27.5779 74.4338 27.5822C74.4938 27.5825 74.552 27.5611 74.5979 27.5219C74.6438 27.4826 74.6745 27.4281 74.6844 27.368C74.7081 27.2641 74.7937 26.8405 74.9137 26.3595C75.0436 25.8435 75.1918 25.2733 75.3515 24.7807C75.5043 24.3229 75.7587 23.9443 76.4143 23.7806C77.0401 23.6371 78.067 23.4618 78.9052 23.3361C79.6341 23.2236 80.8917 23.0622 81.0644 23.0351C81.2371 23.0079 81.3204 22.8939 81.3204 22.7876C81.3204 22.6813 81.2631 22.5509 81.0644 22.5308C80.8826 22.5005 79.6769 22.3345 78.8952 22.2204C77.9386 22.0761 76.9545 21.9148 76.4143 21.7906C76.0101 21.6929 75.6097 21.4105 75.4286 21.0148C75.2415 20.6238 75.0881 20.217 74.9702 19.7991C74.8747 19.4337 74.7295 18.9084 74.6875 18.7626C74.6757 18.7049 74.6441 18.6534 74.5983 18.6173C74.5526 18.5812 74.4956 18.5628 74.4377 18.5655C74.3444 18.5655 74.2482 18.6128 74.2016 18.7727C74.1511 18.9581 74.0243 19.4267 73.9104 19.8045C73.7515 20.3693 73.6384 20.6789 73.4642 21.0148C73.2717 21.395 72.9714 21.6812 72.3686 21.8116C71.2515 22.0513 70.2834 22.2577 69.6745 22.3508C68.3687 22.5525 67.7452 22.6464 65.7647 22.364C64.8776 22.229 63.3801 22.0017 62.2042 21.772C61.5555 21.6409 60.9725 21.4555 60.6478 20.8069C60.4384 20.3693 60.3009 19.8596 60.1473 19.3382C60.048 19.007 59.8554 18.3367 59.789 18.0814C59.7424 17.9084 59.6744 17.8378 59.5338 17.8378C59.3932 17.8378 59.3267 17.9084 59.2793 18.0814C59.2136 18.2986 59.0341 18.948 58.9256 19.3313C58.7728 19.8394 58.6199 20.3763 58.4167 20.7968C58.1004 21.4555 57.5716 21.6137 56.8886 21.7588C55.9121 21.9667 54.3549 22.1351 52.9651 22.2833C52.3492 22.3609 51.2184 22.4982 50.9556 22.5385C50.8028 22.5525 50.7218 22.6332 50.7218 22.7814C50.7218 22.9295 50.7814 23.0087 50.951 23.0296C51.1924 23.0669 52.5212 23.2182 52.9536 23.2694C53.6971 23.3524 55.4804 23.6022 56.8802 23.8031C57.8406 23.9459 58.3571 24.3245 58.6375 25.4711C58.7903 26.0918 58.9195 26.548 59.015 27.0228C59.1013 27.4107 59.2373 28.0314 59.2732 28.1571C59.3236 28.3371 59.4092 28.4108 59.52 28.4108C59.6308 28.4108 59.7362 28.3572 59.7828 28.1493C59.8065 28.0345 59.9762 27.261 60.0189 27.0492C60.1213 26.5976 60.2527 26.0406 60.401 25.4618C60.686 24.4315 60.984 24.0863 62.1958 23.8C63.1463 23.575 64.8945 23.3493 65.7395 23.2282C67.8231 22.9226 68.3664 23.0265 69.6645 23.2057L69.6653 23.2088ZM78.0922 15.2C77.989 15.2 76.4831 14.9921 75.6877 14.885C74.767 14.7469 73.6247 14.6158 72.5947 14.39C72.1798 14.3062 71.6251 14.0797 71.3386 13.4846C71.1369 13.0649 71.0238 12.6312 70.7785 11.8104C70.7021 11.5777 70.5348 10.9097 70.4935 10.7483C70.4446 10.5636 70.3407 10.5225 70.249 10.5225C70.1574 10.5225 70.0557 10.5528 69.9969 10.7483C69.9495 10.9159 69.7852 11.4946 69.702 11.7918C69.4475 12.6623 69.3077 13.1371 69.1388 13.4924C68.8676 14.051 68.4283 14.2799 67.7016 14.418C66.9865 14.539 65.5256 14.7469 64.0647 14.9401C61.2162 15.2985 61.0948 15.29 58.3632 14.9789C57.5434 14.8912 55.3757 14.6096 54.6613 14.5134C52.0413 14.1992 47.6884 13.7492 45.0409 13.2721C43.6053 13.0044 42.3201 12.6902 41.488 10.6149C40.9348 9.21837 40.6002 7.96541 40.2907 6.8327C40.0264 5.89318 39.7291 4.61074 39.6298 4.18248C39.5802 3.97689 39.4976 3.90628 39.3647 3.90628C39.247 3.90628 39.1645 3.97145 39.1034 4.18248C38.9949 4.60298 38.651 5.9374 38.3981 6.82572C38.078 7.92351 37.7815 9.23078 37.2184 10.6149C36.4979 12.3667 35.5833 12.9059 33.7075 13.2821C31.0257 13.7996 27.7577 14.2077 24.7282 14.5405C23.239 14.7011 18.9289 15.1814 18.7494 15.2015C18.685 15.2015 18.6231 15.2275 18.5776 15.2738C18.532 15.3201 18.5064 15.3828 18.5064 15.4483C18.5064 15.5137 18.532 15.5764 18.5776 15.6227C18.6231 15.669 18.685 15.695 18.7494 15.695C18.9289 15.7206 23.356 16.1923 24.7458 16.3451C27.8846 16.6896 30.7926 17.0596 33.5761 17.55C36.2748 18.024 36.9044 19.4267 37.4209 21.1645C37.8251 22.5401 38.3683 24.9498 38.5563 25.8901C38.742 26.7164 39.0636 28.4449 39.1034 28.5954C39.1431 28.7832 39.2264 28.86 39.3586 28.86C39.4778 28.86 39.574 28.7932 39.6229 28.5954C39.6573 28.4302 39.9843 26.6558 40.1501 25.88C40.3526 24.9591 40.9073 22.4439 41.2909 21.1413C41.9786 18.8487 42.6456 18.048 45.0409 17.6244C47.45 17.1877 51.9748 16.6446 54.6774 16.3172C55.3566 16.2326 56.9168 16.0976 58.3632 15.9192C61.12 15.6088 61.3591 15.6337 64.0777 15.9743C65.5088 16.148 66.4898 16.2846 67.642 16.4855C68.5666 16.6446 68.9173 16.9122 69.1954 17.7269C69.4246 18.377 69.5996 19.0892 69.7188 19.5772C69.825 20.0047 69.9633 20.699 69.9969 20.8472C70.0038 20.9045 70.0308 20.9574 70.0728 20.9963C70.1149 21.0352 70.1693 21.0574 70.2261 21.059C70.2854 21.057 70.3423 21.0351 70.388 20.9968C70.4338 20.9585 70.4658 20.9059 70.479 20.8472C70.518 20.6657 70.6464 20.0047 70.7495 19.5772C70.8527 19.1497 71.0972 18.2583 71.2759 17.7269C71.538 16.9805 71.9514 16.6578 72.6429 16.5127C73.4069 16.3436 74.7372 16.1628 75.6991 16.0185C76.4357 15.9137 77.9776 15.7159 78.0899 15.6988C78.1224 15.6991 78.1547 15.6926 78.1846 15.6797C78.2145 15.6668 78.2416 15.6478 78.264 15.6239C78.2864 15.5999 78.3037 15.5716 78.3149 15.5406C78.3261 15.5096 78.3309 15.4766 78.329 15.4436C78.3275 15.38 78.3022 15.3194 78.2582 15.2741C78.2142 15.2289 78.1548 15.2023 78.0922 15.2Z" fill="#373833"/>
</g>
<defs>
<clipPath id="clip0">
<rect x="0.25" width="98" height="58" fill="white"/>
</clipPath>
</defs>
</svg>