<svg width="80" height="80" viewBox="0 0 80 80" fill="none" xmlns="http://www.w3.org/2000/svg">
<path fill-rule="evenodd" clip-rule="evenodd" d="M39.9997 73.2766L59.5266 63.5318L59.5142 63.4986C59.6875 60.5783 60.0145 57.6691 60.4936 54.7831H19.5059C19.9766 57.6809 20.298 60.601 20.4687 63.5318L39.9997 73.2766ZM25.1958 57.6468V64.0589H29.4291V59.1285H37.1112L34.206 64.0589H36.1317L36.8829 62.7682H41.166L41.9171 64.0589H55.1398V59.7842H54.3886L55.1398 57.9747V57.6468H46.5903V59.3941H49.8441V61.0542H51.3465V62.9425H45.4531L42.3529 57.6468H25.1958ZM39.041 59.1118L37.4432 61.7888H40.6181L39.041 59.1118Z" fill="#373833"/>
<path fill-rule="evenodd" clip-rule="evenodd" d="M44.4074 0.780242L39.9998 3.78502L35.6089 0.780242L31.2179 3.78502L26.8103 0.780242L22.4111 3.78502L18.0077 0.767792V11.9734H13.596L1.33203 28.757C11.7782 39.2073 15.8164 51.7742 15.9284 66.437L39.9998 78.4395L64.0546 66.437C64.1708 51.8033 68.209 39.2322 78.6551 28.757L66.4036 11.9859H62.0085V0.780242L57.6176 3.78502L53.2059 0.780242L48.7983 3.78502L44.4074 0.780242ZM7.3208 28.3752C13.2141 35.3434 17.3063 44.171 19.1988 53.0608H60.834C62.7099 44.2498 66.7232 35.2148 72.6705 28.3669L64.0795 16.601H15.9367L7.3208 28.3752ZM15.0527 14.8454L5.11702 28.454H5.13363C14.0691 39.1783 18.1778 50.6703 18.8004 64.6317L40.0164 75.2148L61.2324 64.6317C61.8383 50.8736 65.9305 38.9292 74.9033 28.4623L64.9427 14.8454H15.0527ZM23.4569 52.347L23.4722 52.3388L23.4735 52.3387L23.4569 52.347ZM23.4722 52.3388C23.6193 52.261 23.7977 52.1911 23.9844 52.1179C24.3847 51.9608 24.8236 51.7887 25.0755 51.492C24.9951 51.0809 24.9951 50.6581 25.0755 50.2469C25.2625 50.0394 25.5019 49.886 25.7686 49.8029C25.9522 49.6226 26.3403 48.9385 26.8003 48.1273C27.4738 46.94 28.3017 45.4803 28.8688 44.9305C29.3287 44.3976 29.6696 43.8436 30.0039 43.3004C30.2971 42.8239 30.5852 42.3557 30.944 41.9174C31.8991 42.3729 32.9279 42.654 33.9819 42.7475C34.3555 42.7475 35.7292 42.569 35.9118 42.2909C35.9118 41.8302 34.7497 41.4111 34.3721 41.3862C34.0676 41.3204 33.7501 41.3553 33.4673 41.4858C33.0132 41.6613 32.4608 41.3386 31.9005 41.0112C31.8515 40.9826 31.8024 40.9539 31.7533 40.9255C31.9442 40.763 32.1233 40.5569 32.3041 40.3489C32.7836 39.7971 33.2753 39.2314 34.0317 39.4273C35.4455 40.1147 37.0645 39.6936 38.6298 39.2864L38.6298 39.2864C39.3988 39.0864 40.1549 38.8898 40.8672 38.8296C41.9984 39.9759 43.2295 40.8466 44.4834 41.7335C44.9639 42.0733 45.4476 42.4155 45.9305 42.7765C45.6251 43.5399 44.1441 45.2352 42.6607 46.9332C41.2408 48.5585 39.8187 50.1864 39.4229 51.0023C39.3148 51.2373 39.196 51.4284 39.084 51.6087C38.9981 51.7468 38.9162 51.8787 38.846 52.0191C38.846 52.6001 40.5601 51.6705 40.7261 51.5128C40.8018 51.2104 40.8201 50.8964 40.78 50.5873C41.4695 50.1276 41.7652 49.7009 42.1419 49.1574L42.1419 49.1573C42.3162 48.9058 42.5078 48.6293 42.7638 48.3129C43.3476 47.1755 45.4675 45.2685 46.9193 43.9626C47.2739 43.6437 47.5885 43.3607 47.8313 43.1334C47.979 42.6036 47.3978 41.6401 46.8761 40.7752C46.3721 39.9395 45.9236 39.196 46.2417 39.0247C46.6286 39.2465 46.998 39.5002 47.3633 39.7511L47.3633 39.7511L47.3634 39.7511C47.8523 40.0869 48.3338 40.4176 48.8398 40.6599C51.3408 42.2415 51.6962 43.009 52.2616 44.2298C52.3163 44.348 52.373 44.4705 52.4339 44.5985C52.8252 46.1253 53.4857 47.5701 54.3845 48.8649C54.6025 49.071 54.9588 49.4936 55.3647 49.9751C56.2418 51.0153 57.3506 52.3304 57.796 52.3304C58.2317 52.3304 57.6213 50.8459 57.4022 50.3129L57.4021 50.3128C57.3645 50.2214 57.3385 50.158 57.3312 50.1349C57.1559 49.9967 56.9446 49.883 56.7311 49.768C56.1813 49.472 55.6171 49.1682 55.6171 48.4208C54.3471 47.3418 53.7993 45.7937 53.2681 43.9925C53.1177 43.5679 53.1842 43.1294 53.2504 42.693C53.3193 42.2379 53.388 41.7852 53.21 41.353C52.1973 40.4897 47.6777 35.8664 48.9767 34.1689C49.0368 34.0701 49.1204 34.0174 49.1925 33.972C49.2747 33.9201 49.342 33.8778 49.342 33.7871C48.1175 32.5431 46.5089 31.7491 44.7767 31.5335C44.0965 31.4535 42.57 31.5799 40.9969 31.7101C38.98 31.8771 36.8865 32.0504 36.4015 31.8033C35.2685 31.1932 36.5177 29.1596 37.0946 28.5868C37.3806 28.1751 37.6931 27.7796 38.0085 27.3805L38.0085 27.3804C38.6086 26.621 39.219 25.8486 39.6761 24.9263C39.9897 24.5873 40.6129 24.5271 41.1818 24.4722C41.4486 24.4465 41.7035 24.4219 41.9089 24.3702C42.0339 24.2869 42.1077 24.1437 42.1823 23.999L42.1823 23.999C42.2117 23.9419 42.2413 23.8846 42.2741 23.8307C42.2741 23.5681 41.3097 23.5226 40.6985 23.4937L40.6984 23.4937C40.5077 23.4847 40.3515 23.4773 40.2695 23.4654C40.06 23.3835 39.8818 23.2375 39.7603 23.0481C39.6388 22.8588 39.5802 22.6359 39.5931 22.4113C40.2428 22.3692 40.9081 22.4017 41.5767 22.4343C42.2918 22.4693 43.0106 22.5044 43.7184 22.4486C46.8975 22.1955 50.6991 20.3362 52.6663 18.149C52.6663 18.149 52.6663 18.1116 52.5916 18.0535H52.5542C52.2201 18.0535 51.8909 18.0728 51.5579 18.0923C51.2167 18.1122 50.8714 18.1324 50.5123 18.1324C48.8522 20.029 46.2002 21.7555 43.598 21.6725C43.598 21.5024 43.5607 21.0957 43.4071 21.0168C42.891 21.0922 42.3864 21.2316 41.9047 21.4318C40.9626 21.7514 36.7875 21.7057 36.3019 20.6225C36.1607 20.1988 36.5217 20.0638 36.9002 19.9222C37.2334 19.7976 37.5801 19.668 37.6092 19.3318C37.6124 19.2919 37.6053 19.2519 37.5885 19.2156L37.5511 19.1948C37.0639 19.1948 36.5735 19.1501 36.0954 19.1065C35.6408 19.0651 35.1975 19.0247 34.7788 19.0247C34.6962 19.1073 34.6105 19.1719 34.5296 19.2329C34.2853 19.4172 34.0846 19.5686 34.1438 20.083C34.3306 21.0251 36.7999 21.9672 38.3397 22.3532C38.5228 22.6279 37.1633 22.6734 36.9568 22.6804L36.9369 22.681C36.4299 22.8155 35.8975 22.8434 35.3719 22.8709C34.6972 22.9062 34.034 22.9409 33.4507 23.1998C33.3552 23.5194 33.2515 23.8888 33.4881 24.1253C33.6658 24.2149 33.9125 24.2847 34.1723 24.3581C34.683 24.5026 35.2447 24.6614 35.4345 25.0135C34.7045 26.1862 33.5869 27.0802 32.4675 27.9757C31.1623 29.0198 29.8545 30.066 29.1552 31.5584C29.1552 32.3325 29.2236 33.0997 29.2886 33.8302L29.2886 33.8303C29.3478 34.4942 29.4042 35.1277 29.4042 35.7086C29.4042 35.7341 29.3902 35.7579 29.3793 35.7764C29.3725 35.7881 29.3669 35.7977 29.3669 35.8041C29.3241 35.8041 29.3058 35.8232 29.2902 35.8395C29.2785 35.8516 29.2684 35.8622 29.2507 35.8622C29.1039 35.8554 28.8048 35.8265 28.435 35.7908L28.4347 35.7908C27.4453 35.6952 25.9505 35.5509 25.5154 35.6505C24.4986 35.8705 24.4986 37.4683 24.6563 37.9498C25.2834 38.5769 26.7681 39.3566 27.9885 39.9976C28.6339 40.3366 29.2054 40.6367 29.537 40.8549C28.3999 43.7145 25.4739 48.1594 23.6478 50.8155C23.2674 51.3272 22.9195 51.8622 22.6061 52.4175C22.6061 52.6124 22.995 52.4855 23.2594 52.3992C23.3543 52.3683 23.4331 52.3425 23.4722 52.3388ZM30.9647 37.9415C29.5419 37.5269 28.0871 37.2312 26.6153 37.0575C26.5115 37.1571 26.3787 37.4517 26.5572 37.5389C27.1198 37.9246 27.8181 38.3301 28.4942 38.7226L28.4943 38.7226C29.1348 39.0945 29.7554 39.4549 30.2218 39.7759C30.5657 39.2079 30.8165 38.5886 30.9647 37.9415ZM24.9012 12.1394H19.9583H19.9417V4.46565L22.4111 6.04274L24.9012 4.46565V12.1394ZM33.6748 12.1394H28.7402H28.7194V4.46565L31.2096 6.04274L33.6748 4.46565V12.1394ZM42.4858 12.1394H37.6341H37.6134V4.37435L39.9956 6.03444L42.4858 4.4532V12.1394ZM51.2552 12.1394H46.3206H46.2998V4.46565L48.79 6.04274L51.2552 4.46565V12.1394ZM60.0371 12.1394H55.1025V4.46565L57.5719 6.04274L60.0371 4.46565V12.1394Z" fill="#373833"/>
</svg>