<svg width="86" height="103" viewBox="0 0 86 103" fill="none" xmlns="http://www.w3.org/2000/svg">
<path fill-rule="evenodd" clip-rule="evenodd" d="M63.939 73.7003C66.7458 69.5071 68.246 64.5758 68.25 59.53C68.2553 52.7661 65.5741 46.2769 60.796 41.4894C56.0178 36.7019 49.5339 34.008 42.77 34C37.7242 33.9941 32.7899 35.4847 28.5913 38.2832C24.3927 41.0818 21.1183 45.0627 19.1824 49.7223C17.2464 54.382 16.7358 59.5111 17.7151 64.461C18.6943 69.4109 21.1196 73.9592 24.684 77.5306C28.2485 81.102 32.792 83.5362 37.7399 84.5252C42.6879 85.5142 47.818 85.0136 52.4814 83.0868C57.1449 81.1599 61.1322 77.8934 63.939 73.7003ZM63.4487 73.347C66.1814 69.2572 67.64 64.4488 67.64 59.53C67.6413 56.2637 66.999 53.0291 65.7496 50.0111C64.5002 46.9931 62.6684 44.251 60.3587 41.9413C58.0491 39.6317 55.3069 37.7998 52.2889 36.5504C49.271 35.3011 46.0364 34.6587 42.77 34.66C37.8512 34.66 33.0429 36.1186 28.953 38.8513C24.8632 41.5841 21.6755 45.4683 19.7932 50.0127C17.9108 54.5571 17.4183 59.5576 18.3779 64.3819C19.3375 69.2062 21.7062 73.6376 25.1843 77.1157C28.6624 80.5939 33.0938 82.9625 37.9181 83.9221C42.7424 84.8817 47.743 84.3892 52.2874 82.5069C56.8318 80.6245 60.7159 77.4369 63.4487 73.347Z" fill="#373833"/>
<path fill-rule="evenodd" clip-rule="evenodd" d="M61.9935 72.3748C64.5339 68.5727 65.8899 64.1027 65.8899 59.53C65.8899 53.3982 63.4541 47.5175 59.1182 43.1817C54.7824 38.8459 48.9017 36.41 42.7699 36.41C38.1972 36.41 33.7272 37.766 29.9251 40.3064C26.1231 42.8469 23.1597 46.4577 21.4098 50.6824C19.6599 54.907 19.2021 59.5557 20.0942 64.0405C20.9862 68.5253 23.1882 72.6449 26.4216 75.8783C29.655 79.1117 33.7746 81.3137 38.2594 82.2058C42.7443 83.0979 47.3929 82.64 51.6176 80.8901C55.8422 79.1402 59.453 76.1769 61.9935 72.3748ZM60.2889 71.2359C62.6041 67.7709 63.8398 63.6973 63.8398 59.53C63.8398 53.9419 61.62 48.5827 57.6686 44.6313C53.7172 40.6799 48.358 38.46 42.7698 38.46C38.6026 38.46 34.5289 39.6957 31.064 42.0109C27.599 44.3261 24.8984 47.6168 23.3037 51.4669C21.709 55.3169 21.2917 59.5534 22.1047 63.6406C22.9177 67.7277 24.9244 71.482 27.8711 74.4287C30.8178 77.3754 34.5721 79.3822 38.6593 80.1951C42.7465 81.0081 46.9829 80.5909 50.833 78.9961C54.683 77.4014 57.9737 74.7008 60.2889 71.2359Z" fill="#373833"/>
<path fill-rule="evenodd" clip-rule="evenodd" d="M53.0697 66.8C55.2152 67.1476 57.2075 68.1298 58.7897 69.62C58.8453 69.6749 58.8895 69.7403 58.9196 69.8124C58.9498 69.8845 58.9653 69.9619 58.9653 70.04C58.9653 70.1182 58.9498 70.1955 58.9196 70.2676C58.8895 70.3397 58.8453 70.4051 58.7897 70.46C57.2069 71.9476 55.2145 72.9264 53.0697 73.27C52.9972 73.2815 52.923 73.2772 52.8523 73.2575C52.7816 73.2377 52.716 73.2029 52.66 73.1554C52.6039 73.1079 52.5588 73.0489 52.5277 72.9824C52.4966 72.9159 52.4802 72.8434 52.4797 72.77V71.91C52.4799 71.8562 52.4689 71.8029 52.4474 71.7535C52.426 71.7041 52.3945 71.6597 52.3551 71.6231C52.3156 71.5864 52.269 71.5584 52.2182 71.5406C52.1673 71.5229 52.1134 71.5159 52.0597 71.52H34.5997C34.4549 71.5059 34.3092 71.5337 34.1797 71.6L31.9897 72.88C31.8606 72.96 31.7115 73.0016 31.5597 73H29.2497C29.1791 73.0063 29.1083 72.9916 29.046 72.9578C28.9838 72.924 28.9329 72.8726 28.8997 72.81C27.8934 71.1334 26.7388 69.5504 25.4497 68.08C25.3363 67.975 25.2586 67.8372 25.2275 67.6858C25.1964 67.5344 25.2135 67.3771 25.2764 67.2359C25.3392 67.0947 25.4447 66.9768 25.578 66.8986C25.7113 66.8204 25.8658 66.7859 26.0197 66.8H31.3297C31.4624 66.8036 31.5924 66.8378 31.7097 66.9L35.0797 68.48C35.2224 68.5699 35.3882 68.6164 35.5569 68.6138C35.7256 68.6112 35.8899 68.5596 36.0298 68.4652C36.1697 68.3709 36.2791 68.238 36.3448 68.0826C36.4105 67.9272 36.4295 67.756 36.3997 67.59C35.2997 59.91 28.6197 58.15 24.8797 57.49C24.7811 57.4767 24.6861 57.4436 24.6006 57.3927C24.515 57.3419 24.4406 57.2743 24.3818 57.194C24.323 57.1137 24.281 57.0224 24.2583 56.9255C24.2356 56.8286 24.2327 56.7281 24.2497 56.63C24.5761 54.4884 25.2912 52.4245 26.3597 50.54C26.4515 50.3957 26.5893 50.2867 26.7508 50.2304C26.9123 50.1741 27.0881 50.174 27.2497 50.23C29.3135 50.7642 31.3072 51.5396 33.1897 52.54C34.3297 53.14 35.1097 53.28 35.6097 52.86C33.5454 50.9945 31.2699 49.3768 28.8297 48.04C28.5697 47.91 28.3997 47.67 28.6597 47.36C30.0091 45.744 31.6426 44.3884 33.4797 43.36C33.6251 43.2876 33.7874 43.2558 33.9493 43.2681C34.1113 43.2805 34.2669 43.3364 34.3997 43.43C36.6234 44.6683 38.6856 46.1763 40.5397 47.92C40.8398 48.2716 41.2146 48.5519 41.6366 48.7405C42.0587 48.929 42.5175 49.0211 42.9797 49.01C41.4686 46.5721 39.5626 44.4026 37.3397 42.59C36.9897 42.23 36.8897 41.79 37.5397 41.59C39.2985 41.0654 41.1243 40.7993 42.9597 40.8C43.1847 40.8 43.3872 40.8125 43.5897 40.825C43.7922 40.8375 43.9947 40.85 44.2197 40.85C44.5941 40.8756 44.9478 41.0313 45.2197 41.29C49.662 45.3204 50.575 47.9853 51.4951 50.6709C51.5133 50.7239 51.5315 50.7769 51.5497 50.83C52.3043 53.1421 52.6429 55.5697 52.5497 58C52.4706 61.1923 51.9387 64.3573 50.9697 67.4C50.8497 67.84 50.9597 68.59 51.5597 68.59H52.0697C52.188 68.5727 52.2957 68.5119 52.3715 68.4194C52.4474 68.3269 52.4859 68.2094 52.4797 68.09V67.31C52.4804 67.2362 52.4969 67.1635 52.5279 67.0966C52.5589 67.0297 52.6038 66.9701 52.6596 66.9219C52.7154 66.8736 52.7808 66.8378 52.8515 66.8168C52.9222 66.7958 52.9966 66.7901 53.0697 66.8ZM48.1369 65.3739C48.395 64.9844 48.5318 64.5272 48.5298 64.06C48.5271 63.4358 48.2773 62.8381 47.835 62.3977C47.3927 61.9573 46.794 61.71 46.1698 61.71C45.7026 61.71 45.2459 61.8487 44.8576 62.1084C44.4693 62.3682 44.1668 62.7374 43.9885 63.1692C43.8102 63.601 43.764 64.076 43.8559 64.5341C43.9478 64.9922 44.1735 65.4127 44.5046 65.7423C44.8356 66.072 45.2571 66.2959 45.7155 66.3859C46.174 66.4758 46.6488 66.4276 47.0799 66.2475C47.5109 66.0673 47.8788 65.7633 48.1369 65.3739Z" fill="#373833"/>
<path d="M14.3899 25.53C15.6399 25.59 17.6899 25.64 18.8699 25.64C24.0199 25.64 24.6299 25.64 24.6299 22.83C24.6299 20.63 23.9799 20.45 21.2499 20.37L18.0899 20.27C16.6399 20.22 16.6099 20.07 16.6099 19.42C16.6099 18.77 16.7899 18.75 20.2699 18.75C20.9299 18.75 23.0399 18.75 24.1499 18.81C24.1743 18.8133 24.1991 18.8109 24.2225 18.803C24.2458 18.7952 24.267 18.782 24.2844 18.7646C24.3019 18.7472 24.315 18.7259 24.3229 18.7026C24.3308 18.6793 24.3332 18.6544 24.3299 18.63V17.19C24.3327 17.1661 24.3304 17.1418 24.3231 17.1188C24.3159 17.0958 24.3038 17.0746 24.2877 17.0566C24.2717 17.0387 24.2519 17.0243 24.2299 17.0146C24.2078 17.0048 24.184 16.9998 24.1599 17C23.0599 16.94 21.2699 16.88 19.9799 16.88C14.9199 16.88 14.1099 16.98 14.1099 19.59C14.1099 21.82 14.5999 22.11 17.8399 22.22L20.7499 22.31C22.0999 22.36 22.1299 22.53 22.1299 23.04C22.1299 23.73 22.0699 23.77 18.8599 23.77C17.3599 23.77 15.8599 23.71 14.3999 23.66C14.2899 23.66 14.2299 23.71 14.2299 23.83V25.34C14.2271 25.3631 14.2291 25.3866 14.2358 25.4089C14.2424 25.4312 14.2536 25.4519 14.2686 25.4697C14.2836 25.4875 14.3021 25.5021 14.323 25.5125C14.3438 25.5228 14.3666 25.5288 14.3899 25.53V25.53ZM68.8999 22.4H65.1199L66.8599 19H67.1699L68.8999 22.4ZM57.8999 21.2V21.32C57.8999 23.51 57.7199 23.58 54.8999 23.58H52.5199V19H54.8499C57.6899 19 57.8499 19.07 57.8499 21.25L57.8999 21.2ZM45.5799 21.25V21.37C45.5799 23.76 45.4899 23.79 42.6999 23.79C39.9099 23.79 39.8199 23.79 39.8199 21.37V21.2C39.8199 18.82 39.9099 18.78 42.6999 18.78C45.4899 18.78 45.5799 18.78 45.5799 21.2V21.25ZM73.0799 25.3L68.9999 17.14C68.9849 17.0997 68.9574 17.0653 68.9214 17.0419C68.8853 17.0185 68.8427 17.0073 68.7999 17.01H65.2499C65.2067 17.0056 65.1633 17.0161 65.1269 17.0397C65.0905 17.0634 65.0633 17.0987 65.0499 17.14L60.9299 25.3C60.8699 25.43 60.9299 25.52 61.0599 25.52H63.4099C63.4527 25.5227 63.4953 25.5115 63.5314 25.4881C63.5674 25.4647 63.5949 25.4303 63.6099 25.39L64.2499 24.18H69.8199L70.4299 25.39C70.4466 25.4311 70.476 25.4658 70.5137 25.4891C70.5515 25.5125 70.5956 25.5233 70.6399 25.52H72.9899C73.1299 25.52 73.1799 25.43 73.1199 25.3H73.0799ZM54.8399 17H50.1299C50.1054 16.9967 50.0806 16.9991 50.0573 17.007C50.0339 17.0148 50.0127 17.028 49.9953 17.0454C49.9779 17.0628 49.9647 17.084 49.9568 17.1074C49.9489 17.1307 49.9466 17.1556 49.9499 17.18V25.33C49.9466 25.3544 49.9489 25.3793 49.9568 25.4026C49.9647 25.4259 49.9779 25.4472 49.9953 25.4646C50.0127 25.482 50.0339 25.4952 50.0573 25.503C50.0806 25.5109 50.1054 25.5133 50.1299 25.51H54.8399C59.8399 25.51 60.5499 25.26 60.5499 21.29V21.22C60.5499 17.22 59.8799 17 54.8399 17ZM36.5999 25.3L31.8999 20.71L36.3099 17.22C36.4399 17.13 36.3899 17.01 36.2299 17.01H33.3499C33.2698 17.0122 33.1926 17.0402 33.1299 17.09L28.6199 20.7V17.19C28.6199 17.07 28.5599 17.01 28.4499 17.01H26.2499C26.2254 17.0067 26.2006 17.0091 26.1773 17.017C26.1539 17.0248 26.1327 17.038 26.1153 17.0554C26.0979 17.0728 26.0847 17.094 26.0768 17.1174C26.0689 17.1407 26.0666 17.1656 26.0699 17.19V25.34C26.0666 25.3644 26.0689 25.3893 26.0768 25.4126C26.0847 25.4359 26.0979 25.4572 26.1153 25.4746C26.1327 25.492 26.1539 25.5052 26.1773 25.513C26.2006 25.5209 26.2254 25.5233 26.2499 25.52H28.4499C28.5599 25.52 28.6199 25.46 28.6199 25.34V23.28L29.9599 22.23L33.1899 25.42C33.2183 25.4528 33.2537 25.4788 33.2935 25.4961C33.3333 25.5135 33.3765 25.5216 33.4199 25.52H36.5099C36.6699 25.52 36.7099 25.41 36.5999 25.3V25.3ZM37.0999 21.2V21.32C37.0999 25.44 37.7699 25.69 42.7199 25.69C47.6699 25.69 48.3399 25.44 48.3399 21.31V21.2C48.3399 17.08 47.6699 16.83 42.7199 16.83C37.7699 16.83 37.0999 17.08 37.0999 21.2V21.2ZM17.1899 15L18.2499 16.27C18.2733 16.3028 18.3052 16.3285 18.3423 16.3444C18.3793 16.3603 18.42 16.3657 18.4599 16.36H20.7099C20.7511 16.3644 20.7928 16.3585 20.8312 16.3428C20.8697 16.3271 20.9035 16.3021 20.9299 16.27L22.0199 15C22.1199 14.89 22.0799 14.79 21.9299 14.79H20.3999C20.3594 14.7884 20.3191 14.7967 20.2825 14.8141C20.2459 14.8315 20.2141 14.8576 20.1899 14.89L19.7299 15.55H19.4799L19.0199 14.89C18.994 14.8568 18.9605 14.8303 18.9222 14.8129C18.8839 14.7955 18.8419 14.7876 18.7999 14.79H17.2499C17.0899 14.79 17.0599 14.89 17.1499 15" fill="#373833"/>
</svg>