<svg width="90" height="90" viewBox="0 0 90 90" fill="none" xmlns="http://www.w3.org/2000/svg">
<path fill-rule="evenodd" clip-rule="evenodd" d="M55.4717 45.0467L55.4437 45.0934C55.4764 45.4529 55.4951 45.8218 55.4951 46.1906C55.5267 47.7996 55.2371 49.3987 54.6432 50.8944C54.0493 52.39 53.1631 53.7523 52.0364 54.9013C50.9097 56.0504 49.5652 56.9632 48.0814 57.5863C46.5977 58.2094 45.0046 58.5304 43.3953 58.5304C41.786 58.5304 40.1929 58.2094 38.7092 57.5863C37.2255 56.9632 35.8809 56.0504 34.7542 54.9013C33.6275 53.7523 32.7413 52.39 32.1474 50.8944C31.5536 49.3987 31.2639 47.7996 31.2956 46.1906C31.296 45.5307 31.3491 44.8718 31.4543 44.2203V44.2203L30.0536 44.6405C29.9932 45.1659 29.9636 45.6944 29.9649 46.2233C29.9649 49.7846 31.3796 53.2001 33.8979 55.7184C36.4161 58.2366 39.8316 59.6514 43.393 59.6514C46.9543 59.6514 50.3698 58.2366 52.8881 55.7184C55.4063 53.2001 56.8211 49.7846 56.8211 46.2233C56.8211 46.0412 56.8211 45.8591 56.8211 45.677L55.4857 45.0514L55.4717 45.0467Z" fill="#373833"/>
<path fill-rule="evenodd" clip-rule="evenodd" d="M89.1452 31.0583L44.7335 46.326L0.648645 31.091C0.591387 31.2214 0.555142 31.3601 0.541258 31.5019C0.536961 31.6758 0.589923 31.8463 0.691997 31.9872C0.794072 32.1281 0.939604 32.2315 1.10621 32.2816L30.0541 44.6498L31.4548 44.2296L32.7435 45.7564L37.3518 47.736L44.6868 46.3353L35.1994 49.6037C35.1994 49.6037 35.3161 50.1453 36.1005 50.2013C36.8849 50.2573 44.8222 50.8923 44.8222 50.8923L53.9922 46.9843L55.4302 45.07L56.7936 45.7564C56.7936 45.7564 88.076 32.5244 88.7624 32.2396C89.4487 31.9548 89.1452 31.049 89.1452 31.049V31.0583Z" fill="#373833"/>
<path fill-rule="evenodd" clip-rule="evenodd" d="M34.3686 40.3637C35.3791 38.8067 36.777 37.5391 38.4252 36.6854C40.0734 35.8318 41.9153 35.4213 43.77 35.4943C45.6248 35.5672 47.4287 36.1212 49.0047 37.1017C50.5808 38.0823 51.8748 39.4558 52.7598 41.0874V41.0874L54.6554 41.6757C53.7787 39.51 52.2956 37.6435 50.3841 36.2999C48.4727 34.9563 46.2142 34.1929 43.8796 34.1012C41.5451 34.0095 39.2336 34.5935 37.2227 35.783C35.2118 36.9725 33.5869 38.717 32.543 40.8072V40.8072L34.3686 40.3403V40.3637Z" fill="#373833"/>
</svg>