<svg width="60" height="58" viewBox="0 0 60 58" fill="none" xmlns="http://www.w3.org/2000/svg">
<g clip-path="url(#clip0)">
<path fill-rule="evenodd" clip-rule="evenodd" d="M53.6534 1.39704L44.7568 10.2575L50.0173 15.518L58.9284 6.64786L53.3005 1.04277L53.6534 1.39704Z" fill="#373833"/>
<path fill-rule="evenodd" clip-rule="evenodd" d="M59.2407 13.4605C56.2545 7.83396 52.5056 3.71815 47.1562 0.753098H59.2154L59.2407 13.4605Z" fill="#373833"/>
<path fill-rule="evenodd" clip-rule="evenodd" d="M57.1487 21.7884C53.8285 9.23842 42.0968 0.229717 28.5392 0.798003C15.8609 1.32943 5.48041 10.0726 2.34766 21.6584L7.15344 21.6698C10.2544 12.1986 19.1936 5.35782 29.7325 5.35782C40.3111 5.35782 49.278 12.2502 52.3464 21.777L57.1487 21.7884ZM56.9025 37.1075L52.0515 37.1015C48.7334 46.1812 39.9907 52.6624 29.7325 52.6624C19.4535 52.6624 10.6962 46.1548 7.39342 37.0462L2.54152 37.0402C6.14277 49.1662 17.6594 57.7776 30.9239 57.2216C43.3285 56.7017 53.5334 48.3207 56.9025 37.1075ZM9.53598 37.0488C12.7409 45.0253 20.5736 50.6624 29.7325 50.6624C38.8723 50.6624 46.6914 45.0488 49.9089 37.0988L47.3045 37.0956C44.2066 43.7634 37.4003 48.358 29.5495 48.2843C21.8112 48.2117 15.1733 43.6234 12.1393 37.0521L9.53598 37.0488ZM47.6739 21.7659C44.8245 14.7672 37.9648 9.8041 29.9142 9.72853C21.7672 9.65206 14.7449 14.6029 11.8245 21.6809L9.26759 21.6749C12.2854 13.3284 20.3066 7.35782 29.7325 7.35782C39.1949 7.35782 47.2418 13.3747 50.2323 21.772L47.6739 21.7659Z" fill="#373833"/>
<path fill-rule="evenodd" clip-rule="evenodd" d="M0.929674 21.6551C0.281507 24.0525 -0.0314813 26.5275 -0.000440375 29.0101C-0.0373398 31.7264 0.336173 34.4328 1.10756 37.0384L58.3477 37.1093C59.1269 34.4808 59.5039 31.7505 59.4659 29.0101C59.4957 26.5752 59.1965 24.1473 58.5764 21.7918L0.929674 21.6551ZM50.2003 26.0387C47.5522 26.0387 45.4074 27.5624 45.4074 29.4454C45.4074 31.3285 47.5522 32.8471 50.2003 32.8471C52.8483 32.8471 54.9982 31.3336 54.9982 29.4454C54.9982 27.5573 52.8483 26.0387 50.2003 26.0387ZM51.7911 29.4454C51.8082 30.1526 51.5661 30.8418 51.1101 31.3842H51.105C50.8687 31.5828 50.5705 31.6938 50.2613 31.698C50.0984 31.7001 49.9368 31.6699 49.7858 31.6091C49.6348 31.5482 49.4975 31.458 49.382 31.3437C48.9656 30.7975 48.739 30.1312 48.7365 29.4454C48.7129 28.8272 48.8912 28.218 49.2447 27.7092C49.2861 27.6579 49.3302 27.6089 49.3769 27.5624C49.5082 27.4401 49.6636 27.3463 49.8332 27.287C50.0029 27.2277 50.1831 27.2042 50.3623 27.218C50.5416 27.2318 50.716 27.2826 50.8745 27.3672C51.0329 27.4517 51.172 27.5682 51.2829 27.7092C51.6364 28.218 51.8147 28.8272 51.7911 29.4454ZM4.84326 27.2536C4.8864 27.2546 4.9278 27.2707 4.96016 27.2992L8.1317 32.8268H11.8725L14.8915 27.2587C14.9284 27.251 14.9665 27.251 15.0034 27.2587H16.3807V26.0539H11.5929V27.2587H12.7111C12.7381 27.2587 12.7639 27.2693 12.783 27.2883C12.8021 27.3073 12.8128 27.3331 12.8128 27.3599L10.8966 30.8274L8.86359 27.4004C8.86359 27.3628 8.87858 27.3268 8.90527 27.3002C8.93196 27.2736 8.96816 27.2587 9.0059 27.2587H10.241V26.0539H3.4303V27.2536H4.84326ZM33.7378 29.6125C33.7385 30.1316 33.539 30.6311 33.1805 31.0079C32.822 31.3847 32.3319 31.61 31.8115 31.6373H30.5865C30.5594 31.638 30.5324 31.6332 30.5072 31.6233C30.4819 31.6135 30.4589 31.5987 30.4395 31.5798C30.4201 31.5609 30.4046 31.5384 30.3941 31.5135C30.3836 31.4886 30.3782 31.4618 30.3782 31.4348V27.4662C30.3782 27.4098 30.4007 27.3558 30.4407 27.3159C30.4807 27.276 30.535 27.2536 30.5916 27.2536H31.7759V26.0539H25.4531V27.2536H26.7085C26.7432 27.2536 26.7776 27.2604 26.8097 27.2737C26.8417 27.2869 26.8709 27.3063 26.8954 27.3307C26.92 27.3552 26.9394 27.3842 26.9527 27.4161C26.966 27.448 26.9728 27.4823 26.9728 27.5168V31.4854C26.9735 31.5051 26.9702 31.5248 26.9631 31.5432C26.956 31.5616 26.9452 31.5783 26.9315 31.5925C26.9177 31.6067 26.9013 31.618 26.883 31.6256C26.8648 31.6333 26.8452 31.6373 26.8254 31.6373H25.4531V32.8319H34.9576V29.6125H33.7378ZM34.7594 27.2992C34.727 27.2707 34.6856 27.2546 34.6425 27.2536H33.2295V26.0539H40.0402V27.2587H38.8051C38.7674 27.2587 38.7312 27.2736 38.7045 27.3002C38.6778 27.3268 38.6628 27.3628 38.6628 27.4004L40.6959 30.8274L42.612 27.3599C42.612 27.3331 42.6013 27.3073 42.5822 27.2883C42.5632 27.2693 42.5373 27.2587 42.5103 27.2587H41.3922V26.0539H46.18V27.2587H44.8026C44.7657 27.251 44.7277 27.251 44.6908 27.2587L41.6768 32.8268H37.936L34.7594 27.2992ZM15.5726 29.4606C15.5726 27.5826 17.7225 26.0539 20.3706 26.0539C23.0186 26.0539 25.1635 27.5725 25.1635 29.4606C25.1635 31.3487 23.0186 32.8673 20.3706 32.8673C17.7225 32.8673 15.5726 31.3487 15.5726 29.4606ZM21.2753 31.3842C21.7274 30.8456 21.9692 30.1626 21.9563 29.4606C21.9807 28.8438 21.8022 28.236 21.4481 27.7294C21.3279 27.5743 21.174 27.4481 20.998 27.3605C20.822 27.2728 20.6283 27.2259 20.4316 27.2232C20.1021 27.2242 19.7855 27.351 19.5472 27.5776C19.4963 27.6215 19.4503 27.6707 19.41 27.7244C19.0558 28.2309 18.8773 28.8388 18.9017 29.4556C18.9001 30.153 19.1307 30.8312 19.5574 31.3842C19.6728 31.4983 19.8102 31.588 19.9613 31.648C20.1123 31.7081 20.274 31.7371 20.4366 31.7335C20.7482 31.7165 21.0444 31.5932 21.2753 31.3842Z" fill="#373833"/>
</g>
<defs>
<clipPath id="clip0">
<rect width="60" height="58" fill="white"/>
</clipPath>
</defs>
</svg>