<svg width="89" height="89" viewBox="0 0 89 89" fill="none" xmlns="http://www.w3.org/2000/svg">
<g clip-path="url(#clip0)">
<path fill-rule="evenodd" clip-rule="evenodd" d="M0 0H88.25V88.25H0V0ZM44.12 20.58C47.761 20.5399 51.3866 21.0593 54.87 22.12C62.82 24.67 68.29 30 68.34 36.12C68.34 44.75 57.52 51.75 44.17 51.75C30.82 51.75 20 44.75 20 36.12C20 30 25.42 24.67 33.37 22.12C36.8535 21.0601 40.479 20.5407 44.12 20.58ZM40.41 36.16C40.5 41.09 42.12 45 44.12 45C46.11 45 47.74 41.12 47.83 36.16C46.64 36.27 45.39 36.33 44.12 36.33C42.85 36.33 41.61 36.27 40.41 36.16ZM44.12 26.44C42.55 26.44 41.2 28.89 40.66 32.34C41.77 32.44 42.92 32.5 44.12 32.5C45.32 32.5 46.48 32.44 47.58 32.34C47.04 28.89 45.69 26.44 44.12 26.44ZM44.08 22.77C46.66 22.77 48.85 26.66 49.66 32.08H49.7C54.61 31.32 58 29.57 58 27.54C58 24.8 51.76 22.54 44.08 22.54C36.4 22.54 30.16 24.8 30.16 27.54C30.16 29.57 33.59 31.32 38.5 32.08C39.31 26.66 41.5 22.77 44.08 22.77ZM26.28 28.29C24.5143 30.3008 23.5218 32.8743 23.48 35.55C23.48 43.09 31.76 49.29 42.37 49.93C40 48.13 38.28 42.88 38.28 36.69V35.93C31.28 34.89 26.28 32.06 26.28 28.73C26.2701 28.5835 26.2701 28.4365 26.28 28.29ZM50.03 36.69C50.03 42.93 48.31 48.13 45.94 49.93C56.49 49.29 64.76 43.09 64.83 35.55C64.7882 32.8743 63.7957 30.3008 62.03 28.29C62.0448 28.4363 62.0448 28.5837 62.03 28.73C62.03 32.06 57.03 34.93 50.03 35.93V36.69ZM46.7861 57.0792C47.7379 56.4453 48.8564 56.108 50 56.11C51.5312 56.1126 52.9988 56.7228 54.0806 57.8065C55.1624 58.8901 55.77 60.3588 55.77 61.89C55.77 63.0336 55.4308 64.1515 54.7952 65.1022C54.1596 66.053 53.2563 66.7938 52.1996 67.231C51.1429 67.6682 49.9802 67.782 48.8587 67.5582C47.7372 67.3344 46.7073 66.7829 45.8994 65.9735C45.0914 65.1642 44.5417 64.1333 44.3198 63.0115C44.0979 61.8896 44.2138 60.7271 44.6529 59.6712C45.0919 58.6152 45.8343 57.7132 46.7861 57.0792ZM51.9361 64.8608C52.3335 64.5369 52.6412 64.1166 52.83 63.64C53.2695 62.5147 53.2695 61.2653 52.83 60.14C52.6412 59.6634 52.3335 59.2431 51.9361 58.9192C51.5387 58.5953 51.0649 58.3787 50.56 58.29C50.1863 58.2234 49.8037 58.2234 49.43 58.29C48.9251 58.3787 48.4513 58.5953 48.0539 58.9192C47.6565 59.2431 47.3488 59.6634 47.16 60.14C46.7205 61.2653 46.7205 62.5147 47.16 63.64C47.3488 64.1166 47.6565 64.5369 48.0539 64.8608C48.4513 65.1847 48.9251 65.4013 49.43 65.49C49.8037 65.5566 50.1863 65.5566 50.56 65.49C51.0649 65.4013 51.5387 65.1847 51.9361 64.8608ZM23.9088 57.0841C24.8593 56.449 25.9768 56.11 27.12 56.11C28.653 56.11 30.1231 56.719 31.2071 57.8029C32.291 58.8869 32.9 60.357 32.9 61.89C32.9 63.0332 32.561 64.1507 31.9259 65.1012C31.2908 66.0517 30.3881 66.7925 29.3319 67.23C28.2758 67.6675 27.1136 67.782 25.9924 67.5589C24.8712 67.3359 23.8413 66.7854 23.0329 65.9771C22.2246 65.1687 21.6741 64.1388 21.4511 63.0176C21.228 61.8964 21.3425 60.7342 21.78 59.6781C22.2175 58.6219 22.9583 57.7192 23.9088 57.0841ZM29.1103 64.8586C29.5059 64.5348 29.8121 64.1153 30 63.64C30.4395 62.5147 30.4395 61.2653 30 60.14C29.8121 59.6646 29.5059 59.2452 29.1103 58.9214C28.7148 58.5976 28.2431 58.3803 27.74 58.29C27.5503 58.2747 27.3597 58.2747 27.17 58.29C26.9803 58.2752 26.7897 58.2752 26.6 58.29C26.0969 58.3803 25.6252 58.5976 25.2297 58.9214C24.8341 59.2452 24.5279 59.6646 24.34 60.14C23.9005 61.2653 23.9005 62.5147 24.34 63.64C24.5279 64.1153 24.8341 64.5348 25.2297 64.8586C25.6252 65.1824 26.0969 65.3997 26.6 65.49C26.7884 65.5215 26.979 65.5382 27.17 65.54C27.361 65.5387 27.5517 65.522 27.74 65.49C28.2431 65.3997 28.7148 65.1824 29.1103 64.8586ZM17.34 58.51H20.8V56.44H11.43V58.51H14.89V67.34H17.34V58.51ZM32.96 56.44H35.85L38.54 61.13L41.24 56.44H44.13L39.77 63.31V67.34H37.32V63.31L32.96 56.44ZM62.19 58.51H65.64V56.44H56.27V58.51H59.73V67.34H62.19V58.51ZM72.4 56.44H69.4L64.98 67.34H67.7L68.6 64.94H73.2L74.1 67.34H76.82L72.4 56.44ZM69.27 63L70.88 58.7L72.49 63H69.27Z" fill="#373833"/>
</g>
<defs>
<clipPath id="clip0">
<rect width="88.25" height="88.25" fill="white"/>
</clipPath>
</defs>
</svg>