<svg width="94" height="58" viewBox="0 0 94 58" fill="none" xmlns="http://www.w3.org/2000/svg">
<g clip-path="url(#clip0)">
<path fill-rule="evenodd" clip-rule="evenodd" d="M70.5671 30.1367C70.1516 33.1293 69.8639 37.0418 67.6905 39.3575C66.934 40.1717 61.0316 43.5872 61.298 40.9542C62.3634 32.7486 62.9814 24.5218 63.4928 16.2527C63.6419 12.7949 63.8443 9.31595 63.8976 5.84759C63.8976 5.266 63.578 3.81732 64.5049 3.7856C66.2522 4.28259 68.1806 4.84303 69.3312 6.32343C71.526 9.22079 71.2703 13.5668 71.3129 16.9929C71.3841 21.3863 71.1349 25.779 70.5671 30.1367ZM58.9967 3.701C57.7821 8.04704 56.3971 13.7466 55.1612 18.1455C54.1704 21.6244 53.0304 26.1079 48.7687 26.6049C48.1295 26.6789 47.4476 26.7318 46.7658 26.7424C46.0962 26.73 45.4277 26.6841 44.7628 26.6049C40.5011 26.1608 39.3398 21.6773 38.3703 18.1984C37.1131 13.7466 35.7281 8.04704 34.5241 3.71158C34.3217 2.9608 34.6307 3.12999 36.1755 2.92908C39.6903 2.57795 43.2236 2.44375 46.7551 2.52726C50.2831 2.44372 53.8128 2.57792 57.324 2.92908C58.8795 3.12999 59.1885 2.92908 58.9754 3.71158L58.9967 3.701ZM54.4048 42.5827C54.0638 42.5827 52.9025 42.5827 51.6134 42.6673C49.994 42.6673 48.4171 42.6673 46.7551 42.6673C45.0931 42.6673 43.5589 42.6673 41.8862 42.6673C40.6077 42.6673 39.4464 42.6673 39.0948 42.5827C38.7432 42.4981 38.3916 42.4981 38.4981 42.1174C38.6047 41.7367 40.1602 36.7457 40.1602 36.7457C41.2256 33.4359 41.2256 33.2139 43.8785 32.7063C45.7735 32.3258 47.7261 32.3258 49.6211 32.7063C52.2526 33.2139 52.3166 33.4359 53.3394 36.7457C53.3394 36.7457 54.8949 41.7262 55.0014 42.1174C55.1079 42.5087 54.7564 42.5192 54.4048 42.5827ZM25.8197 39.3575C23.6889 37.0418 23.3693 33.1293 22.9537 30.1367C22.3718 25.7803 22.119 21.3868 22.1973 16.9929C22.1973 13.5668 21.9842 9.22079 24.1683 6.32343C25.319 4.79016 27.2474 4.28259 29.0053 3.7856C29.9322 3.7856 29.5593 5.266 29.6126 5.90046C29.6126 9.36882 29.8576 12.8478 30.0068 16.3056C30.5288 24.5218 31.1468 32.7803 32.2122 40.9542C32.4999 43.5872 26.5975 40.1717 25.8197 39.3575ZM74.8288 13.2919C74.6263 10.0562 74.1469 6.52434 71.7284 4.13455C69.5336 1.94567 66.4013 1.33236 63.3862 0.962262C57.8694 0.283798 52.314 -0.0376352 46.7551 1.78348e-06C41.1825 -0.0460386 35.6128 0.268331 30.0814 0.941114C27.1195 1.33236 23.9446 1.99854 21.7392 4.1134C19.3207 6.50319 18.8413 10.035 18.6495 13.2707C18.4878 17.0147 18.5554 20.7649 18.8519 24.5006C19.0329 28.2057 19.5535 31.8866 20.4074 35.4979C20.7841 37.1863 21.4469 38.7989 22.3678 40.2669C23.3172 41.6229 24.6263 42.6916 26.15 43.3546C29.3462 44.8139 33.0539 44.9302 36.5165 45.1417C39.9791 45.3531 43.3351 45.48 46.7551 45.5012C50.1751 45.5223 53.5951 45.3531 56.9831 45.1417C60.3711 44.9302 64.1746 44.7716 67.3709 43.3546C68.8906 42.7106 70.2027 41.6644 71.1637 40.3304C72.0889 38.8645 72.7521 37.2512 73.1241 35.5614C73.9815 31.9504 74.5057 28.2694 74.6903 24.5641C74.9672 20.813 75.0134 17.0486 74.8288 13.2919Z" fill="#373833"/>
<path fill-rule="evenodd" clip-rule="evenodd" d="M36.8468 43.0056V42.9422C37.2516 41.2292 37.454 40.3092 37.9122 38.7125C38.3703 37.1158 38.7645 35.9526 39.3718 34.377C39.5846 33.7698 39.9176 33.211 40.3513 32.7334C40.7849 32.2558 41.3104 31.8691 41.8968 31.596C43.4581 31.0344 45.1189 30.7969 46.7764 30.8981V32.4314C44.6456 32.4314 43.3564 32.5688 42.323 33.2244C41.6031 33.724 41.0474 34.4227 40.7249 35.2335C40.1495 36.6717 39.8512 37.6656 39.4357 39.0191C39.0202 40.3727 38.7751 41.134 38.5408 42.0222C38.5408 42.0222 38.5408 42.1491 38.5408 42.2232C38.5283 42.2537 38.5283 42.2878 38.5408 42.3183L37.795 42.6356L37.2729 42.8259L36.8681 42.9528L36.8468 43.0056Z" fill="#373833"/>
<path fill-rule="evenodd" clip-rule="evenodd" d="M33.0965 2.55898C33.7677 5.86873 35.4617 13.5668 35.8133 15.1318C36.1649 16.6968 38.0081 23.5913 39.0095 25.3572C39.4648 26.1681 40.1075 26.8603 40.8847 27.3768C42.2591 28.2439 44.0809 28.4343 46.7125 28.4343V26.5732C44.5817 26.5732 43.2925 26.4992 42.2591 25.833C41.6513 25.4141 41.1424 24.8693 40.7675 24.2363C39.2439 21.9099 38.0187 17.1409 37.3688 14.7194C36.9426 13.1861 34.9077 5.20255 34.4283 3.3309C34.066 3.10884 33.8849 3.03482 33.7357 2.9185C33.5204 2.7625 33.2923 2.62456 33.0539 2.50611L33.0965 2.55898Z" fill="#373833"/>
<path fill-rule="evenodd" clip-rule="evenodd" d="M46.7551 28.5506C40.3626 28.5506 38.7112 27.398 36.1862 16.6968C33.6612 5.99562 33.1178 2.5484 33.1178 2.5484C32.3595 2.66053 31.6139 2.84466 30.8911 3.09827C30.3424 3.23869 29.8557 3.55457 29.506 3.99708C29.4661 11.1395 29.8396 18.2784 30.6247 25.3783C31.9778 39.1249 32.2655 41.5253 32.2655 41.5253C33.2647 42.1327 34.3391 42.609 35.4617 42.9422C35.9123 43.0158 36.3689 43.0476 36.8254 43.0374C37.2455 41.0522 37.7683 39.0899 38.3916 37.1581C39.7766 32.9284 40.0963 30.9827 46.7338 30.9827V28.5506H46.7551Z" fill="#373833"/>
<path fill-rule="evenodd" clip-rule="evenodd" d="M46.7551 30.951C42.7385 30.951 40.906 31.7758 39.9258 33.309C39.2616 34.5465 38.7433 35.8558 38.3809 37.2109C37.8589 38.7971 37.8269 39.1883 37.5712 39.9814C37.3155 40.7745 36.8468 43.0056 36.8468 43.0056C36.1048 43.0054 35.3652 42.9238 34.6413 42.7624C33.7693 42.5046 32.9294 42.1499 32.1376 41.705C32.2113 41.6235 32.2529 41.5184 32.2548 41.4089C32.1376 40.1823 31.1468 30.2742 31.0083 29.1851C30.7952 27.1336 30.9337 28.4766 30.6247 25.3466C30.1986 20.9477 29.9216 17.1832 29.7511 14.0955C29.3995 7.50775 29.506 3.99708 29.506 3.99708C29.8068 3.60942 30.2193 3.32175 30.6887 3.17229C30.8591 3.10884 32.2335 2.51668 32.2655 2.81276C32.2974 3.10884 32.372 3.7433 32.5957 5.06509C32.9367 7.09535 33.6612 10.6166 34.9503 16.2844C34.9503 16.4113 34.9503 16.5276 35.0355 16.6545C36.2927 22.058 36.3567 25.0294 37.795 27.0279C38.2784 27.7306 38.8761 28.3488 39.5636 28.8573C41.0551 29.9147 42.9729 30.5491 46.7551 30.9721V30.951Z" fill="#373833"/>
<path fill-rule="evenodd" clip-rule="evenodd" d="M56.7167 43.0056V42.9422C56.3119 41.2292 56.1094 40.3092 55.6513 38.7125C55.2418 37.2429 54.7546 35.7957 54.1917 34.377C53.9827 33.7678 53.6511 33.2072 53.217 32.7291C52.7829 32.251 52.2555 31.8655 51.6667 31.596C50.1092 31.0341 48.4518 30.7965 46.7977 30.8981V32.4314C48.9285 32.4314 50.207 32.5688 51.2405 33.2244C51.9634 33.7207 52.5201 34.4204 52.8386 35.2335C53.4246 36.6717 53.7123 37.6656 54.1384 39.0191C54.5646 40.3727 54.7883 41.134 55.0227 42.0222C55.0313 42.0889 55.0313 42.1565 55.0227 42.2232C55.0227 42.2232 55.0227 42.2972 55.0227 42.3183C55.5341 42.551 55.6833 42.6038 55.7578 42.6356C55.8324 42.6673 56.0668 42.7413 56.2906 42.8259L56.6954 42.9528L56.7167 43.0056Z" fill="#373833"/>
<path fill-rule="evenodd" clip-rule="evenodd" d="M60.4137 2.55898C59.7425 5.86873 58.0378 13.5668 57.6969 15.1318C57.356 16.6968 55.4915 23.5913 54.4474 25.3572C53.9958 26.1674 53.3568 26.8596 52.5829 27.3768C51.2085 28.2439 49.3867 28.4343 46.7551 28.4343V26.5732C48.8859 26.5732 50.1644 26.4992 51.1979 25.833C51.8064 25.4118 52.3184 24.8677 52.7001 24.2363C54.2237 21.9099 55.4382 17.1409 56.0988 14.7194C56.5249 13.1861 58.5599 5.20255 59.0393 3.3309C59.4016 3.10884 59.572 3.03482 59.7212 2.9185C59.9426 2.76599 60.1739 2.62822 60.4137 2.50611V2.55898Z" fill="#373833"/>
<path fill-rule="evenodd" clip-rule="evenodd" d="M46.7551 28.5506C53.1476 28.5506 54.799 27.398 57.3134 16.6968C59.8277 5.99562 60.3924 2.5484 60.3924 2.5484C61.1471 2.66119 61.8891 2.84532 62.6085 3.09827C63.1591 3.24089 63.6486 3.55613 64.0042 3.99708C64.043 11.1398 63.666 18.2788 62.8748 25.3783C61.5217 39.1249 61.2447 41.5252 61.2447 41.5252C60.2444 42.1305 59.1703 42.6067 58.0485 42.9422C57.5978 43.0157 57.1413 43.0475 56.6848 43.0374C56.6848 43.0374 56.0562 40.0131 55.1186 37.1581C53.7336 32.9283 53.4139 30.9827 46.7764 30.9827V28.5506L46.7551 28.5506Z" fill="#373833"/>
<path fill-rule="evenodd" clip-rule="evenodd" d="M46.7551 30.951C50.7717 30.951 52.6042 31.7758 53.5844 33.309C54.2446 34.5471 54.7593 35.8563 55.1186 37.2109C55.6407 38.7971 55.6833 39.1883 55.9283 39.9814C56.1734 40.7745 56.6635 43.0057 56.6635 43.0057C57.3983 43.0049 58.1308 42.9233 58.8476 42.7624C59.7228 42.5042 60.5662 42.1495 61.3619 41.705C61.3231 41.6662 61.2927 41.6199 61.2726 41.569C61.2524 41.5181 61.2429 41.4636 61.2447 41.4089C61.3619 40.1612 62.3741 30.2425 62.4913 29.1533C62.6937 27.1019 62.5552 28.4449 62.8642 25.3149C63.301 20.916 63.5673 17.1515 63.7378 14.0638C64.1 7.47603 63.9935 3.96536 63.9935 3.96536C63.6848 3.59318 63.274 3.31772 62.8109 3.17229C62.6511 3.10884 61.2767 2.51668 61.2447 2.81276C61.2128 3.10884 61.1382 3.7433 60.9145 5.06509C60.5629 7.09535 59.913 10.5743 58.5599 16.2844C58.5599 16.4113 58.496 16.5276 58.4747 16.6545C57.2068 22.058 57.1535 25.0294 55.7046 27.0279C55.2278 27.7326 54.6333 28.3512 53.9466 28.8573C52.4551 29.9147 50.5373 30.5491 46.7551 30.9721V30.951Z" fill="#373833"/>
<path fill-rule="evenodd" clip-rule="evenodd" d="M17.3712 55.7265C17.3712 55.4622 17.3712 55.293 17.3712 55.0286V49.6992C17.3712 49.3819 17.254 48.8744 17.8933 48.7792L19.4275 48.6417V47.3623H11.0746V48.6417C11.6177 48.662 12.1571 48.7399 12.6834 48.8744C12.8432 48.8744 13.1735 49.0541 13.1735 49.7309V51.6343H6.5466V49.604C6.52744 49.4296 6.56872 49.2539 6.66361 49.1059C6.75851 48.9579 6.90136 48.8464 7.06865 48.7898C7.60408 48.7012 8.14535 48.6517 8.68808 48.6417V47.3623H0.25V48.6417C0.814422 48.672 1.37653 48.7356 1.93335 48.8321C2.42344 48.9484 2.39148 49.4665 2.39148 49.752V55.2613C2.39148 55.8005 2.39148 55.6842 2.39148 55.6842C2.39148 56.1601 1.90139 56.3187 1.53915 56.3293L0.25 56.3821V57.6193H8.68808V56.3821C8.42173 56.3821 7.62267 56.2658 7.22846 56.2129C6.5466 56.1178 6.5466 55.716 6.5466 55.3459V53.5271H13.1735V55.0921C13.1735 55.4304 13.312 56.0755 12.5981 56.1495C11.8843 56.2235 11.2877 56.3398 11.0746 56.3398V57.577H19.4275V56.3821C18.9267 56.3821 18.7456 56.3821 17.7867 56.1918C17.669 56.176 17.56 56.1217 17.477 56.0374C17.394 55.9531 17.3418 55.8437 17.3286 55.7265H17.3712Z" fill="#373833"/>
<path fill-rule="evenodd" clip-rule="evenodd" d="M34.6631 48.388C32.9904 47.3305 30.7637 47.0768 28.4091 47.0768C26.3354 46.9807 24.2711 47.4101 22.4108 48.3245C21.6844 48.7771 21.0804 49.3991 20.6515 50.1363C20.2225 50.8735 19.9816 51.7035 19.9497 52.5542C20.0094 53.3614 20.2474 54.1455 20.647 54.851C21.0466 55.5564 21.5979 56.1659 22.2617 56.6359C23.7532 57.6933 26.0865 57.9683 28.2812 57.9683C30.476 57.9683 32.7453 57.8097 34.4606 56.7628C35.2217 56.354 35.8604 55.753 36.3121 55.0204C36.7639 54.2879 37.0126 53.4499 37.0332 52.5913C37.0537 51.7327 36.8453 50.884 36.4291 50.131C36.0129 49.378 35.4037 48.7475 34.6631 48.3034V48.388ZM24.7334 53.6751C24.5673 53.0835 24.5434 52.4615 24.6637 51.8591C24.7839 51.2567 25.045 50.6907 25.4259 50.2067C26.6512 48.6312 30.2949 48.7369 31.4668 50.2067C31.9021 50.817 32.1602 51.5342 32.2128 52.2801C32.2654 53.026 32.1105 53.7719 31.7651 54.4365C31.03 55.8111 29.6343 56.1072 27.7592 56.0438C27.0554 56.0401 26.374 55.7981 25.8276 55.3578C25.2813 54.9174 24.9028 54.3051 24.7547 53.6222L24.7334 53.6751Z" fill="#373833"/>
<path fill-rule="evenodd" clip-rule="evenodd" d="M49.4509 47.3411V48.6417C51.3153 48.6417 51.5178 49.0964 51.5178 50.2702V55.2295L45.381 47.3623H37.6567V48.5994C38.605 48.5994 39.7876 48.9696 39.7876 50.2279V54.7748C39.7236 56.012 39.7876 56.361 37.742 56.4244V57.6616H44.1345V56.4033C42.1208 56.4033 42.1421 55.7794 42.1421 54.5845V49.9847L48.1937 57.7568H53.9576V50.8095C53.9343 50.3732 53.9702 49.9357 54.0641 49.5088C54.2878 48.7052 54.9697 48.684 56.0671 48.5783V47.3411H49.4509Z" fill="#373833"/>
<path fill-rule="evenodd" clip-rule="evenodd" d="M72.2935 48.6418C71.5599 48.1942 70.7573 47.8691 69.9176 47.6795C68.6846 47.4251 67.4264 47.3115 66.1674 47.3411H56.877V48.6418L58.3046 48.7792C58.4995 48.8224 58.671 48.9365 58.7853 49.0989C58.8997 49.2614 58.9487 49.4604 58.9225 49.6569V55.5679C58.9079 55.7094 58.8585 55.8451 58.7786 55.9631C58.6987 56.0811 58.5908 56.1778 58.4644 56.2447C57.9494 56.3937 57.4126 56.4545 56.877 56.4244V57.6616H64.5053C66.1238 57.6925 67.7427 57.6254 69.353 57.4607C70.8831 57.2666 72.2852 56.5124 73.2843 55.3459C73.9414 54.4916 74.2802 53.438 74.2432 52.3639C74.2533 51.6319 74.0806 50.9088 73.7403 50.2593C73.4001 49.6098 72.903 49.054 72.2935 48.6418ZM69.3743 52.3322C69.4488 53.8443 69.1931 55.9063 65.8264 55.7477H62.8007V49.3608H65.9969C66.8662 49.264 67.7396 49.5025 68.4367 50.027C68.7663 50.318 69.0248 50.6797 69.1928 51.0845C69.3608 51.4894 69.4338 51.9269 69.4062 52.3639L69.3743 52.3322Z" fill="#373833"/>
<path fill-rule="evenodd" clip-rule="evenodd" d="M77.1302 47.3517V48.6417C77.1302 48.6417 80.2199 48.4091 78.8775 50.4182L76.4164 54.4576C75.6386 55.6737 75.3509 56.3927 73.4438 56.4033V57.6405H80.156V56.4033C79.2504 56.3398 77.9079 56.1812 78.6644 55.0392C78.6644 55.0392 79.0053 54.5316 79.0053 54.4999H85.483L85.8666 55.0286C86.932 56.583 84.3111 56.3927 84.3111 56.3927V57.6299H93.2179V56.4033C91.7583 56.4033 91.4493 56.1495 90.9273 55.3459L85.3552 47.3517H77.1302ZM79.9109 52.7869L82.1589 49.3079L84.4709 52.7869H79.9109Z" fill="#373833"/>
</g>
<defs>
<clipPath id="clip0">
<rect x="0.25" width="93" height="58" fill="white"/>
</clipPath>
</defs>
</svg>