<svg width="58" height="69" viewBox="0 0 58 69" fill="none" xmlns="http://www.w3.org/2000/svg">
<g clip-path="url(#clip0)">
<path d="M20.8435 14.5948C21.3705 12.8613 22.6991 13.7448 22.6991 13.7448C22.6991 13.7448 26.1728 16.4028 35.6882 22.4905C45.2037 28.5782 57.1129 20.1307 57.1129 20.1307L28.9079 0C16.5348 13.1707 0.702941 17.894 0.702941 17.894H0.747475L36.7979 43.2886C36.2709 45.022 34.9423 44.1385 34.9423 44.1385C34.9423 44.1385 31.4686 41.4805 21.9532 35.3928C12.4377 29.3052 0.532227 37.7712 0.532227 37.7712L28.7372 57.902C41.1065 44.7313 56.9422 40.008 56.9422 40.008H56.8939L20.8435 14.5948Z" fill="#373833"/>
<path d="M0.25 65.8946L4.58837 65.917C4.66259 66.3271 4.54755 66.3271 4.77393 66.5396C4.96437 66.6943 5.18694 66.804 5.42523 66.8608C5.66352 66.9176 5.91146 66.9199 6.15077 66.8676C6.52189 66.8005 7.1231 66.685 7.15279 66.2078C7.18248 65.7306 6.82621 65.5144 6.38087 65.4622C5.76481 65.3802 5.14133 65.3578 4.52528 65.2609C2.94432 64.9999 2.10188 64.8881 1.42644 64.4519C0.751009 64.0158 0.684208 63.0763 0.684208 62.4053C0.691842 61.9313 0.878959 61.4781 1.20748 61.1378C1.64011 60.6964 2.18194 60.3785 2.77731 60.217C3.71412 59.962 4.68334 59.8477 5.65348 59.8778C7.13795 59.8778 8.28841 60.0828 9.07147 60.4892C9.85453 60.8955 10.3221 61.8014 10.4706 62.6886H6.78168C6.80765 62.6364 6.70745 62.3979 6.69261 62.3382C6.55158 61.8238 6.058 61.6746 5.57925 61.5703C5.18495 61.4593 4.76348 61.5019 4.3991 61.6896C4.18756 61.82 4.02798 61.9617 4.02798 62.1481C4.03596 62.2278 4.06444 62.3041 4.11063 62.3695C4.15683 62.4349 4.21915 62.487 4.29147 62.5209C4.6758 62.6925 5.08597 62.7983 5.50503 62.834C6.65655 62.9818 7.79286 63.2313 8.90076 63.5796C9.46892 63.7626 9.98031 64.09 10.3852 64.5302C10.6877 64.8825 10.8537 65.3325 10.8528 65.7977C10.8449 66.3659 10.622 66.9097 10.2294 67.3187C9.75437 67.8196 9.15473 68.1838 8.49253 68.3737C7.57905 68.6404 6.63053 68.7661 5.67946 68.7465C3.70016 68.7465 2.32331 68.4657 1.54891 67.904C1.19666 67.6879 0.897121 67.3952 0.672333 67.0475C0.447546 66.6997 0.303229 66.3058 0.25 65.8946H0.25Z" fill="#373833"/>
<path d="M17.8561 60.053H21.0625V66.1071C21.0625 67.3498 20.2943 68.2308 18.7579 68.7502C17.9319 68.9627 17.0781 69.0457 16.2269 68.9963C15.4361 69.0395 14.643 68.9818 13.8666 68.8248C12.1743 68.1463 11.3281 67.2404 11.3281 66.1071V60.053H14.5568V65.2385C14.5568 66.1817 14.6793 66.8863 16.2269 66.8863C17.7744 66.8863 17.8338 66.1407 17.8338 65.2087L17.8561 60.053Z" fill="#373833"/>
<path d="M38.8239 60.053H42.0303V66.1071C42.0303 67.3498 41.2621 68.2308 39.7257 68.7502C38.8997 68.9627 38.0459 69.0457 37.1947 68.9963C36.4038 69.0395 35.6108 68.9818 34.8343 68.8248C33.142 68.1463 32.2959 67.2404 32.2959 66.1071V60.053H35.5246V65.2385C35.5246 66.1817 35.6471 66.8863 37.1947 66.8863C38.7422 66.8863 38.8016 66.1407 38.8016 65.2087L38.8239 60.053Z" fill="#373833"/>
<path d="M21.7227 60.1164H31.6538V61.9803L26.8033 66.3569H31.6538V68.795H21.7227V66.6999L26.4618 62.3792H21.7301L21.7227 60.1164Z" fill="#373833"/>
<path d="M42.8247 68.7801V60.0977H46.0089V63.3112L49.4417 60.0977H53.4275L48.8665 64.3066L53.628 68.7801H49.3193L46.0386 65.6747L46.072 68.7801H42.8247Z" fill="#373833"/>
<path d="M57.2499 60.0977V68.7801H54.062V60.0977H57.2499Z" fill="#373833"/>
</g>
<defs>
<clipPath id="clip0">
<rect x="0.25" width="57" height="69" fill="white"/>
</clipPath>
</defs>
</svg>