<svg width="59" height="58" viewBox="0 0 59 58" fill="none" xmlns="http://www.w3.org/2000/svg">
<path fill-rule="evenodd" clip-rule="evenodd" d="M40.3723 3.51788C35.253 1.39633 29.6196 0.840751 24.1846 1.92141C18.7496 3.00208 13.7572 5.67043 9.83882 9.58895C5.92046 13.5075 3.25223 18.5001 2.17162 23.9353C1.09101 29.3705 1.64656 35.0041 3.76801 40.1236C5.88946 45.243 9.48149 49.6182 14.0898 52.6958C18.698 55.7734 24.1155 57.4151 29.6569 57.4133C37.0834 57.4108 44.2049 54.4594 49.4562 49.2079C54.7075 43.9564 57.6588 36.8345 57.6613 29.4078C57.6631 23.8662 56.0215 18.4485 52.944 13.8401C49.8665 9.23161 45.4915 5.63942 40.3723 3.51788ZM52.1124 14.3954C55.08 18.8394 56.663 24.0637 56.6613 29.4075C56.6589 36.5691 53.813 43.4368 48.7491 48.5008C43.6853 53.5649 36.8179 56.4109 29.6566 56.4133C24.313 56.4151 19.0889 54.832 14.6451 51.8642C10.2014 48.8965 6.73755 44.6774 4.69183 39.7407C2.6461 34.804 2.11038 29.3715 3.15242 24.1303C4.19446 18.8891 6.76746 14.0747 10.5459 10.296C14.3244 6.5174 19.1386 3.9443 24.3796 2.90221C29.6206 1.86013 35.0529 2.39587 39.9894 4.44169C44.9259 6.4875 49.1448 9.95146 52.1124 14.3954Z" fill="#373833"/>
<path fill-rule="evenodd" clip-rule="evenodd" d="M56.0171 29.4074C56.0175 24.193 54.4717 19.0955 51.5751 14.7596C48.6785 10.4237 44.5612 7.04427 39.744 5.04857C34.9267 3.05287 29.6258 2.53058 24.5117 3.54777C19.3976 4.56495 14.7 7.07591 11.013 10.7631C7.32596 14.4503 4.8151 19.1481 3.79796 24.2624C2.78082 29.3767 3.30308 34.6778 5.2987 39.4953C7.29431 44.3127 10.6736 48.4302 15.0093 51.3269C19.345 54.2236 24.4423 55.7695 29.6566 55.7691C36.6476 55.7685 43.3522 52.9909 48.2956 48.0473C53.239 43.1036 56.0165 36.3988 56.0171 29.4074ZM27.2315 6.8883L28.9696 11.8315H30.3438L32.0819 6.8883L32.265 11.8315L34.1884 12.105L33.9126 4.6913L31.4423 4.41555L29.6567 9.63453L27.8712 4.41555L25.4008 4.6913L25.125 12.105L27.0485 11.8315L27.2315 6.8883ZM45.8599 10.1002L47.2318 11.375L44.6597 14.7541L48.7778 12.8667L49.9779 14.3653L47.2341 17.9704L51.0945 16.1984L52.037 17.819L45.3491 20.8885L44.4043 19.2678L47.6635 14.9891L42.7747 17.2313L41.4028 15.9565L45.8599 10.1002ZM17.8653 13.6547C18.0713 13.9315 18.2035 14.2561 18.2495 14.5981C18.2758 14.8569 18.2535 15.1182 18.1839 15.3689C18.067 15.782 17.7958 16.1101 17.5253 16.4373L17.5253 16.4373C17.4717 16.5021 17.4181 16.5669 17.3658 16.6323L13.9958 20.8455L13.8828 20.9856C13.876 20.9947 13.8241 20.945 13.8241 20.945L13.2545 20.4929L8.16229 16.4176C8.15777 16.4131 8.09222 16.3589 8.09222 16.3589L8.19393 16.2323L11.5232 12.0734L11.8645 11.6439C12.0733 11.3838 12.3508 11.1873 12.6655 11.0767C12.9802 10.9661 13.3196 10.9457 13.6453 11.0179C13.971 11.0901 14.27 11.252 14.5085 11.4852C14.7469 11.7185 14.9154 12.0138 14.9948 12.3378C15.0736 12.6729 15.0587 13.0232 14.9519 13.3504C14.9699 13.3362 14.9883 13.3208 15.0069 13.3052C15.0327 13.2836 15.059 13.2616 15.0852 13.2419C15.3679 13.0343 15.7 12.9042 16.0485 12.8646C16.397 12.8249 16.7498 12.8771 17.0719 13.0159C17.3863 13.1581 17.6593 13.378 17.8653 13.6547ZM10.7208 16.013L11.6498 16.7567L11.6656 16.7476L12.5696 15.6062L13.4737 14.476C13.6438 14.3036 13.7768 14.0982 13.8647 13.8725C13.8964 13.7405 13.8959 13.6029 13.8632 13.4711C13.8306 13.3393 13.7668 13.2173 13.6771 13.1154C13.5622 12.9905 13.4119 12.9037 13.2463 12.8666C13.0807 12.8294 12.9077 12.8437 12.7505 12.9074C12.5367 13.0227 12.3567 13.1917 12.2284 13.3979L10.4948 15.5632C10.4858 15.5723 10.366 15.7282 10.366 15.7282L10.7208 16.013ZM15.6435 16.603L16.2289 15.8684L16.247 15.8526C16.3509 15.7308 16.4171 15.5813 16.4373 15.4225C16.4576 15.2636 16.431 15.1024 16.361 14.9584C16.2909 14.8144 16.1804 14.694 16.0429 14.612C15.9054 14.5299 15.747 14.4897 15.587 14.4964C15.4532 14.5034 15.3226 14.5405 15.2052 14.6051C15.0878 14.6697 14.9865 14.76 14.9089 14.8693L14.1947 15.7734L12.7301 17.6043L13.4918 18.2145L13.9235 18.5762L14.0049 18.644C14.0094 18.6463 14.0275 18.6214 14.0275 18.6214C14.5639 17.9463 15.1026 17.2735 15.6435 16.603ZM43.3577 20.2525C45.1679 22.9625 46.1338 26.1484 46.1334 29.4074C46.1328 33.7771 44.3966 37.9677 41.3067 41.0573C38.2167 44.1469 34.0262 45.8826 29.6567 45.8826C26.3978 45.8826 23.2121 44.9162 20.5024 43.1055C17.7928 41.2948 15.6809 38.7213 14.4339 35.7103C13.1869 32.6993 12.8607 29.3861 13.4967 26.1898C14.1326 22.9934 15.7021 20.0574 18.0066 17.7531C20.3112 15.4488 23.2473 13.8796 26.4436 13.2441C29.6399 12.6086 32.9529 12.9352 35.9636 14.1827C38.9743 15.4302 41.5475 17.5425 43.3577 20.2525Z" fill="#373833"/>
<path fill-rule="evenodd" clip-rule="evenodd" d="M29.6566 13.7641C25.5427 13.8737 21.6275 15.5572 18.7177 18.4675C15.8079 21.3778 14.1252 25.2934 14.0161 29.4075H29.6566V13.7641Z" fill="#373833"/>
<path fill-rule="evenodd" clip-rule="evenodd" d="M29.6566 45.0486C33.7703 44.9395 37.6855 43.2566 40.5953 40.3466C43.5052 37.4366 45.188 33.5213 45.2971 29.4075L29.6566 29.4075L29.6566 45.0486Z" fill="#373833"/>
</svg>