<svg width="99" height="48" viewBox="0 0 99 48" fill="none" xmlns="http://www.w3.org/2000/svg">
<g clip-path="url(#clip0)">
<path d="M49.25 0C22.188 0 0.25 10.7455 0.25 24C0.25 37.2545 22.188 48 49.25 48C76.312 48 98.25 37.2545 98.25 24C98.25 10.7455 76.312 0 49.25 0ZM49.25 44.9769C25.3966 44.9769 5.99486 35.5663 5.99486 24C5.99486 12.4337 25.3966 3.0255 49.25 3.0255C73.1034 3.0255 92.5088 12.4337 92.5088 24C92.5088 35.5663 73.0997 44.9769 49.25 44.9769Z" fill="#373833"/>
<path fill-rule="evenodd" clip-rule="evenodd" d="M44.4855 13.2425H45.2751C45.4047 13.2425 45.5291 13.2928 45.6208 13.3823C45.7125 13.4718 45.764 13.5932 45.764 13.7197V35.6594C45.7632 35.7271 45.7762 35.7944 45.8024 35.8571C45.8286 35.9199 45.8674 35.9769 45.9165 36.0248C45.9656 36.0727 46.024 36.1105 46.0882 36.1361C46.1525 36.1616 46.2214 36.1744 46.2908 36.1736H52.1775C52.2471 36.1747 52.3162 36.1622 52.3808 36.1368C52.4454 36.1114 52.504 36.0736 52.5534 36.0256C52.6027 35.9777 52.6417 35.9206 52.6681 35.8577C52.6944 35.7948 52.7075 35.7273 52.7067 35.6594V12.2881C52.7064 12.1512 52.6505 12.02 52.5513 11.9232C52.4522 11.8264 52.3177 11.7719 52.1775 11.7715H44.4769C44.3999 11.7715 44.3999 11.8431 44.3999 11.8992V13.1185C44.4085 13.165 44.4085 13.2425 44.4855 13.2425Z" fill="#373833"/>
<path fill-rule="evenodd" clip-rule="evenodd" d="M57.7572 36.1724H63.5363C63.6893 36.1611 63.8358 36.1074 63.9586 36.0175C64.0813 35.9277 64.1753 35.8055 64.2293 35.6654L69.1601 20.52C69.1601 20.52 69.2164 20.3088 69.4046 20.3088C69.5928 20.3088 69.6393 20.5188 69.6417 20.52L74.6239 35.6713C74.6778 35.8123 74.7722 35.935 74.8957 36.025C75.0193 36.1149 75.1668 36.1681 75.3206 36.1784H81.0972C81.1711 36.181 81.2445 36.1661 81.3112 36.135C81.3778 36.1038 81.4357 36.0573 81.4798 35.9994C81.5271 35.935 81.5594 35.8612 81.5744 35.7833C81.5894 35.7054 81.5868 35.6252 81.5666 35.5484L73.5238 12.1127C73.4016 11.8097 73.085 11.7715 72.8259 11.7715H63.5937C63.5595 11.773 63.5271 11.7869 63.5029 11.8105C63.4787 11.8342 63.4644 11.8658 63.4629 11.8992V13.1185C63.4669 13.1502 63.4822 13.1795 63.5061 13.2013C63.53 13.2231 63.561 13.236 63.5937 13.2378H64.2733C64.5679 13.2378 64.7623 13.406 64.7623 13.6577C64.7591 13.7524 64.7396 13.846 64.7048 13.9345L57.2854 35.5449C57.2644 35.6209 57.2614 35.7006 57.2767 35.7779C57.2919 35.8552 57.325 35.9281 57.3734 35.9911C57.4179 36.049 57.4759 36.0957 57.5427 36.1272C57.6095 36.1588 57.683 36.1743 57.7572 36.1724Z" fill="#373833"/>
<path fill-rule="evenodd" clip-rule="evenodd" d="M18.4346 13.2425C18.5642 13.2425 18.6886 13.2928 18.7803 13.3823C18.872 13.4718 18.9235 13.5932 18.9235 13.7197V35.6594C18.9223 35.727 18.9351 35.7942 18.961 35.8569C18.9869 35.9197 19.0255 35.9767 19.0744 36.0246C19.1233 36.0726 19.1815 36.1104 19.2456 36.136C19.3098 36.1616 19.3786 36.1744 19.4479 36.1736H25.1707C25.3099 36.1729 25.4432 36.1185 25.5412 36.0221C25.6393 35.9257 25.6942 35.7952 25.6939 35.6594V26.4314C25.6939 26.2309 25.788 26.1152 25.9554 26.1152C26.033 26.1188 26.1081 26.1429 26.1727 26.1849C26.2373 26.2269 26.289 26.2853 26.3221 26.3538C26.3289 26.3656 26.3367 26.3768 26.3454 26.3872L33.0864 35.6164C33.304 35.9362 33.6976 36.1772 34.0044 36.1772H40.7992C40.8918 36.1722 40.9812 36.1421 41.0574 36.0904C41.1335 36.0386 41.1934 35.9672 41.2303 35.8841C41.2672 35.801 41.2797 35.7095 41.2664 35.6199C41.2531 35.5303 41.2145 35.4461 41.1549 35.3766L32.5486 23.4965C32.5241 23.4607 32.5131 23.4381 32.4973 23.4118C32.4772 23.3788 32.4624 23.343 32.4533 23.3057C32.4452 23.2801 32.4403 23.2536 32.4386 23.2269C32.4498 23.1185 32.4852 23.0138 32.5425 22.9203L32.5486 22.9072L39.7407 12.5136C39.7861 12.4388 39.81 12.3535 39.81 12.2666C39.81 12.1797 39.7861 12.0944 39.7407 12.0197C39.7007 11.9455 39.6411 11.8832 39.5679 11.8394C39.4948 11.7955 39.4109 11.7716 39.3251 11.7703H32.8774C32.5718 11.7703 32.1746 12.0089 31.9533 12.3311L26.3454 20.0702C26.1706 20.3231 25.9994 20.3374 25.9664 20.3374C25.9311 20.34 25.8956 20.335 25.8625 20.3228C25.8293 20.3107 25.7992 20.2916 25.7743 20.267C25.7495 20.2424 25.7304 20.2128 25.7184 20.1802C25.7064 20.1477 25.7018 20.113 25.7049 20.0785V12.2881C25.7055 12.1519 25.6508 12.0211 25.5527 11.9242C25.4547 11.8274 25.3212 11.7725 25.1817 11.7715H17.6425C17.6082 11.7727 17.5756 11.7865 17.5514 11.8102C17.5271 11.8339 17.5129 11.8657 17.5117 11.8992V13.1185C17.5152 13.1504 17.5304 13.18 17.5544 13.2019C17.5784 13.2238 17.6097 13.2365 17.6425 13.2378L18.4346 13.2425Z" fill="#373833"/>
</g>
<defs>
<clipPath id="clip0">
<rect x="0.25" width="98" height="48" fill="white"/>
</clipPath>
</defs>
</svg>