<svg xmlns="http://www.w3.org/2000/svg" xmlns:xlink="http://www.w3.org/1999/xlink" role="img" aria-hidden="true" viewBox="0 0 84 98"><defs><path id="a" d="M80.881 24.516l2.533 7.265c.132.379.148.788.046 1.176l-.103.394-.293 1.115a33519.216 33519.216 0 00-4.221 16.07C76.349 60.041 74.715 66.3 74.32 67.86c-2.143 8.49-3.842 11.437-9.337 15.318-4.814 3.4-14.858 10.224-16.79 11.435-.184.116-.388.251-.659.435-.105.071-.615.421-.762.52-.938.638-1.608 1.046-2.33 1.383-.915.428-1.791.666-2.68.666-.888 0-1.764-.238-2.68-.666-.721-.337-1.39-.745-2.33-1.382l-.761-.521c-.27-.184-.475-.319-.66-.435-1.93-1.211-11.976-8.034-16.79-11.435-5.494-3.881-7.194-6.828-9.336-15.318-.394-1.56-2.029-7.818-4.504-17.253a29641.234 29641.234 0 00-4.239-16.14L.17 33.351l-.104-.394a2.015 2.015 0 01.046-1.176l2.533-7.265-1.9-4.684a2.014 2.014 0 01.39-2.128l.495-.529a290.988 290.988 0 015.715-5.907c1.427-1.431 3.346-2.203 5.589-2.466 1.756-.207 3.585-.093 5.36.219.097.017.192.034.284.052L25.946.682C26.326.248 26.874 0 27.45 0h28.627c.575 0 1.124.248 1.504.682l7.368 8.39.284-.051c1.775-.312 3.604-.426 5.36-.22 2.243.264 4.162 1.036 5.588 2.468a290.989 290.989 0 016.081 6.296c.662.712.815 1.542.52 2.267l-1.9 4.684zm-4.034.61a2.015 2.015 0 01.035-1.421l1.702-4.192a287.033 287.033 0 00-5.239-5.404c-.707-.71-1.8-1.148-3.22-1.315-1.315-.155-2.776-.064-4.2.186a16.368 16.368 0 00-1.16.248 2.001 2.001 0 01-2.043-.608l-7.551-8.6H28.356l-7.552 8.6a2.001 2.001 0 01-2.041.608 16.368 16.368 0 00-1.161-.248c-1.424-.25-2.885-.341-4.2-.186-1.421.167-2.513.606-3.22 1.315a287.033 287.033 0 00-5.239 5.404l1.702 4.192c.184.453.196.959.035 1.42L4.1 32.528A25263.416 25263.416 0 018.56 49.514c2.5 9.53 4.133 15.78 4.532 17.36 1.927 7.637 3.154 9.765 7.759 13.017 4.759 3.362 14.75 10.15 16.607 11.314.234.147.475.306.783.515l.76.52c.774.525 1.294.842 1.774 1.067.428.2.76.29.987.29.229 0 .56-.09.987-.29.48-.225 1-.542 1.775-1.068.137-.092.646-.441.76-.519.307-.209.549-.368.782-.515 1.857-1.165 11.849-7.952 16.608-11.314 4.604-3.252 5.832-5.38 7.76-13.018.397-1.578 2.03-7.83 4.512-17.29a29483.366 29483.366 0 014.48-17.056l-2.58-7.401zM61.94 17.179S72.424 29.9 72.424 32.619c0 2.719-1.318 3.437-2.644 4.85l-7.86 8.379c-.745.793-2.293 1.995-1.382 4.158.91 2.163 2.254 4.916.76 7.708-1.494 2.793-4.054 4.656-5.694 4.348-1.64-.308-5.491-2.329-6.908-3.252-1.416-.923-5.905-4.64-5.905-6.061 0-1.422 4.64-3.975 5.497-4.555.858-.58 4.768-2.825 4.848-3.706.08-.882.05-1.14-1.104-3.318-1.154-2.177-3.232-5.083-2.886-7.017.345-1.933 3.697-2.938 6.089-3.845 2.392-.907 6.997-2.619 7.572-2.885.575-.267.426-.52-1.316-.686-1.743-.166-6.688-.825-8.917-.201-2.23.624-6.039 1.573-6.347 2.076-.309.503-.581.52-.264 2.256.317 1.737 1.948 10.067 2.106 11.547.159 1.48.468 2.458-1.121 2.822-1.59.365-4.265.999-5.185.999-.919 0-3.595-.634-5.184-.999-1.59-.364-1.28-1.343-1.122-2.822.159-1.48 1.79-9.81 2.107-11.547.317-1.736.044-1.753-.264-2.256-.308-.503-4.118-1.452-6.347-2.076-2.23-.624-7.174.035-8.917.2-1.743.167-1.891.42-1.316.687.575.266 5.18 1.978 7.572 2.885 2.391.907 5.743 1.912 6.09 3.845.345 1.934-1.733 4.84-2.887 7.017-1.154 2.178-1.185 2.436-1.105 3.318.08.88 3.99 3.126 4.848 3.706.858.58 5.498 3.133 5.498 4.555 0 1.422-4.49 5.138-5.906 6.061-1.416.923-5.268 2.944-6.908 3.252-1.64.308-4.2-1.555-5.693-4.348-1.494-2.792-.15-5.545.76-7.708.91-2.163-.638-3.365-1.381-4.158l-7.861-8.379c-1.326-1.413-2.645-2.131-2.645-4.85s10.484-15.44 10.484-15.44 8.846 1.696 10.039 1.696c1.193 0 3.777-.998 6.163-1.796 2.385-.798 3.975-.804 3.975-.804s1.59.006 3.976.804 4.97 1.796 6.163 1.796c1.193 0 10.039-1.696 10.039-1.696zM54.08 65.84c.65.408.254 1.177-.337 1.596-.591.42-8.535 6.594-9.306 7.277-.771.683-1.904 1.81-2.675 1.81-.77 0-1.903-1.127-2.674-1.81-.771-.683-8.715-6.858-9.306-7.277-.591-.42-.987-1.188-.338-1.596.649-.408 2.68-1.437 5.48-2.892 2.802-1.455 6.293-2.693 6.838-2.693.545 0 4.036 1.238 6.838 2.693 2.801 1.455 4.832 2.484 5.48 2.892z"/></defs><use fill="currentColor" transform="translate(.148 .223)" xlink:href="#a"/></svg>
