<svg width="90" height="84" viewBox="0 0 90 84" fill="none" xmlns="http://www.w3.org/2000/svg">
<g filter="url(#filter0_d)">
<path d="M61.0111 39.9494H56.8836V36.3202C56.8836 35.7628 56.4317 35.3115 55.8749 35.3115H30.7206V31.2372C35.0411 30.8048 38.4262 27.148 38.4262 22.7152V10.0173H40.5666C41.1241 10.0173 41.5753 9.56614 41.5753 9.00867C41.5753 8.45121 41.1241 8 40.5666 8H19.1565C18.599 8 18.1478 8.45121 18.1478 9.00867C18.1478 9.56614 18.599 10.0173 19.1565 10.0173H21.2962V22.7152C21.2962 27.0445 24.528 30.6246 28.7032 31.1928V35.3115H13.3485C12.7911 35.3115 12.3398 35.7628 12.3398 36.3202V45.5967C12.3398 46.1535 12.7911 46.6053 13.3485 46.6053H23.4951L14.8602 66.5912C14.7257 66.9026 14.7566 67.2617 14.9436 67.5454C15.1305 67.8292 15.4472 68 15.7861 68H24.7882C25.191 68 25.5548 67.7613 25.7142 67.3914L34.6874 46.6235C34.6901 46.6174 34.6907 46.6114 34.6927 46.606H55.8749C56.4317 46.606 56.8836 46.1541 56.8836 45.5973V41.9675H61.0111C61.5679 41.9675 62.0198 41.5156 62.0198 40.9588C62.0198 40.402 61.5679 39.9494 61.0111 39.9494ZM23.3136 22.7152V10.0173H36.4088V22.7152C36.4088 26.3256 33.4716 29.2629 29.8612 29.2629C26.2508 29.2629 23.3136 26.3256 23.3136 22.7152ZM14.3572 37.3289H19.2217V44.588H14.3572V37.3289ZM24.1252 65.9827H17.3207L25.6846 46.6235C25.6873 46.6174 25.688 46.6114 25.69 46.606H32.4965L24.1252 65.9827ZM54.8662 44.588H21.239V37.3289H54.8662V44.588Z" fill="#F81717"/>
<path d="M65.6339 38.3744C65.8921 38.3744 66.1503 38.2762 66.3474 38.0791L72.702 31.7245C73.0961 31.3311 73.0961 30.6916 72.702 30.2982C72.308 29.9042 71.6698 29.9042 71.2757 30.2982L64.9211 36.6529C64.527 37.0463 64.527 37.6858 64.9211 38.0791C65.1174 38.2762 65.3757 38.3744 65.6339 38.3744Z" fill="#F81717"/>
<path d="M76.6515 39.9492H67.6649C67.1081 39.9492 66.6562 40.4011 66.6562 40.9579C66.6562 41.5147 67.1081 41.9666 67.6649 41.9666H76.6515C77.2083 41.9666 77.6602 41.5147 77.6602 40.9579C77.6602 40.4011 77.2083 39.9492 76.6515 39.9492Z" fill="#F81717"/>
<path d="M66.3474 43.8368C65.9533 43.4427 65.3151 43.4427 64.9211 43.8368C64.527 44.2309 64.527 44.869 64.9211 45.2631L71.2757 51.6177C71.4728 51.8147 71.731 51.9129 71.9892 51.9129C72.2474 51.9129 72.5057 51.8147 72.7027 51.6177C73.0967 51.2237 73.0967 50.5855 72.7027 50.1915L66.3474 43.8368Z" fill="#F81717"/>
</g>
<defs>
<filter id="filter0_d" x="0.339844" y="0" width="89.3204" height="84" filterUnits="userSpaceOnUse" color-interpolation-filters="sRGB">
<feFlood flood-opacity="0" result="BackgroundImageFix"/>
<feColorMatrix in="SourceAlpha" type="matrix" values="0 0 0 0 0 0 0 0 0 0 0 0 0 0 0 0 0 0 127 0"/>
<feOffset dy="4"/>
<feGaussianBlur stdDeviation="6"/>
<feColorMatrix type="matrix" values="0 0 0 0 1 0 0 0 0 0.301961 0 0 0 0 0.301961 0 0 0 0.5 0"/>
<feBlend mode="normal" in2="BackgroundImageFix" result="effect1_dropShadow"/>
<feBlend mode="normal" in="SourceGraphic" in2="effect1_dropShadow" result="shape"/>
</filter>
</defs>
</svg>
