<svg xmlns="http://www.w3.org/2000/svg" fill="none" viewBox="0 0 66 60"><path fill="#F81717" d="M49.011 31.95h-4.127v-3.63c0-.557-.452-1.009-1.01-1.009H18.722v-4.074c4.32-.432 7.705-4.089 7.705-8.522V2.017h2.14a1.008 1.008 0 100-2.017H7.157a1.008 1.008 0 100 2.017h2.14v12.698c0 4.33 3.232 7.91 7.407 8.478v4.118H1.35c-.558 0-1.01.452-1.01 1.01v9.276c0 .556.452 1.008 1.01 1.008h10.146L2.86 58.591A1.008 1.008 0 003.786 60h9.002c.403 0 .767-.239.926-.609l8.973-20.767.006-.018h21.182a1.01 1.01 0 001.009-1.009v-3.63h4.127a1.01 1.01 0 000-2.018zM11.314 14.714V2.017h13.095v12.698a6.555 6.555 0 01-6.548 6.548 6.555 6.555 0 01-6.547-6.548zM2.357 29.33h4.865v7.259H2.357v-7.26zm9.768 28.654H5.321l8.364-19.36.005-.017h6.807l-8.372 19.377zm30.741-21.395H9.24v-7.26h33.627v7.26zM53.634 30.374c.258 0 .516-.098.713-.295l6.355-6.355a1.008 1.008 0 10-1.426-1.426l-6.355 6.355a1.008 1.008 0 00.713 1.721zM64.651 31.95h-8.986a1.01 1.01 0 000 2.017h8.986a1.01 1.01 0 000-2.018zM54.347 35.837a1.008 1.008 0 10-1.426 1.426l6.355 6.355a1.006 1.006 0 001.427 0 1.008 1.008 0 000-1.427l-6.356-6.354z"/></svg>