<svg width="64" height="84" viewBox="0 0 64 84" fill="none" xmlns="http://www.w3.org/2000/svg">
<g filter="url(#filter0_d)">
<path d="M48.7675 62.7383V59.1432H48.7875C50.0965 59.1432 51.161 58.0786 51.161 56.7697V48.2573C51.161 46.9483 50.0965 45.8838 48.7875 45.8838H48.7675V31.222H48.7875C50.0965 31.222 51.161 30.1575 51.161 28.8486V20.3355C51.161 19.0266 50.0965 17.962 48.7875 17.962H48.7675V13.2611C48.7675 10.3602 45.9921 8 42.5807 8L21.4193 8C18.0079 8 15.2325 10.3602 15.2325 13.2611V17.962H15.2124C13.9035 17.962 12.839 19.0266 12.839 20.3355V28.8486C12.839 30.1575 13.9035 31.222 15.2124 31.222H15.2325L15.2325 45.8838H15.2124C13.9035 45.8838 12.839 46.9483 12.839 48.2573V56.7709C12.839 58.0792 13.9035 59.1438 15.2124 59.1438H15.2325V62.7389C15.2325 65.6398 18.0079 68 21.4193 68H42.5807C45.9921 67.9994 48.7675 65.6398 48.7675 62.7383ZM48.7875 47.7025C49.0931 47.7025 49.3423 47.9511 49.3423 48.2573V56.7703C49.3423 57.0765 49.0931 57.325 48.7875 57.325H46.9288C46.6232 57.325 46.374 57.0765 46.374 56.7709L46.374 48.2573C46.374 47.9511 46.6232 47.7025 46.9288 47.7025H48.7875ZM30.5289 52.5144C30.5289 51.5935 31.2776 50.8448 32.1985 50.8448C33.1195 50.8448 33.8682 51.5935 33.8682 52.5144C33.8682 53.4353 33.1195 54.184 32.1985 54.184C31.2776 54.184 30.5289 53.4353 30.5289 52.5144ZM46.9488 45.8838H46.9288C45.6199 45.8838 44.5553 46.9483 44.5553 48.2573L44.5553 51.605H35.5627C35.2395 50.4125 34.301 49.4734 33.1079 49.1503V29.1826H35.8791C36.3817 29.1826 36.7885 28.7758 36.7885 28.2732V25.5014H44.5553V28.8486C44.5553 30.1575 45.6199 31.222 46.9288 31.222H46.9488V45.8838ZM29.4267 21.8208H34.9697V27.3638L32.2046 27.3638C32.2028 27.3638 32.201 27.3632 32.1985 27.3632C32.1961 27.3632 32.1949 27.3638 32.1925 27.3638H29.4261L29.4261 21.8208H29.4267ZM48.7875 19.7808C49.0931 19.7808 49.3423 20.0299 49.3423 20.3355V28.8486C49.3423 29.1541 49.0931 29.4033 48.7875 29.4033H46.9288C46.6232 29.4033 46.374 29.1541 46.374 28.8486V20.3355C46.374 20.0299 46.6232 19.7808 46.9288 19.7808H48.7875ZM17.0512 13.2611C17.0512 11.3629 19.0106 9.81877 21.4193 9.81877L42.5807 9.81877C44.9893 9.81877 46.9488 11.3629 46.9488 13.2611V17.962H46.9288C45.6199 17.962 44.5553 19.0266 44.5553 20.3355V23.6826H36.7885V20.9114C36.7885 20.4089 36.3817 20.0021 35.8791 20.0021H28.5174C28.0154 20.0021 27.608 20.4089 27.608 20.9114V23.6826L19.4447 23.6826V20.3355C19.4447 19.0266 18.3801 17.962 17.0712 17.962H17.0512V13.2611ZM15.2124 29.4033C14.9063 29.4033 14.6577 29.1541 14.6577 28.8486V20.3355C14.6577 20.0299 14.9063 19.7808 15.2124 19.7808H17.0712C17.3774 19.7808 17.626 20.0299 17.626 20.3355V28.8486C17.626 29.1541 17.3774 29.4033 17.0712 29.4033H15.2124ZM17.0512 31.222H17.0712C18.3801 31.222 19.4447 30.1575 19.4447 28.8486L19.4447 25.5014H27.608L27.608 28.2732C27.608 28.7758 28.0154 29.1826 28.5174 29.1826H31.2892V49.1509C30.0967 49.474 29.1576 50.4125 28.8344 51.6056H19.4447V48.2579C19.4447 46.949 18.3801 45.8844 17.0712 45.8844H17.0512L17.0512 31.222ZM15.2124 57.325C14.9063 57.325 14.6577 57.0765 14.6577 56.7709V48.2573C14.6577 47.9511 14.9063 47.7025 15.2124 47.7025H17.0712C17.3774 47.7025 17.626 47.9511 17.626 48.2573V56.7703C17.626 57.0765 17.3774 57.325 17.0712 57.325H15.2124ZM21.4193 66.1806C19.0106 66.1806 17.0512 64.6365 17.0512 62.7383V59.1432H17.0712C18.3801 59.1432 19.4447 58.0786 19.4447 56.7697V53.4232H28.8344C29.2358 54.9067 30.5895 56.0022 32.1985 56.0022C33.8076 56.0022 35.1607 54.9067 35.5627 53.4232H44.5553V56.7703C44.5553 58.0786 45.6199 59.1432 46.9288 59.1432H46.9488V62.7383C46.9488 64.6365 44.9893 66.1806 42.5807 66.1806H21.4193Z" fill="#F81717"/>
</g>
<defs>
<filter id="filter0_d" x="0.838959" y="0" width="62.3221" height="84" filterUnits="userSpaceOnUse" color-interpolation-filters="sRGB">
<feFlood flood-opacity="0" result="BackgroundImageFix"/>
<feColorMatrix in="SourceAlpha" type="matrix" values="0 0 0 0 0 0 0 0 0 0 0 0 0 0 0 0 0 0 127 0"/>
<feOffset dy="4"/>
<feGaussianBlur stdDeviation="6"/>
<feColorMatrix type="matrix" values="0 0 0 0 1 0 0 0 0 0.301961 0 0 0 0 0.301961 0 0 0 0.5 0"/>
<feBlend mode="normal" in2="BackgroundImageFix" result="effect1_dropShadow"/>
<feBlend mode="normal" in="SourceGraphic" in2="effect1_dropShadow" result="shape"/>
</filter>
</defs>
</svg>
