<svg xmlns="http://www.w3.org/2000/svg" fill="none" viewBox="0 0 40 60"><path fill="#F81717" d="M36.767 54.738v-3.595h.02a2.376 2.376 0 002.374-2.373v-8.513a2.376 2.376 0 00-2.373-2.373h-.02V23.222h.02a2.376 2.376 0 002.373-2.373v-8.514a2.376 2.376 0 00-2.373-2.373h-.02v-4.7C36.767 2.36 33.992 0 30.58 0H9.419C6.008 0 3.232 2.36 3.232 5.261v4.701h-.02A2.376 2.376 0 00.84 12.335v8.514a2.376 2.376 0 002.373 2.373h.02v14.662h-.02A2.376 2.376 0 00.84 40.257v8.514a2.376 2.376 0 002.373 2.373h.02v3.595c0 2.9 2.776 5.261 6.187 5.261h21.162c3.411 0 6.186-2.36 6.186-5.262zm.02-15.035c.306 0 .555.248.555.554v8.513c0 .306-.249.555-.554.555h-1.86a.555.555 0 01-.554-.554v-8.514c0-.306.25-.554.555-.554h1.858zM18.53 44.514c0-.92.749-1.67 1.67-1.67.92 0 1.67.75 1.67 1.67 0 .921-.75 1.67-1.67 1.67-.921 0-1.67-.749-1.67-1.67zm16.42-6.63h-.02a2.376 2.376 0 00-2.374 2.373v3.348h-8.992a3.497 3.497 0 00-2.455-2.455V21.183h2.771c.503 0 .91-.407.91-.91v-2.772h7.766v3.348a2.376 2.376 0 002.374 2.373h.02v14.662zM17.427 13.82h5.543v5.543H17.426V13.82zm19.36-2.04c.306 0 .555.249.555.554v8.514c0 .305-.249.554-.554.554h-1.86a.556.556 0 01-.554-.554v-8.514c0-.305.25-.554.555-.554h1.858zM5.052 5.26c0-1.898 1.96-3.442 4.368-3.442h21.162c2.408 0 4.368 1.544 4.368 3.442v4.701h-.02a2.376 2.376 0 00-2.374 2.373v3.348h-7.767V12.91a.909.909 0 00-.909-.909h-7.362a.91.91 0 00-.909.91v2.77H7.445v-3.347A2.376 2.376 0 005.07 9.962h-.02v-4.7zM3.212 21.403a.555.555 0 01-.554-.554v-8.514c0-.305.248-.554.554-.554h1.86c.305 0 .554.249.554.554v8.514a.555.555 0 01-.555.554H3.212zm1.84 1.819h.02a2.376 2.376 0 002.373-2.373V17.5h8.163v2.772c0 .503.407.91.91.91h2.771V41.15a3.497 3.497 0 00-2.455 2.455h-9.39v-3.348a2.376 2.376 0 00-2.373-2.374h-.02V23.222zm-1.84 26.103a.555.555 0 01-.554-.554v-8.514c0-.306.248-.554.554-.554h1.86c.305 0 .554.248.554.554v8.513a.555.555 0 01-.555.555H3.212zm6.207 8.856c-2.408 0-4.368-1.544-4.368-3.443v-3.595h.02a2.376 2.376 0 002.374-2.373v-3.347h9.39a3.49 3.49 0 003.363 2.58 3.491 3.491 0 003.365-2.58h8.992v3.347a2.376 2.376 0 002.374 2.373h.02v3.595c0 1.898-1.96 3.443-4.368 3.443H9.419z"/></svg>