<svg xmlns="http://www.w3.org/2000/svg" fill="none" viewBox="0 0 58 60"><path fill="#F81717" d="M23.94 1.084C23.94.485 23.455 0 22.855 0H1.17C.569 0 .084.485.084 1.084v45.678c0 6.502 5.29 11.792 11.792 11.792h.255c6.511 0 11.809-5.297 11.809-11.808V1.084zM2.253 15.181h19.518v20.24H2.253v-20.24zM21.771 2.169v10.843H2.253V2.169h19.518zm-9.639 54.217h-.256c-5.307 0-9.623-4.318-9.623-9.624V37.59h19.518v9.156c0 5.316-4.324 9.64-9.639 9.64zM27.818 45.09a1.082 1.082 0 001.533-.01l21.87-22.173c.415-.422.415-1.1 0-1.522L36.44 6.4c-.407-.414-1.136-.413-1.544 0l-7.09 7.19a1.084 1.084 0 101.545 1.521l6.318-6.406 13.256 13.44-21.12 21.41a1.085 1.085 0 00.012 1.535zM56.831 36.145h-15.18a1.085 1.085 0 000 2.168h14.096v19.518H23.578a1.084 1.084 0 100 2.169h33.253c.599 0 1.085-.486 1.085-1.084V37.229c0-.599-.486-1.084-1.085-1.084z"/><path fill="#F81717" d="M12.012 43.373a3.98 3.98 0 00-3.976 3.976 3.98 3.98 0 003.976 3.976 3.98 3.98 0 003.976-3.976 3.98 3.98 0 00-3.976-3.976zm0 5.783a1.81 1.81 0 01-1.807-1.807 1.81 1.81 0 011.807-1.807c.996 0 1.808.81 1.808 1.807a1.81 1.81 0 01-1.808 1.807z"/></svg>