<svg width="82" height="84" viewBox="0 0 82 84" fill="none" xmlns="http://www.w3.org/2000/svg">
<g filter="url(#filter0_d)">
<path d="M35.9398 9.08434C35.9398 8.48506 35.4547 8 34.8555 8H13.1687C12.5695 8 12.0844 8.48506 12.0844 9.08434V54.7624C12.0844 61.264 17.3738 66.5541 23.8755 66.5541H24.1314C30.6425 66.5541 35.9398 61.2575 35.9398 54.7464V9.08434ZM14.2531 23.1807H33.7711V43.4216H14.2531V23.1807ZM33.7711 10.1687V21.012H14.2531V10.1687H33.7711ZM24.1321 64.3855H23.8762C18.5695 64.3855 14.2531 60.0684 14.2531 54.7624V45.5903H33.7711V54.7464C33.7711 60.0619 29.4468 64.3855 24.1321 64.3855Z" fill="#F81717"/>
<path d="M39.8177 53.0898C40.0288 53.298 40.3035 53.4021 40.5789 53.4021C40.8594 53.4021 41.1384 53.2943 41.3509 53.0796L63.2205 30.9071C63.6362 30.485 63.6362 29.8069 63.2205 29.3847L48.4418 14.3999C48.034 13.9864 47.3054 13.9872 46.8969 14.3999L39.8068 21.5891C39.3861 22.0156 39.3912 22.7023 39.8177 23.1223C40.2427 23.5423 40.9302 23.538 41.3516 23.1115L47.6697 16.7052L60.9261 30.1445L39.8068 51.5558C39.3861 51.9823 39.3912 52.669 39.8177 53.0898Z" fill="#F81717"/>
<path d="M68.8313 44.1445H53.6506C53.052 44.1445 52.5662 44.6303 52.5662 45.2289C52.5662 45.8274 53.052 46.3132 53.6506 46.3132H67.7469V65.8312H35.5783C34.979 65.8312 34.494 66.317 34.494 66.9156C34.494 67.5141 34.979 67.9999 35.5783 67.9999H68.8313C69.4298 67.9999 69.9156 67.5141 69.9156 66.9156V45.2289C69.9156 44.6303 69.4298 44.1445 68.8313 44.1445Z" fill="#F81717"/>
<path d="M24.0123 51.3733C21.8198 51.3733 20.0364 53.1574 20.0364 55.3492C20.0364 57.541 21.8198 59.3251 24.0123 59.3251C26.2049 59.3251 27.9882 57.541 27.9882 55.3492C27.9882 53.1574 26.2049 51.3733 24.0123 51.3733ZM24.0123 57.1564C23.0162 57.1564 22.2051 56.3461 22.2051 55.3492C22.2051 54.3523 23.0162 53.542 24.0123 53.542C25.0085 53.542 25.8196 54.3523 25.8196 55.3492C25.8196 56.3461 25.0085 57.1564 24.0123 57.1564Z" fill="#F81717"/>
</g>
<defs>
<filter id="filter0_d" x="0.0844116" y="0" width="81.8312" height="83.9999" filterUnits="userSpaceOnUse" color-interpolation-filters="sRGB">
<feFlood flood-opacity="0" result="BackgroundImageFix"/>
<feColorMatrix in="SourceAlpha" type="matrix" values="0 0 0 0 0 0 0 0 0 0 0 0 0 0 0 0 0 0 127 0"/>
<feOffset dy="4"/>
<feGaussianBlur stdDeviation="6"/>
<feColorMatrix type="matrix" values="0 0 0 0 1 0 0 0 0 0.301961 0 0 0 0 0.301961 0 0 0 0.5 0"/>
<feBlend mode="normal" in2="BackgroundImageFix" result="effect1_dropShadow"/>
<feBlend mode="normal" in="SourceGraphic" in2="effect1_dropShadow" result="shape"/>
</filter>
</defs>
</svg>
