<svg width="84" height="84" viewBox="0 0 84 84" fill="none" xmlns="http://www.w3.org/2000/svg">
<g filter="url(#filter0_d)">
<path d="M51.2482 30.0261L31.5097 45.7124C31.1175 46.0392 30.9868 46.6928 31.3789 47.085C31.575 47.3464 31.8365 47.4771 32.1632 47.4771C32.3593 47.4771 32.6208 47.4118 32.7515 47.281L52.49 31.5948C52.8822 31.268 53.0129 30.6144 52.6208 30.2222C52.294 29.7647 51.7057 29.6993 51.2482 30.0261Z" fill="#F81717"/>
<path d="M36.804 37.0196C37.0655 37.0196 37.3269 37.0196 37.5884 36.9543C40.2681 36.5621 42.1635 34.0131 41.706 31.268C41.5099 29.9608 40.791 28.7844 39.7452 28C38.6995 27.2157 37.3923 26.8889 36.0851 27.085C34.7779 27.2811 33.6014 28 32.8171 29.0458C32.0328 30.0915 31.706 31.3987 31.9021 32.7059C32.2942 35.2549 34.4511 37.0196 36.804 37.0196ZM36.3465 29.1111C36.4772 29.1111 36.6733 29.0458 36.804 29.0458C38.242 29.0458 39.5491 30.0915 39.7452 31.5948C40.0067 33.2288 38.8955 34.7321 37.2616 34.9935C35.6276 35.2549 34.1243 34.1438 33.8629 32.5098C33.6014 30.8759 34.7779 29.3726 36.3465 29.1111Z" fill="#F81717"/>
<path d="M47.2614 40.2876C44.5163 40.2876 42.2941 42.5098 42.2941 45.2549C42.2941 48 44.5163 50.2222 47.2614 50.2222C50.0065 50.2222 52.2288 48 52.2288 45.2549C52.1634 42.5098 49.9412 40.2876 47.2614 40.2876ZM47.2614 48.1961C45.6275 48.1961 44.2549 46.8235 44.2549 45.1896C44.2549 43.5556 45.6275 42.183 47.2614 42.183C48.8954 42.183 50.268 43.5556 50.268 45.1896C50.2026 46.8889 48.8954 48.1961 47.2614 48.1961Z" fill="#F81717"/>
<path d="M71.7059 38C71.7059 37.9346 71.7712 37.8039 71.7712 37.7386C71.7712 34.9281 68.8301 33.4902 66.281 32.2484C64.451 31.3333 62.4902 30.3529 61.9673 29.1765C61.4444 27.9346 62.1634 25.9085 62.8824 24.0131C63.8627 21.3333 64.8431 18.5882 63.0131 16.7582C61.183 14.9281 58.5686 15.5817 55.9543 16.1699C54.1242 16.5621 52.2288 17.0196 50.9869 16.4967C49.7451 15.9739 48.6993 14.3399 47.719 12.7712C46.281 10.549 44.7124 8 41.9673 8C39.2222 8 37.6536 10.549 36.281 12.8366C35.3007 14.4706 34.3203 16.1046 33.0784 16.6275C31.8366 17.1503 29.8758 16.6928 28.0458 16.2353C25.4314 15.5817 22.7516 14.9281 20.9869 16.6928C19.1569 18.5229 20.0719 21.268 20.9216 23.9477C21.5752 25.9085 22.1634 27.8693 21.6405 29.1765C21.1176 30.4183 19.2876 31.3333 17.5229 32.2484C15.0392 33.5556 12.2288 34.9935 12.2288 37.7386C12.2288 37.8039 12.2288 37.9346 12.2941 38C12.2941 38.0654 12.2288 38.1961 12.2288 38.2614C12.2288 41.0065 15.0392 42.5098 17.5229 43.7516C19.2876 44.6667 21.1176 45.5817 21.6405 46.8235C22.1634 48.0654 21.5098 50.0915 20.9216 52.0523C20.0719 54.732 19.1569 57.4771 20.9869 59.3072C22.817 61.1373 25.4967 60.4183 28.0458 59.7647C29.8758 59.3072 31.8366 58.8497 33.0784 59.3726C34.3203 59.8954 35.3007 61.5294 36.281 63.1634C37.6536 65.451 39.2222 68 41.9673 68C44.7124 68 46.3464 65.451 47.719 63.2288C48.6993 61.6601 49.7451 60.0261 50.9869 59.5033C52.2941 58.9804 54.1242 59.3725 55.9543 59.8301C58.5033 60.4183 61.183 61.0719 63.0131 59.2418C64.8431 57.4118 63.8627 54.6667 62.8824 51.9869C62.1634 50.0261 61.4444 48.0654 61.9673 46.8235C62.4902 45.5817 64.3856 44.6667 66.281 43.7516C68.8301 42.4444 71.7712 41.0065 71.7712 38.2614C71.7712 38.1307 71.7059 38.0654 71.7059 38ZM65.366 41.9869C63.2092 43.098 60.9216 44.2092 60.1373 46.1046C59.2876 48.0654 60.2026 50.4183 60.9869 52.7059C61.7712 54.8627 62.5556 56.9542 61.5752 57.8693C60.5294 58.915 58.5033 58.4575 56.3464 57.9346C54.1895 57.4118 52.0327 56.9543 50.1373 57.7386C48.3072 58.5229 47.1307 60.3529 46.0196 62.183C44.7778 64.1438 43.6013 66.0392 41.902 66.0392C40.268 66.0392 39.0915 64.1438 37.8497 62.1176C36.7386 60.2222 35.5621 58.3268 33.732 57.5425C31.8366 56.7582 29.6144 57.281 27.4575 57.8693C25.3007 58.3922 23.2745 58.915 22.2288 57.9346C21.2484 56.9543 21.902 54.8627 22.6209 52.7059C23.3399 50.4183 24.1242 48.0654 23.2745 46.1699C22.4902 44.2745 20.3333 43.1634 18.2418 42.1176C16.085 41.0065 14.0588 39.9608 14.0588 38.3268C14.0588 38.2614 14.0588 38.1307 13.9935 38.0654C13.9935 38 14.0588 37.8693 14.0588 37.8039C14.0588 36.2353 16.085 35.1895 18.2418 34.0131C20.3333 32.9673 22.4902 31.8562 23.2745 29.9608C24.0588 28 23.3399 25.6471 22.6209 23.4248C21.902 21.2026 21.2484 19.1111 22.2288 18.1961C23.2745 17.1503 25.3007 17.6732 27.4575 18.2614C29.6144 18.7843 31.8366 19.3726 33.732 18.5882C35.5621 17.8039 36.7386 15.9085 37.8497 14.0131C39.0915 11.9869 40.2026 10.0915 41.902 10.0915C43.6013 10.0915 44.7778 11.9869 46.0196 13.9477C47.1961 15.7778 48.3726 17.6078 50.1373 18.3922C52.0327 19.1765 54.1895 18.6536 56.3464 18.1961C58.5033 17.6732 60.5294 17.2157 61.5752 18.2614C62.5556 19.1765 61.7712 21.268 60.9869 23.4248C60.1373 25.7124 59.2876 28.0654 60.1373 30.0261C60.9216 31.9216 63.2092 33.0327 65.366 34.1438C67.6536 35.2549 69.7451 36.366 69.7451 37.9346C69.7451 38 69.7451 38.1307 69.8105 38.1961C69.8105 38.2614 69.7451 38.3922 69.7451 38.4575C69.8105 39.7647 67.6536 40.8758 65.366 41.9869Z" fill="#F81717"/>
</g>
<defs>
<filter id="filter0_d" x="0.22876" y="0" width="83.5425" height="84" filterUnits="userSpaceOnUse" color-interpolation-filters="sRGB">
<feFlood flood-opacity="0" result="BackgroundImageFix"/>
<feColorMatrix in="SourceAlpha" type="matrix" values="0 0 0 0 0 0 0 0 0 0 0 0 0 0 0 0 0 0 127 0"/>
<feOffset dy="4"/>
<feGaussianBlur stdDeviation="6"/>
<feColorMatrix type="matrix" values="0 0 0 0 1 0 0 0 0 0.301961 0 0 0 0 0.301961 0 0 0 0.5 0"/>
<feBlend mode="normal" in2="BackgroundImageFix" result="effect1_dropShadow"/>
<feBlend mode="normal" in="SourceGraphic" in2="effect1_dropShadow" result="shape"/>
</filter>
</defs>
</svg>
