<svg xmlns="http://www.w3.org/2000/svg" fill="none" viewBox="0 0 60 60"><path fill="#F81717" d="M39.248 22.026L19.51 37.712c-.393.327-.523.98-.131 1.373a.932.932 0 00.784.392c.196 0 .458-.065.588-.196L40.49 23.595c.392-.327.523-.98.13-1.373-.326-.457-.914-.523-1.372-.196zM24.804 29.02c.262 0 .523 0 .784-.066 2.68-.392 4.575-2.94 4.118-5.686A5.04 5.04 0 0027.746 20a4.867 4.867 0 00-3.66-.915 5.04 5.04 0 00-3.269 1.96 4.867 4.867 0 00-.915 3.66c.392 2.55 2.55 4.315 4.902 4.315zm-.457-7.909c.13 0 .326-.065.457-.065 1.438 0 2.745 1.046 2.941 2.549.262 1.634-.85 3.137-2.483 3.399-1.634.26-3.138-.85-3.4-2.484-.26-1.634.916-3.137 2.485-3.399zM35.261 32.288a4.965 4.965 0 00-4.967 4.967 4.965 4.965 0 004.967 4.967 4.965 4.965 0 004.968-4.967c-.066-2.745-2.288-4.967-4.968-4.967zm0 7.908c-1.634 0-3.006-1.372-3.006-3.006 0-1.634 1.372-3.007 3.006-3.007 1.634 0 3.007 1.373 3.007 3.007-.065 1.699-1.373 3.006-3.007 3.006z"/><path fill="#F81717" d="M59.706 30c0-.065.065-.196.065-.261 0-2.81-2.94-4.249-5.49-5.49-1.83-.916-3.79-1.896-4.314-3.072-.523-1.242.196-3.268.915-5.164.98-2.68 1.961-5.425.131-7.255s-4.444-1.176-7.059-.588c-1.83.392-3.725.85-4.967.327-1.242-.523-2.288-2.157-3.268-3.726C34.281 2.55 32.712 0 29.967 0c-2.745 0-4.313 2.549-5.686 4.837-.98 1.634-1.96 3.268-3.203 3.79-1.241.523-3.202.066-5.032-.392-2.615-.653-5.294-1.307-7.06.458-1.83 1.83-.914 4.575-.064 7.255.653 1.96 1.241 3.921.719 5.229-.523 1.241-2.353 2.156-4.118 3.071-2.484 1.308-5.294 2.745-5.294 5.49 0 .066 0 .197.065.262 0 .065-.065.196-.065.261 0 2.746 2.81 4.249 5.294 5.49 1.765.916 3.595 1.83 4.118 3.073.522 1.241-.131 3.268-.72 5.228-.85 2.68-1.764 5.425.066 7.255s4.51 1.111 7.059.458c1.83-.458 3.79-.915 5.032-.392 1.242.522 2.223 2.156 3.203 3.79C25.654 57.451 27.222 60 29.967 60s4.38-2.549 5.752-4.771c.98-1.569 2.026-3.203 3.268-3.726 1.307-.523 3.137-.13 4.967.327 2.55.588 5.229 1.242 7.06-.588 1.83-1.83.849-4.575-.132-7.255-.719-1.96-1.438-3.922-.915-5.163.523-1.242 2.419-2.157 4.314-3.072 2.55-1.308 5.49-2.745 5.49-5.49 0-.131-.065-.197-.065-.262zm-6.34 3.987c-2.157 1.111-4.444 2.222-5.229 4.118-.85 1.96.066 4.313.85 6.6.784 2.158 1.569 4.25.588 5.164-1.046 1.046-3.072.589-5.229.066-2.156-.523-4.313-.98-6.209-.196-1.83.784-3.006 2.614-4.117 4.444-1.242 1.96-2.419 3.856-4.118 3.856-1.634 0-2.81-1.895-4.052-3.921-1.111-1.896-2.288-3.791-4.118-4.576-1.895-.784-4.118-.261-6.274.327-2.157.523-4.184 1.046-5.23.066-.98-.98-.326-3.072.393-5.23.719-2.287 1.503-4.64.653-6.535-.784-1.895-2.94-3.007-5.032-4.052-2.157-1.111-4.183-2.157-4.183-3.791 0-.066 0-.196-.066-.262 0-.065.066-.196.066-.261 0-1.569 2.026-2.614 4.183-3.79 2.091-1.047 4.248-2.158 5.032-4.053.785-1.961.066-4.314-.653-6.536-.719-2.222-1.373-4.314-.392-5.229 1.046-1.046 3.072-.523 5.229.065 2.156.523 4.379 1.112 6.274.327 1.83-.784 3.007-2.68 4.118-4.575 1.241-2.026 2.353-3.921 4.052-3.921 1.7 0 2.876 1.895 4.118 3.856 1.176 1.83 2.353 3.66 4.117 4.444 1.896.785 4.053.262 6.21-.196 2.156-.523 4.182-.98 5.228.065.98.916.196 3.007-.588 5.164-.85 2.287-1.7 4.64-.85 6.601.785 1.896 3.072 3.007 5.229 4.118 2.288 1.11 4.38 2.222 4.38 3.79 0 .066 0 .197.064.262 0 .065-.065.196-.065.261.066 1.308-2.091 2.419-4.379 3.53z"/></svg>