<svg width="100" height="84" viewBox="0 0 100 84" fill="none" xmlns="http://www.w3.org/2000/svg">
<g filter="url(#filter0_d)">
<path d="M66.162 50.8737C66.158 50.8737 66.1531 50.8737 66.1491 50.8737C65.7282 50.8689 65.3402 50.6459 65.1245 50.2845L53.6485 31.0116C53.6163 30.9577 53.5889 30.9021 53.5656 30.8442C52.1345 28.4947 51.3795 25.8024 51.3795 23.0425C51.394 14.7433 58.1518 8 66.4469 8C66.4534 8 66.459 8 66.4654 8C70.4923 8.00563 74.2728 9.57838 77.1108 12.4277C79.9472 15.2745 81.5055 19.0591 81.4999 23.0827C81.4999 25.8016 80.7481 28.4794 79.3234 30.8434C79.2961 30.9207 79.2599 30.9947 79.2156 31.0663L67.1866 50.3071C66.9645 50.6588 66.5773 50.8737 66.162 50.8737ZM55.8345 29.9628L66.187 47.3491L77.0336 29.9999C77.0609 29.9258 77.0955 29.8534 77.1382 29.785C78.4115 27.751 79.0844 25.433 79.0844 23.0819C79.0844 23.0811 79.0844 23.0811 79.0844 23.0803C79.09 19.6998 77.7813 16.5221 75.3996 14.1308C73.0172 11.7395 69.8427 10.4195 66.4622 10.4138C66.4574 10.4138 66.4518 10.4138 66.4461 10.4138C59.4799 10.4138 53.8054 16.0762 53.7942 23.0441C53.7942 25.4217 54.463 27.7414 55.7275 29.7504C55.771 29.8172 55.8064 29.8888 55.8345 29.9628Z" fill="#F81717"/>
<path d="M66.4508 28.6984C66.4468 28.6984 66.4428 28.6984 66.438 28.6984C64.7381 28.6984 63.1371 28.0343 61.9338 26.8286C60.7289 25.6213 60.0673 24.018 60.0705 22.3124C60.0721 20.6125 60.737 19.0132 61.9427 17.8107C63.1468 16.6106 64.7453 15.9498 66.446 15.9498C66.4476 15.9498 66.45 15.9498 66.4525 15.9498C69.9658 15.9539 72.8223 18.8176 72.8191 22.3342C72.8175 24.0365 72.1526 25.6366 70.9469 26.8391C69.7436 28.0384 68.1475 28.6984 66.4508 28.6984ZM66.4452 18.3645C65.3892 18.3645 64.3952 18.775 63.6474 19.5211C62.8989 20.2672 62.486 21.2604 62.4852 22.3165C62.4836 23.3765 62.8949 24.3729 63.6434 25.1231C64.3903 25.8716 65.3844 26.2837 66.4404 26.2837C66.4428 26.2837 66.4452 26.2837 66.4484 26.2837C67.5044 26.2837 68.4952 25.874 69.2422 25.1295C69.9907 24.3834 70.4036 23.3894 70.4044 22.3326C70.406 20.1481 68.6321 18.3677 66.4492 18.3653C66.4484 18.3645 66.4468 18.3645 66.4452 18.3645ZM71.6118 22.3334H71.6198H71.6118Z" fill="#F81717"/>
<path d="M86.1626 68H13.8374C13.4318 68 13.0535 67.7964 12.8297 67.4575C12.6068 67.1194 12.5681 66.6913 12.7275 66.3178L25.8833 35.5374C26.0733 35.0932 26.5103 34.8042 26.9932 34.8042H58.036C58.7032 34.8042 59.2433 35.3443 59.2433 36.0115C59.2433 36.6788 58.7032 37.2188 58.036 37.2188H27.7901L15.6661 65.5845H84.3331L72.5834 38.0978C72.321 37.4845 72.606 36.7754 73.2193 36.513C73.8302 36.2514 74.5417 36.5347 74.8041 37.1488L87.2725 66.317C87.4319 66.6904 87.3933 67.1186 87.1703 67.4567C86.9466 67.7964 86.5683 68 86.1626 68Z" fill="#F81717"/>
<path d="M66.3043 67.7835C65.6991 67.7835 65.1767 67.3295 65.1067 66.713C65.0994 66.6534 64.3283 60.7134 56.0115 59.3024C55.238 59.1712 54.0041 59.0513 52.5746 58.9137C44.7037 58.1522 37.5241 57.1638 36.1397 53.4831C35.2463 51.1087 36.5518 49.2985 37.5998 47.8441C38.7475 46.252 39.1258 45.5566 38.5399 44.5578C38.1688 43.9251 36.9873 43.41 35.8443 42.9118C33.6068 41.9363 30.5418 40.6002 30.5257 36.9379C30.5224 36.2707 31.0609 35.7282 31.7274 35.725C31.729 35.725 31.7314 35.725 31.733 35.725C32.3978 35.725 32.9371 36.2618 32.9403 36.9267C32.9492 38.8745 34.4084 39.6512 36.8102 40.6983C38.3073 41.3511 39.8551 42.0256 40.6237 43.3368C42.0604 45.7868 40.6149 47.7926 39.5597 49.2567C38.5697 50.6298 37.9837 51.5272 38.4006 52.6332C39.3705 55.2112 48.4464 56.0885 52.808 56.5111C54.2834 56.6535 55.5575 56.7767 56.4155 56.9224C66.5023 58.6344 67.4698 66.1222 67.506 66.4401C67.5817 67.1025 67.106 67.7006 66.4436 67.7762C66.3969 67.7811 66.3502 67.7835 66.3043 67.7835Z" fill="#F81717"/>
</g>
<defs>
<filter id="filter0_d" x="0.630371" y="0" width="98.7393" height="84" filterUnits="userSpaceOnUse" color-interpolation-filters="sRGB">
<feFlood flood-opacity="0" result="BackgroundImageFix"/>
<feColorMatrix in="SourceAlpha" type="matrix" values="0 0 0 0 0 0 0 0 0 0 0 0 0 0 0 0 0 0 127 0"/>
<feOffset dy="4"/>
<feGaussianBlur stdDeviation="6"/>
<feColorMatrix type="matrix" values="0 0 0 0 1 0 0 0 0 0.301961 0 0 0 0 0.301961 0 0 0 0.5 0"/>
<feBlend mode="normal" in2="BackgroundImageFix" result="effect1_dropShadow"/>
<feBlend mode="normal" in="SourceGraphic" in2="effect1_dropShadow" result="shape"/>
</filter>
</defs>
</svg>
