<svg xmlns="http://www.w3.org/2000/svg" fill="none" viewBox="0 0 76 60"><path fill="#F81717" d="M54.162 42.874h-.013a1.209 1.209 0 01-1.025-.59L41.648 23.013a1.195 1.195 0 01-.082-.168 14.977 14.977 0 01-2.187-7.802C39.395 6.744 46.153 0 54.447 0h.018a14.954 14.954 0 0110.646 4.428A14.967 14.967 0 0169.5 15.083a15.03 15.03 0 01-2.177 7.76 1.152 1.152 0 01-.107.223l-12.03 19.241c-.221.352-.609.567-1.024.567zM43.834 21.963l10.353 17.386L65.034 22c.027-.073.061-.146.104-.214a12.63 12.63 0 001.946-6.703v-.002A12.567 12.567 0 0063.4 6.13a12.562 12.562 0 00-8.938-3.716h-.016c-6.966 0-12.64 5.662-12.652 12.63 0 2.378.669 4.697 1.934 6.706.043.067.078.139.106.213z"/><path fill="#F81717" d="M54.45 20.698h-.012c-1.7 0-3.3-.664-4.504-1.87a6.333 6.333 0 01-1.863-4.516c.001-1.7.666-3.299 1.872-4.501a6.337 6.337 0 014.503-1.861h.007c3.513.004 6.37 2.868 6.366 6.384a6.33 6.33 0 01-1.872 4.505 6.328 6.328 0 01-4.496 1.86zm-.005-10.334c-1.056 0-2.05.411-2.798 1.157a3.926 3.926 0 00-1.162 2.795 3.938 3.938 0 001.158 2.807 3.926 3.926 0 002.797 1.16h.008a3.93 3.93 0 002.794-1.154 3.928 3.928 0 001.162-2.796 3.967 3.967 0 00-3.955-3.968h-.004zm5.167 3.97h.008-.008zM74.163 60H1.837a1.207 1.207 0 01-1.11-1.682l13.156-30.78c.19-.445.627-.734 1.11-.734h31.043a1.207 1.207 0 110 2.415H15.79L3.666 57.584h68.667l-11.75-27.486a1.207 1.207 0 112.221-.95l12.468 29.169A1.209 1.209 0 0174.162 60z"/><path fill="#F81717" d="M54.304 59.783a1.207 1.207 0 01-1.197-1.07c-.008-.06-.779-6-9.096-7.41-.773-.132-2.007-.252-3.436-.39-7.871-.76-15.05-1.75-16.435-5.43-.894-2.374.412-4.184 1.46-5.639 1.147-1.592 1.526-2.287.94-3.286-.371-.633-1.553-1.148-2.696-1.646-2.237-.976-5.302-2.312-5.318-5.974a1.207 1.207 0 011.201-1.213h.006c.665 0 1.204.537 1.207 1.202.01 1.948 1.468 2.724 3.87 3.771 1.497.653 3.045 1.328 3.814 2.639 1.436 2.45-.01 4.456-1.064 5.92-.99 1.373-1.576 2.27-1.16 3.376.97 2.578 10.046 3.456 14.408 3.878 1.475.142 2.75.266 3.608.411 10.086 1.712 11.054 9.2 11.09 9.518a1.207 1.207 0 01-1.202 1.343z"/></svg>