<svg width="68" height="84" viewBox="0 0 68 84" fill="none" xmlns="http://www.w3.org/2000/svg">
<g filter="url(#filter0_d)">
<path d="M48.5081 8H19.4917C15.7681 8 12.6768 11.0211 12.6768 14.7447V61.2553C12.6768 64.9789 15.6978 68 19.4917 68H48.5081C52.2318 68 55.3231 64.9789 55.3231 61.2553V14.7447C55.3231 11.0211 52.3021 8 48.5081 8ZM53.2154 61.2553C53.2154 63.8548 51.1077 65.8923 48.5081 65.8923H19.4917C16.8922 65.8923 14.7845 63.7845 14.7845 61.2553V14.7447C14.7845 12.1452 16.8922 10.1077 19.4917 10.1077H48.5081C51.1077 10.1077 53.2154 12.2155 53.2154 14.7447V61.2553Z" fill="#F81717"/>
<path d="M42.6065 14.6744H25.2528C24.6908 14.6744 24.199 15.1662 24.199 15.7283C24.199 16.2904 24.6908 16.7822 25.2528 16.7822H42.6065C43.1685 16.7822 43.6603 16.2904 43.6603 15.7283C43.6603 15.1662 43.1685 14.6744 42.6065 14.6744Z" fill="#F81717"/>
<path d="M33.9647 54.9321C31.9974 54.9321 30.4518 56.5481 30.4518 58.445C30.4518 59.3584 30.8031 60.2717 31.5056 60.904C32.138 61.5363 33.0513 61.8876 33.9647 61.8876C35.9319 61.8876 37.4775 60.2717 37.4775 58.3748C37.4775 56.4778 35.9319 54.9321 33.9647 54.9321ZM34.0349 59.8502C33.6836 59.8502 33.3323 59.7096 33.0513 59.4286C32.7703 59.1476 32.6298 58.7963 32.6298 58.445C32.6298 57.6722 33.2621 57.0399 34.0349 57.0399C34.8078 57.0399 35.4401 57.6722 35.4401 58.445C35.4401 59.2178 34.8078 59.8502 34.0349 59.8502Z" fill="#F81717"/>
</g>
<defs>
<filter id="filter0_d" x="0.676758" y="0" width="66.6464" height="84" filterUnits="userSpaceOnUse" color-interpolation-filters="sRGB">
<feFlood flood-opacity="0" result="BackgroundImageFix"/>
<feColorMatrix in="SourceAlpha" type="matrix" values="0 0 0 0 0 0 0 0 0 0 0 0 0 0 0 0 0 0 127 0"/>
<feOffset dy="4"/>
<feGaussianBlur stdDeviation="6"/>
<feColorMatrix type="matrix" values="0 0 0 0 1 0 0 0 0 0.301961 0 0 0 0 0.301961 0 0 0 0.5 0"/>
<feBlend mode="normal" in2="BackgroundImageFix" result="effect1_dropShadow"/>
<feBlend mode="normal" in="SourceGraphic" in2="effect1_dropShadow" result="shape"/>
</filter>
</defs>
</svg>
