<svg xmlns="http://www.w3.org/2000/svg" fill="none" viewBox="0 0 44 60"><path fill="#F81717" d="M36.508 0H7.492C3.768 0 .677 3.021.677 6.745v46.51C.677 56.98 3.697 60 7.492 60h29.016c3.724 0 6.815-3.021 6.815-6.745V6.745C43.323 3.02 40.303 0 36.508 0zm4.707 53.255c0 2.6-2.107 4.637-4.707 4.637H7.492c-2.6 0-4.708-2.108-4.708-4.637V6.745c0-2.6 2.108-4.637 4.708-4.637h29.016c2.6 0 4.707 2.107 4.707 4.637v46.51z"/><path fill="#F81717" d="M30.607 6.674H13.253a1.08 1.08 0 00-1.054 1.054 1.08 1.08 0 001.054 1.054h17.354a1.08 1.08 0 001.053-1.054 1.08 1.08 0 00-1.053-1.054zM21.965 46.932c-1.968 0-3.513 1.616-3.513 3.513 0 .913.351 1.827 1.054 2.459.632.632 1.545.984 2.459.984 1.967 0 3.512-1.616 3.512-3.513 0-1.897-1.545-3.443-3.512-3.443zm.07 4.918c-.351 0-.703-.14-.984-.421a1.387 1.387 0 01-.421-.984 1.41 1.41 0 011.405-1.405 1.41 1.41 0 011.405 1.405 1.41 1.41 0 01-1.405 1.405z"/></svg>