<svg xmlns="http://www.w3.org/2000/svg" fill="none" viewBox="0 0 60 60"><path fill="#F81717" d="M51.9 24.613a22.065 22.065 0 00-14.322-5.266c-1.67 0-3.275.193-4.816.514-.835-4.303-4.11-7.45-9.57-9.055-4.11-1.22-8.027-1.092-8.156-1.092-.514 0-.899.45-.963.963 0 .514.385.964.899.964 3.404.192 4.303 4.495 4.56 5.78.514 3.21-.257 5.715-.835 5.908-.578.257-1.285.128-1.991-.193-1.541-.77-3.596-3.018-4.752-7.128C8.934 6.053 1.293 6.76 1.164 6.76c-.45.064-.835.45-.835.899 0 .45.257.899.771 1.027 4.046.9 3.211 7.643 2.505 13.616-.257 2.247-.514 4.367-.514 6.1.257 14.772 10.596 16.506 12.652 16.698a22.12 22.12 0 009.376 14.707.729.729 0 00.514.193h23.89c.258 0 .514-.129.707-.321 5.909-4.175 9.44-10.918 9.44-18.175 0-6.037-2.44-11.56-6.422-15.606L51.9 24.613zM5.018 28.338c0-1.54.192-3.66.45-5.78.513-4.495 1.155-9.761-.515-12.973 1.799.964 3.854 2.955 5.01 7.065 1.156 3.982 3.34 7.064 5.78 8.285 1.22.578 2.44.706 3.532.257 1.99-.771 2.569-4.689 2.055-8.028-.321-2.12-1.092-3.918-2.055-5.138 4.303.642 10.468 2.633 11.56 8.413-8.927 2.826-15.414 11.239-15.414 21.13 0 .577 0 1.091.065 1.669-2.312-.385-10.212-2.312-10.468-14.9zM49.202 58.01H25.954c-5.266-3.725-8.413-9.697-8.606-16.12h3.79c.513 0 .963-.45.963-.963a.988.988 0 00-.964-.963h-3.725c.322-4.496 2.184-8.606 5.01-11.817l2.825 2.825c.193.193.45.257.707.257.257 0 .514-.064.706-.257a.931.931 0 000-1.348l-2.89-2.89c3.404-3.211 7.9-5.202 12.845-5.46v4.111c0 .514.45.963.963.963.514 0 .964-.45.964-.963v-4.11c4.56.193 8.67 1.927 11.945 4.688l-3.532 3.532a.931.931 0 000 1.35c.192.192.45.256.706.256.257 0 .514-.064.707-.257l3.596-3.596a19.895 19.895 0 015.523 10.66c0 .065.193 1.927.193 1.991h-3.66a.988.988 0 00-.964.964c0 .514.45.963.963.963h3.79c.064.514 0-.835 0-.321 0 6.55-3.212 12.716-8.606 16.505z"/><path fill="#F81717" d="M50.551 39.963H42.01c-.45-2.056-2.248-3.533-4.432-3.533-2.504 0-4.495 2.056-4.495 4.496 0 2.44 2.055 4.495 4.495 4.495a4.552 4.552 0 004.432-3.532h8.605c.514 0 .964-.45.964-.963 0-.514-.514-.963-1.028-.963zm-12.973 3.532a2.576 2.576 0 01-2.569-2.569 2.576 2.576 0 012.57-2.569c1.412 0 2.632 1.156 2.632 2.569s-1.22 2.569-2.633 2.569zM34.753 12.026c1.734 1.284 3.403 2.505 3.853 3.725.128.385.514.578.899.578s.706-.193.9-.578c1.027-2.184 1.669-7.193-3.084-10.34a63.985 63.985 0 00-3.532-2.12c-1.734-.963-3.147-1.733-4.174-2.954a1.185 1.185 0 00-1.028-.32c-.385.128-.642.385-.706.77 0 .193-.578 4.367 3.34 8.285 1.027 1.156 2.311 2.055 3.532 2.954zm-1.927-7c1.027.578 2.184 1.22 3.404 2.055 2.826 1.862 3.082 4.431 2.89 6.1-.9-.898-2.055-1.797-3.211-2.632-1.156-.835-2.377-1.734-3.276-2.698-1.605-1.605-2.312-3.21-2.633-4.495.835.578 1.798 1.092 2.826 1.67z"/></svg>