<svg width="84" height="84" viewBox="0 0 84 84" fill="none" xmlns="http://www.w3.org/2000/svg">
<g filter="url(#filter0_dd)">
<path d="M63.8998 32.6135C60.0465 29.3382 55.0371 27.3473 49.5782 27.3473C47.9084 27.3473 46.3029 27.5399 44.7616 27.861C43.9267 23.5581 40.6513 20.4113 35.1924 18.8057C31.0822 17.5855 27.1646 17.7139 27.0362 17.7139C26.5224 17.7139 26.1371 18.1635 26.0729 18.6773C26.0729 19.191 26.4582 19.6406 26.972 19.6406C30.3758 19.8333 31.2749 24.1362 31.5318 25.4206C32.0455 28.6317 31.2749 31.1364 30.6969 31.3291C30.1189 31.5859 29.4124 31.4575 28.706 31.1364C27.1646 30.3657 25.1095 28.1179 23.9535 24.0077C20.9351 14.0532 13.2926 14.7597 13.1642 14.7597C12.7146 14.8239 12.3293 15.2092 12.3293 15.6588C12.3293 16.1084 12.5862 16.5579 13.1 16.6864C17.146 17.5855 16.3111 24.3288 15.6046 30.3015C15.3477 32.5493 15.0908 34.6686 15.0908 36.4026C15.3477 51.1737 25.6875 52.9077 27.7426 53.1004C28.706 59.0089 32.0455 64.3393 37.1191 67.8073C37.2475 67.9358 37.4402 68 37.6329 68H61.5236C61.7805 68 62.0374 67.8715 62.23 67.6789C68.1385 63.5044 71.6707 56.7611 71.6707 49.504C71.6707 43.4671 69.2302 37.9439 65.2485 33.8979L63.8998 32.6135ZM17.0175 36.3384C17.0175 34.7971 17.2102 32.6777 17.4671 30.5584C17.9808 26.0628 18.6231 20.7966 16.9533 17.5855C18.7515 18.5488 20.8066 20.5397 21.9626 24.6499C23.1186 28.6317 25.3022 31.7144 27.7426 32.9346C28.9629 33.5126 30.1831 33.6411 31.2749 33.1915C33.2658 32.4208 33.8438 28.5033 33.33 25.1637C33.0089 23.0444 32.2382 21.2461 31.2749 20.0259C35.5778 20.6681 41.7431 22.659 42.8349 28.439C33.908 31.2648 27.4215 39.6779 27.4215 49.5682C27.4215 50.1462 27.4215 50.66 27.4857 51.238C25.1737 50.8526 17.2744 48.926 17.0175 36.3384ZM61.2025 66.0091H37.954C32.6878 62.2842 29.5409 56.3115 29.3482 49.8893H33.1373C33.6511 49.8893 34.1006 49.4397 34.1006 48.926C34.1006 48.4122 33.6511 47.9626 33.1373 47.9626H29.4124C29.7335 43.4671 31.596 39.3568 34.4218 36.1457L37.2475 38.9715C37.4402 39.1642 37.6971 39.2284 37.954 39.2284C38.2109 39.2284 38.4678 39.1642 38.6604 38.9715C39.0458 38.5862 39.0458 38.0082 38.6604 37.6228L35.7704 34.7328C39.1742 31.5217 43.6698 29.5308 48.6149 29.2739V33.3842C48.6149 33.8979 49.0644 34.3475 49.5782 34.3475C50.092 34.3475 50.5416 33.8979 50.5416 33.3842V29.2739C55.1013 29.4666 59.2116 31.2006 62.4869 33.9622L58.9547 37.4944C58.5693 37.8797 58.5693 38.4577 58.9547 38.8431C59.1474 39.0357 59.4042 39.0999 59.6611 39.0999C59.918 39.0999 60.1749 39.0357 60.3676 38.8431L63.964 35.2466C66.7898 38.0724 68.7807 41.7973 69.4871 45.9075C69.4871 45.9717 69.6798 47.8342 69.6798 47.8984H66.0191C65.5054 47.8984 65.0558 48.348 65.0558 48.8617C65.0558 49.3755 65.5054 49.8251 66.0191 49.8251H69.8083C69.8725 50.3388 69.8083 48.9902 69.8083 49.504C69.8083 56.0546 66.5971 62.22 61.2025 66.0091Z" fill="#F81717"/>
<path d="M62.5511 47.9626H54.0096C53.56 45.9075 51.7618 44.4304 49.5782 44.4304C47.0736 44.4304 45.0827 46.4855 45.0827 48.926C45.0827 51.3664 47.1378 53.4215 49.5782 53.4215C51.7618 53.4215 53.56 51.8802 54.0096 49.8893H62.6154C63.1291 49.8893 63.5787 49.4398 63.5787 48.926C63.5787 48.4122 63.0649 47.9626 62.5511 47.9626ZM49.5782 51.4949C48.1653 51.4949 47.0093 50.3389 47.0093 48.926C47.0093 47.5131 48.1653 46.3571 49.5782 46.3571C50.9911 46.3571 52.2113 47.5131 52.2113 48.926C52.2113 50.3389 50.9911 51.4949 49.5782 51.4949Z" fill="#F81717"/>
<path d="M46.7526 20.0259C48.4866 21.3104 50.1564 22.5306 50.6059 23.7508C50.7344 24.1362 51.1197 24.3288 51.505 24.3288C51.8904 24.3288 52.2115 24.1362 52.4042 23.7508C53.4317 21.5673 54.0739 16.5579 49.3215 13.411C48.037 12.5761 46.8168 11.8697 45.7893 11.2917C44.0553 10.3284 42.6424 9.5577 41.6148 8.33748C41.3579 8.08059 40.9726 7.95214 40.5873 8.01637C40.2019 8.14481 39.945 8.4017 39.8808 8.78703C39.8808 8.9797 39.3028 13.1542 43.2204 17.0717C44.2479 18.2277 45.5324 19.1268 46.7526 20.0259ZM44.8259 13.0257C45.8535 13.6037 47.0095 14.2459 48.2297 15.0808C51.0555 16.9433 51.3124 19.5122 51.1197 21.1819C50.2206 20.2828 49.0646 19.3837 47.9086 18.5488C46.7526 17.7139 45.5324 16.8148 44.6333 15.8515C43.0277 14.2459 42.3213 12.6404 42.0001 11.3559C42.835 11.9339 43.7984 12.4477 44.8259 13.0257Z" fill="#F81717"/>
</g>
<defs>
<filter id="filter0_dd" x="0.329285" y="0" width="83.3414" height="84" filterUnits="userSpaceOnUse" color-interpolation-filters="sRGB">
<feFlood flood-opacity="0" result="BackgroundImageFix"/>
<feColorMatrix in="SourceAlpha" type="matrix" values="0 0 0 0 0 0 0 0 0 0 0 0 0 0 0 0 0 0 127 0"/>
<feOffset dy="4"/>
<feGaussianBlur stdDeviation="6"/>
<feColorMatrix type="matrix" values="0 0 0 0 1 0 0 0 0 0.301961 0 0 0 0 0.301961 0 0 0 0.5 0"/>
<feBlend mode="normal" in2="BackgroundImageFix" result="effect1_dropShadow"/>
<feColorMatrix in="SourceAlpha" type="matrix" values="0 0 0 0 0 0 0 0 0 0 0 0 0 0 0 0 0 0 127 0"/>
<feOffset/>
<feGaussianBlur stdDeviation="1"/>
<feColorMatrix type="matrix" values="0 0 0 0 0 0 0 0 0 0 0 0 0 0 0 0 0 0 0.1 0"/>
<feBlend mode="normal" in2="effect1_dropShadow" result="effect2_dropShadow"/>
<feBlend mode="normal" in="SourceGraphic" in2="effect2_dropShadow" result="shape"/>
</filter>
</defs>
</svg>
